M48
; DRILL file KiCad 10.0.1 date 2026-08-10T00:00:42
; FORMAT={-:-/ absolute / metric / decimal}
; #@! TF.CreationDate,2026-08-10T00:00:42+08:00
; #@! TF.GenerationSoftware,Kicad,Pcbnew,10.0.1
; #@! TF.FileFunction,Plated,1,2,PTH
FMAT,2
METRIC
; #@! TA.AperFunction,Plated,PTH,ViaDrill
T1C0.300
; #@! TA.AperFunction,Plated,PTH,ComponentDrill
T2C0.700
; #@! TA.AperFunction,Plated,PTH,ComponentDrill
T3C0.800
; #@! TA.AperFunction,Plated,PTH,ComponentDrill
T4C1.000
; #@! TA.AperFunction,Plated,PTH,ComponentDrill
T5C1.100
; #@! TA.AperFunction,Plated,PTH,ComponentDrill
T6C1.200
%
G90
G05
T1
X157.0Y-98.5
X157.0Y-104.5
X158.0Y-82.0
X158.0Y-88.5
T2
X117.655Y-74.5
X118.925Y-74.5
T3
X111.805Y-77.24
X111.805Y-79.78
X111.805Y-82.32
X111.805Y-84.86
X111.805Y-87.4
X111.805Y-89.94
X111.805Y-92.48
X111.805Y-95.02
X111.805Y-97.56
X111.805Y-100.1
X111.805Y-102.64
X111.805Y-105.18
X111.805Y-107.72
X111.805Y-110.26
X111.805Y-112.8
X111.805Y-115.34
X111.805Y-117.88
X111.805Y-120.42
X111.805Y-122.96
X111.805Y-125.5
X127.045Y-77.24
X127.045Y-79.78
X127.045Y-82.32
X127.045Y-84.86
X127.045Y-87.4
X127.045Y-89.94
X127.045Y-92.48
X127.045Y-95.02
X127.045Y-97.56
X127.045Y-100.1
X127.045Y-102.64
X127.045Y-105.18
X127.045Y-107.72
X127.045Y-110.26
X127.045Y-112.8
X127.045Y-115.34
X127.045Y-117.88
X127.045Y-120.42
X127.045Y-122.96
X127.045Y-125.5
T4
X135.72Y-74.65
X135.72Y-77.19
X135.72Y-79.73
X135.72Y-82.27
X135.72Y-84.81
X135.72Y-87.35
X135.72Y-89.89
X135.72Y-92.43
X135.72Y-94.97
X135.72Y-97.51
X135.72Y-100.05
X135.72Y-102.59
X135.72Y-105.13
X135.72Y-107.67
X135.72Y-110.21
X135.72Y-112.75
X135.72Y-115.29
X135.72Y-117.83
X135.72Y-120.37
X135.72Y-122.91
X153.5Y-74.65
X153.5Y-77.19
X153.5Y-79.73
X153.5Y-82.27
X153.5Y-84.81
X153.5Y-87.35
X153.5Y-89.89
X153.5Y-92.43
X153.5Y-94.97
X153.5Y-97.51
X153.5Y-100.05
X153.5Y-102.59
X153.5Y-105.13
X153.5Y-107.67
X153.5Y-110.21
X153.5Y-112.75
X153.5Y-115.29
X153.5Y-117.83
X153.5Y-120.37
X153.5Y-122.91
X169.095Y-99.401
X171.635Y-99.401
X174.175Y-99.401
X176.715Y-99.401
T5
X117.5Y-132.5
X117.5Y-137.0
X124.0Y-132.5
X124.0Y-137.0
X145.875Y-132.5
X145.875Y-137.0
X152.375Y-132.5
X152.375Y-137.0
X174.25Y-132.5
X174.25Y-137.0
X180.75Y-132.5
X180.75Y-137.0
T6
X165.32Y-77.4
X173.3Y-77.4
M30
