%TF.GenerationSoftware,KiCad,Pcbnew,10.0.1*%
%TF.CreationDate,2026-08-10T00:06:23+08:00*%
%TF.ProjectId,pico chiptune player,7069636f-2063-4686-9970-74756e652070,0.1*%
%TF.SameCoordinates,Original*%
%TF.FileFunction,Soldermask,Bot*%
%TF.FilePolarity,Negative*%
%FSLAX46Y46*%
G04 Gerber Fmt 4.6, Leading zero omitted, Abs format (unit mm)*
G04 Created by KiCad (PCBNEW 10.0.1) date 2026-08-10 00:06:23*
%MOMM*%
%LPD*%
G01*
G04 APERTURE LIST*
G04 Aperture macros list*
%AMRoundRect*
0 Rectangle with rounded corners*
0 $1 Rounding radius*
0 $2 $3 $4 $5 $6 $7 $8 $9 X,Y pos of 4 corners*
0 Add a 4 corners polygon primitive as box body*
4,1,4,$2,$3,$4,$5,$6,$7,$8,$9,$2,$3,0*
0 Add four circle primitives for the rounded corners*
1,1,$1+$1,$2,$3*
1,1,$1+$1,$4,$5*
1,1,$1+$1,$6,$7*
1,1,$1+$1,$8,$9*
0 Add four rect primitives between the rounded corners*
20,1,$1+$1,$2,$3,$4,$5,0*
20,1,$1+$1,$4,$5,$6,$7,0*
20,1,$1+$1,$6,$7,$8,$9,0*
20,1,$1+$1,$8,$9,$2,$3,0*%
%AMFreePoly0*
4,1,37,0.603843,0.796157,0.639018,0.796157,0.711114,0.766294,0.766294,0.711114,0.796157,0.639018,0.796157,0.603843,0.800000,0.600000,0.800000,-0.600000,0.796157,-0.603843,0.796157,-0.639018,0.766294,-0.711114,0.711114,-0.766294,0.639018,-0.796157,0.603843,-0.796157,0.600000,-0.800000,0.000000,-0.800000,0.000000,-0.796148,-0.078414,-0.796148,-0.232228,-0.765552,-0.377117,-0.705537,
-0.507515,-0.618408,-0.618408,-0.507515,-0.705537,-0.377117,-0.765552,-0.232228,-0.796148,-0.078414,-0.796148,0.078414,-0.765552,0.232228,-0.705537,0.377117,-0.618408,0.507515,-0.507515,0.618408,-0.377117,0.705537,-0.232228,0.765552,-0.078414,0.796148,0.000000,0.796148,0.000000,0.800000,0.600000,0.800000,0.603843,0.796157,0.603843,0.796157,$1*%
%AMFreePoly1*
4,1,37,0.000000,0.796148,0.078414,0.796148,0.232228,0.765552,0.377117,0.705537,0.507515,0.618408,0.618408,0.507515,0.705537,0.377117,0.765552,0.232228,0.796148,0.078414,0.796148,-0.078414,0.765552,-0.232228,0.705537,-0.377117,0.618408,-0.507515,0.507515,-0.618408,0.377117,-0.705537,0.232228,-0.765552,0.078414,-0.796148,0.000000,-0.796148,0.000000,-0.800000,-0.600000,-0.800000,
-0.603843,-0.796157,-0.639018,-0.796157,-0.711114,-0.766294,-0.766294,-0.711114,-0.796157,-0.639018,-0.796157,-0.603843,-0.800000,-0.600000,-0.800000,0.600000,-0.796157,0.603843,-0.796157,0.639018,-0.766294,0.711114,-0.711114,0.766294,-0.639018,0.796157,-0.603843,0.796157,-0.600000,0.800000,0.000000,0.800000,0.000000,0.796148,0.000000,0.796148,$1*%
%AMFreePoly2*
4,1,6,1.000000,0.000000,0.500000,-0.750000,-0.500000,-0.750000,-0.500000,0.750000,0.500000,0.750000,1.000000,0.000000,1.000000,0.000000,$1*%
G04 Aperture macros list end*
%ADD10R,1.700000X1.700000*%
%ADD11O,1.700000X1.700000*%
%ADD12C,2.200000*%
%ADD13C,1.850000*%
%ADD14RoundRect,0.200000X-0.600000X-0.600000X0.600000X-0.600000X0.600000X0.600000X-0.600000X0.600000X0*%
%ADD15C,1.600000*%
%ADD16FreePoly0,0.000000*%
%ADD17FreePoly1,0.000000*%
%ADD18R,1.000000X1.000000*%
%ADD19C,1.000000*%
%ADD20C,2.000000*%
%ADD21RoundRect,0.250000X-0.550000X-0.550000X0.550000X-0.550000X0.550000X0.550000X-0.550000X0.550000X0*%
%ADD22RoundRect,0.250000X-0.450000X0.350000X-0.450000X-0.350000X0.450000X-0.350000X0.450000X0.350000X0*%
%ADD23FreePoly2,90.000000*%
%ADD24FreePoly2,270.000000*%
%ADD25RoundRect,0.250000X0.350000X0.450000X-0.350000X0.450000X-0.350000X-0.450000X0.350000X-0.450000X0*%
%ADD26RoundRect,0.250000X-0.337500X-0.475000X0.337500X-0.475000X0.337500X0.475000X-0.337500X0.475000X0*%
%ADD27C,1.500000*%
%ADD28R,0.700000X1.200000*%
%ADD29R,1.200000X1.400000*%
%ADD30R,1.500000X2.200000*%
%ADD31R,1.600000X1.400000*%
%ADD32RoundRect,0.250000X0.337500X0.475000X-0.337500X0.475000X-0.337500X-0.475000X0.337500X-0.475000X0*%
%ADD33RoundRect,0.250000X-0.350000X-0.450000X0.350000X-0.450000X0.350000X0.450000X-0.350000X0.450000X0*%
%ADD34RoundRect,0.250000X0.475000X-0.337500X0.475000X0.337500X-0.475000X0.337500X-0.475000X-0.337500X0*%
G04 APERTURE END LIST*
%TO.C,JP1*%
G36*
X118175000Y-110000000D02*
G01*
X119675000Y-110000000D01*
X119675000Y-115000000D01*
X118175000Y-115000000D01*
X118175000Y-110000000D01*
G37*
%TD*%
D10*
%TO.C,U2*%
X176715000Y-99401022D03*
D11*
X174175000Y-99401022D03*
X171635000Y-99401022D03*
X169095000Y-99401022D03*
%TD*%
D12*
%TO.C,A1*%
X141885000Y-74780000D03*
D13*
X142185000Y-77810000D03*
X147035000Y-77810000D03*
D12*
X147335000Y-74780000D03*
D14*
X135720000Y-74650000D03*
D15*
X135720000Y-77190000D03*
D16*
X135720000Y-79730000D03*
D15*
X135720000Y-82270000D03*
X135720000Y-84810000D03*
X135720000Y-87350000D03*
X135720000Y-89890000D03*
D16*
X135720000Y-92430000D03*
D15*
X135720000Y-94970000D03*
X135720000Y-97510000D03*
X135720000Y-100050000D03*
X135720000Y-102590000D03*
D16*
X135720000Y-105130000D03*
D15*
X135720000Y-107670000D03*
X135720000Y-110210000D03*
X135720000Y-112750000D03*
X135720000Y-115290000D03*
D16*
X135720000Y-117830000D03*
D15*
X135720000Y-120370000D03*
X135720000Y-122910000D03*
X153500000Y-122910000D03*
X153500000Y-120370000D03*
D17*
X153500000Y-117830000D03*
D15*
X153500000Y-115290000D03*
X153500000Y-112750000D03*
X153500000Y-110210000D03*
X153500000Y-107670000D03*
D17*
X153500000Y-105130000D03*
D15*
X153500000Y-102590000D03*
X153500000Y-100050000D03*
X153500000Y-97510000D03*
X153500000Y-94970000D03*
D17*
X153500000Y-92430000D03*
D15*
X153500000Y-89890000D03*
X153500000Y-87350000D03*
X153500000Y-84810000D03*
X153500000Y-82270000D03*
D17*
X153500000Y-79730000D03*
D15*
X153500000Y-77190000D03*
X153500000Y-74650000D03*
%TD*%
D18*
%TO.C,J2*%
X117655000Y-74500000D03*
D19*
X118925000Y-74500000D03*
%TD*%
D20*
%TO.C,SW1*%
X145875000Y-132500000D03*
X152375000Y-132500000D03*
X145875000Y-137000000D03*
X152375000Y-137000000D03*
%TD*%
%TO.C,SW3*%
X117500000Y-132500000D03*
X124000000Y-132500000D03*
X117500000Y-137000000D03*
X124000000Y-137000000D03*
%TD*%
D21*
%TO.C,U1*%
X111805000Y-77240000D03*
D15*
X111805000Y-79780000D03*
X111805000Y-82320000D03*
X111805000Y-84860000D03*
X111805000Y-87400000D03*
X111805000Y-89940000D03*
X111805000Y-92480000D03*
X111805000Y-95020000D03*
X111805000Y-97560000D03*
X111805000Y-100100000D03*
X111805000Y-102640000D03*
X111805000Y-105180000D03*
X111805000Y-107720000D03*
X111805000Y-110260000D03*
X111805000Y-112800000D03*
X111805000Y-115340000D03*
X111805000Y-117880000D03*
X111805000Y-120420000D03*
X111805000Y-122960000D03*
X111805000Y-125500000D03*
X127045000Y-125500000D03*
X127045000Y-122960000D03*
X127045000Y-120420000D03*
X127045000Y-117880000D03*
X127045000Y-115340000D03*
X127045000Y-112800000D03*
X127045000Y-110260000D03*
X127045000Y-107720000D03*
X127045000Y-105180000D03*
X127045000Y-102640000D03*
X127045000Y-100100000D03*
X127045000Y-97560000D03*
X127045000Y-95020000D03*
X127045000Y-92480000D03*
X127045000Y-89940000D03*
X127045000Y-87400000D03*
X127045000Y-84860000D03*
X127045000Y-82320000D03*
X127045000Y-79780000D03*
X127045000Y-77240000D03*
%TD*%
D20*
%TO.C,SW2*%
X174250000Y-132500000D03*
X180750000Y-132500000D03*
X174250000Y-137000000D03*
X180750000Y-137000000D03*
%TD*%
D22*
%TO.C,R5*%
X124425000Y-82500000D03*
X124425000Y-84500000D03*
%TD*%
D23*
%TO.C,JP1*%
X118925000Y-114500000D03*
D24*
X118925000Y-110500000D03*
%TD*%
D25*
%TO.C,R1*%
X123925000Y-120500000D03*
X121925000Y-120500000D03*
%TD*%
D26*
%TO.C,C3*%
X116500000Y-88000000D03*
X118575000Y-88000000D03*
%TD*%
D22*
%TO.C,R7*%
X123425000Y-123000000D03*
X123425000Y-125000000D03*
%TD*%
%TO.C,R6*%
X124425000Y-86500000D03*
X124425000Y-88500000D03*
%TD*%
D27*
%TO.C,J1*%
X165320000Y-77400000D03*
X173300000Y-77400000D03*
D28*
X172500000Y-88560000D03*
X171350000Y-88560000D03*
X170250000Y-88560000D03*
X169150000Y-88560000D03*
X168000000Y-88560000D03*
X166900000Y-88560000D03*
X165800000Y-88560000D03*
X164700000Y-88560000D03*
X163600000Y-88560000D03*
D29*
X162350000Y-87800000D03*
D30*
X162500000Y-78000000D03*
D31*
X177100000Y-87800000D03*
D30*
X178000000Y-78000000D03*
%TD*%
D32*
%TO.C,C2*%
X124462500Y-110000000D03*
X122387500Y-110000000D03*
%TD*%
D33*
%TO.C,R3*%
X114425000Y-85000000D03*
X116425000Y-85000000D03*
%TD*%
D32*
%TO.C,C1*%
X124425000Y-107500000D03*
X122350000Y-107500000D03*
%TD*%
D33*
%TO.C,R4*%
X114425000Y-82500000D03*
X116425000Y-82500000D03*
%TD*%
D34*
%TO.C,C4*%
X118925000Y-82537500D03*
X118925000Y-80462500D03*
%TD*%
D22*
%TO.C,R2*%
X147500000Y-95000000D03*
X147500000Y-97000000D03*
%TD*%
M02*
