%TF.GenerationSoftware,KiCad,Pcbnew,10.0.1*%
%TF.CreationDate,2026-08-10T00:06:23+08:00*%
%TF.ProjectId,pico chiptune player,7069636f-2063-4686-9970-74756e652070,0.1*%
%TF.SameCoordinates,Original*%
%TF.FileFunction,Copper,L2,Bot*%
%TF.FilePolarity,Positive*%
%FSLAX46Y46*%
G04 Gerber Fmt 4.6, Leading zero omitted, Abs format (unit mm)*
G04 Created by KiCad (PCBNEW 10.0.1) date 2026-08-10 00:06:23*
%MOMM*%
%LPD*%
G01*
G04 APERTURE LIST*
G04 Aperture macros list*
%AMRoundRect*
0 Rectangle with rounded corners*
0 $1 Rounding radius*
0 $2 $3 $4 $5 $6 $7 $8 $9 X,Y pos of 4 corners*
0 Add a 4 corners polygon primitive as box body*
4,1,4,$2,$3,$4,$5,$6,$7,$8,$9,$2,$3,0*
0 Add four circle primitives for the rounded corners*
1,1,$1+$1,$2,$3*
1,1,$1+$1,$4,$5*
1,1,$1+$1,$6,$7*
1,1,$1+$1,$8,$9*
0 Add four rect primitives between the rounded corners*
20,1,$1+$1,$2,$3,$4,$5,0*
20,1,$1+$1,$4,$5,$6,$7,0*
20,1,$1+$1,$6,$7,$8,$9,0*
20,1,$1+$1,$8,$9,$2,$3,0*%
%AMFreePoly0*
4,1,37,0.603843,0.796157,0.639018,0.796157,0.711114,0.766294,0.766294,0.711114,0.796157,0.639018,0.796157,0.603843,0.800000,0.600000,0.800000,-0.600000,0.796157,-0.603843,0.796157,-0.639018,0.766294,-0.711114,0.711114,-0.766294,0.639018,-0.796157,0.603843,-0.796157,0.600000,-0.800000,0.000000,-0.800000,0.000000,-0.796148,-0.078414,-0.796148,-0.232228,-0.765552,-0.377117,-0.705537,
-0.507515,-0.618408,-0.618408,-0.507515,-0.705537,-0.377117,-0.765552,-0.232228,-0.796148,-0.078414,-0.796148,0.078414,-0.765552,0.232228,-0.705537,0.377117,-0.618408,0.507515,-0.507515,0.618408,-0.377117,0.705537,-0.232228,0.765552,-0.078414,0.796148,0.000000,0.796148,0.000000,0.800000,0.600000,0.800000,0.603843,0.796157,0.603843,0.796157,$1*%
%AMFreePoly1*
4,1,37,0.000000,0.796148,0.078414,0.796148,0.232228,0.765552,0.377117,0.705537,0.507515,0.618408,0.618408,0.507515,0.705537,0.377117,0.765552,0.232228,0.796148,0.078414,0.796148,-0.078414,0.765552,-0.232228,0.705537,-0.377117,0.618408,-0.507515,0.507515,-0.618408,0.377117,-0.705537,0.232228,-0.765552,0.078414,-0.796148,0.000000,-0.796148,0.000000,-0.800000,-0.600000,-0.800000,
-0.603843,-0.796157,-0.639018,-0.796157,-0.711114,-0.766294,-0.766294,-0.711114,-0.796157,-0.639018,-0.796157,-0.603843,-0.800000,-0.600000,-0.800000,0.600000,-0.796157,0.603843,-0.796157,0.639018,-0.766294,0.711114,-0.711114,0.766294,-0.639018,0.796157,-0.603843,0.796157,-0.600000,0.800000,0.000000,0.800000,0.000000,0.796148,0.000000,0.796148,$1*%
%AMFreePoly2*
4,1,6,1.000000,0.000000,0.500000,-0.750000,-0.500000,-0.750000,-0.500000,0.750000,0.500000,0.750000,1.000000,0.000000,1.000000,0.000000,$1*%
%AMFreePoly3*
4,1,7,0.700000,0.000000,1.200000,-0.750000,-1.200000,-0.750000,-0.700000,0.000000,-1.200000,0.750000,1.200000,0.750000,0.700000,0.000000,0.700000,0.000000,$1*%
G04 Aperture macros list end*
%TA.AperFunction,ComponentPad*%
%ADD10R,1.700000X1.700000*%
%TD*%
%TA.AperFunction,ComponentPad*%
%ADD11O,1.700000X1.700000*%
%TD*%
%TA.AperFunction,ComponentPad*%
%ADD12RoundRect,0.200000X-0.600000X-0.600000X0.600000X-0.600000X0.600000X0.600000X-0.600000X0.600000X0*%
%TD*%
%TA.AperFunction,ComponentPad*%
%ADD13C,1.600000*%
%TD*%
%TA.AperFunction,ComponentPad*%
%ADD14FreePoly0,0.000000*%
%TD*%
%TA.AperFunction,ComponentPad*%
%ADD15FreePoly1,0.000000*%
%TD*%
%TA.AperFunction,ComponentPad*%
%ADD16R,1.000000X1.000000*%
%TD*%
%TA.AperFunction,ComponentPad*%
%ADD17C,1.000000*%
%TD*%
%TA.AperFunction,ComponentPad*%
%ADD18C,2.000000*%
%TD*%
%TA.AperFunction,ComponentPad*%
%ADD19RoundRect,0.250000X-0.550000X-0.550000X0.550000X-0.550000X0.550000X0.550000X-0.550000X0.550000X0*%
%TD*%
%TA.AperFunction,SMDPad,CuDef*%
%ADD20RoundRect,0.250000X-0.450000X0.350000X-0.450000X-0.350000X0.450000X-0.350000X0.450000X0.350000X0*%
%TD*%
%TA.AperFunction,SMDPad,CuDef*%
%ADD21FreePoly2,90.000000*%
%TD*%
%TA.AperFunction,SMDPad,CuDef*%
%ADD22FreePoly3,90.000000*%
%TD*%
%TA.AperFunction,SMDPad,CuDef*%
%ADD23FreePoly2,270.000000*%
%TD*%
%TA.AperFunction,SMDPad,CuDef*%
%ADD24RoundRect,0.250000X0.350000X0.450000X-0.350000X0.450000X-0.350000X-0.450000X0.350000X-0.450000X0*%
%TD*%
%TA.AperFunction,SMDPad,CuDef*%
%ADD25RoundRect,0.250000X-0.337500X-0.475000X0.337500X-0.475000X0.337500X0.475000X-0.337500X0.475000X0*%
%TD*%
%TA.AperFunction,ComponentPad*%
%ADD26C,1.500000*%
%TD*%
%TA.AperFunction,SMDPad,CuDef*%
%ADD27R,0.700000X1.200000*%
%TD*%
%TA.AperFunction,SMDPad,CuDef*%
%ADD28R,1.200000X1.400000*%
%TD*%
%TA.AperFunction,SMDPad,CuDef*%
%ADD29R,1.500000X2.200000*%
%TD*%
%TA.AperFunction,SMDPad,CuDef*%
%ADD30R,1.600000X1.400000*%
%TD*%
%TA.AperFunction,SMDPad,CuDef*%
%ADD31RoundRect,0.250000X0.337500X0.475000X-0.337500X0.475000X-0.337500X-0.475000X0.337500X-0.475000X0*%
%TD*%
%TA.AperFunction,SMDPad,CuDef*%
%ADD32RoundRect,0.250000X-0.350000X-0.450000X0.350000X-0.450000X0.350000X0.450000X-0.350000X0.450000X0*%
%TD*%
%TA.AperFunction,SMDPad,CuDef*%
%ADD33RoundRect,0.250000X0.475000X-0.337500X0.475000X0.337500X-0.475000X0.337500X-0.475000X-0.337500X0*%
%TD*%
%TA.AperFunction,ViaPad*%
%ADD34C,0.600000*%
%TD*%
%TA.AperFunction,Conductor*%
%ADD35C,0.500000*%
%TD*%
%TA.AperFunction,Conductor*%
%ADD36C,0.200000*%
%TD*%
G04 APERTURE END LIST*
D10*
%TO.P,U2,1,VCC_1*%
%TO.N,+3.3V*%
X176715000Y-99401022D03*
D11*
%TO.P,U2,2,GND_2*%
%TO.N,GND*%
X174175000Y-99401022D03*
%TO.P,U2,3,SCL_3*%
%TO.N,/OLED_SCL*%
X171635000Y-99401022D03*
%TO.P,U2,4,SDA_4*%
%TO.N,/OLED_SDA*%
X169095000Y-99401022D03*
%TD*%
D12*
%TO.P,A1,1,GPIO0_1*%
%TO.N,/DA0*%
X135720000Y-74650000D03*
D13*
%TO.P,A1,2,GPIO1_2*%
%TO.N,/DA1*%
X135720000Y-77190000D03*
D14*
%TO.P,A1,3,GND_3*%
%TO.N,GND*%
X135720000Y-79730000D03*
D13*
%TO.P,A1,4,GPIO2_4*%
%TO.N,/DA2*%
X135720000Y-82270000D03*
%TO.P,A1,5,GPIO3_5*%
%TO.N,/DA3*%
X135720000Y-84810000D03*
%TO.P,A1,6,GPIO4_6*%
%TO.N,/DA4*%
X135720000Y-87350000D03*
%TO.P,A1,7,GPIO5_7*%
%TO.N,/DA5*%
X135720000Y-89890000D03*
D14*
%TO.P,A1,8,GND_8*%
%TO.N,GND*%
X135720000Y-92430000D03*
D13*
%TO.P,A1,9,GPIO6_9*%
%TO.N,/DA6*%
X135720000Y-94970000D03*
%TO.P,A1,10,GPIO7_10*%
%TO.N,/DA7*%
X135720000Y-97510000D03*
%TO.P,A1,11,GPIO8_11*%
%TO.N,/BDIR*%
X135720000Y-100050000D03*
%TO.P,A1,12,GPIO9_12*%
%TO.N,/BC1*%
X135720000Y-102590000D03*
D14*
%TO.P,A1,13,GND_13*%
%TO.N,GND*%
X135720000Y-105130000D03*
D13*
%TO.P,A1,14,GPIO10_14*%
%TO.N,/~{RESET}*%
X135720000Y-107670000D03*
%TO.P,A1,15,GPIO11_15*%
%TO.N,Net-(A1-GPIO11)*%
X135720000Y-110210000D03*
%TO.P,A1,16,GPIO12_16*%
%TO.N,/SW_PREV*%
X135720000Y-112750000D03*
%TO.P,A1,17,GPIO13_17*%
%TO.N,/SW_PLAY*%
X135720000Y-115290000D03*
D14*
%TO.P,A1,18,GND_18*%
%TO.N,GND*%
X135720000Y-117830000D03*
D13*
%TO.P,A1,19,GPIO14_19*%
%TO.N,unconnected-(A1-GPIO14-Pad19)_1*%
X135720000Y-120370000D03*
%TO.P,A1,20,GPIO15_20*%
%TO.N,/SW_NEXT*%
X135720000Y-122910000D03*
%TO.P,A1,21,GPIO16_21*%
%TO.N,/OLED_SCL*%
X153500000Y-122910000D03*
%TO.P,A1,22,GPIO17_22*%
%TO.N,/OLED_SDA*%
X153500000Y-120370000D03*
D15*
%TO.P,A1,23,GND_23*%
%TO.N,GND*%
X153500000Y-117830000D03*
D13*
%TO.P,A1,24,GPIO18_24*%
%TO.N,/SD_CS*%
X153500000Y-115290000D03*
%TO.P,A1,25,GPIO19_25*%
%TO.N,/SD_MOSI*%
X153500000Y-112750000D03*
%TO.P,A1,26,GPIO20_26*%
%TO.N,/SD_SCK*%
X153500000Y-110210000D03*
%TO.P,A1,27,GPIO21_27*%
%TO.N,/SD_MISO*%
X153500000Y-107670000D03*
D15*
%TO.P,A1,28,GND_28*%
%TO.N,GND*%
X153500000Y-105130000D03*
D13*
%TO.P,A1,29,GPIO22_29*%
%TO.N,/SD_Card_Detect*%
X153500000Y-102590000D03*
%TO.P,A1,30,RUN_30*%
%TO.N,unconnected-(A1-RUN-Pad30)_1*%
X153500000Y-100050000D03*
%TO.P,A1,31,GPIO26_ADC0_31*%
%TO.N,unconnected-(A1-GPIO26_ADC0-Pad31)_1*%
X153500000Y-97510000D03*
%TO.P,A1,32,GPIO27_ADC1_32*%
%TO.N,unconnected-(A1-GPIO27_ADC1-Pad32)*%
X153500000Y-94970000D03*
D15*
%TO.P,A1,33,AGND_33*%
%TO.N,unconnected-(A1-AGND-Pad33)*%
X153500000Y-92430000D03*
D13*
%TO.P,A1,34,GPIO28_ADC2_34*%
%TO.N,unconnected-(A1-GPIO28_ADC2-Pad34)_1*%
X153500000Y-89890000D03*
%TO.P,A1,35,ADC_VREF_35*%
%TO.N,unconnected-(A1-ADC_VREF-Pad35)*%
X153500000Y-87350000D03*
%TO.P,A1,36,3V3_36*%
%TO.N,+3.3V*%
X153500000Y-84810000D03*
%TO.P,A1,37,3V3_EN_37*%
%TO.N,unconnected-(A1-3V3_EN-Pad37)_1*%
X153500000Y-82270000D03*
D15*
%TO.P,A1,38,GND_38*%
%TO.N,GND*%
X153500000Y-79730000D03*
D13*
%TO.P,A1,39,VSYS_39*%
%TO.N,unconnected-(A1-VSYS-Pad39)_1*%
X153500000Y-77190000D03*
%TO.P,A1,40,VBUS_40*%
%TO.N,+5V*%
X153500000Y-74650000D03*
%TD*%
D16*
%TO.P,J2,1,Pin_1_1*%
%TO.N,GND*%
X117655000Y-74500000D03*
D17*
%TO.P,J2,2,Pin_2_2*%
%TO.N,Net-(J2-Pin_2)*%
X118925000Y-74500000D03*
%TD*%
D18*
%TO.P,SW1,1,1_1*%
%TO.N,/SW_PLAY*%
X145875000Y-132500000D03*
X152375000Y-132500000D03*
%TO.P,SW1,2,2_2*%
%TO.N,GND*%
X145875000Y-137000000D03*
X152375000Y-137000000D03*
%TD*%
%TO.P,SW3,1,1_1*%
%TO.N,/SW_PREV*%
X117500000Y-132500000D03*
X124000000Y-132500000D03*
%TO.P,SW3,2,2_2*%
%TO.N,GND*%
X117500000Y-137000000D03*
X124000000Y-137000000D03*
%TD*%
D19*
%TO.P,U1,1,VSS_1*%
%TO.N,GND*%
X111805000Y-77240000D03*
D13*
%TO.P,U1,2,NC_2*%
%TO.N,unconnected-(U1-NC-Pad2)*%
X111805000Y-79780000D03*
%TO.P,U1,3,ANALOG_B_3*%
%TO.N,/ANALOG_B*%
X111805000Y-82320000D03*
%TO.P,U1,4,ANALOG_A_4*%
%TO.N,/ANALOG_A*%
X111805000Y-84860000D03*
%TO.P,U1,5,NC_5*%
%TO.N,unconnected-(U1-NC-Pad5)*%
X111805000Y-87400000D03*
%TO.P,U1,6,IOB7_6*%
%TO.N,unconnected-(U1-IOB7-Pad6)*%
X111805000Y-89940000D03*
%TO.P,U1,7,IOB6_7*%
%TO.N,unconnected-(U1-IOB6-Pad7)*%
X111805000Y-92480000D03*
%TO.P,U1,8,IOB5_8*%
%TO.N,unconnected-(U1-IOB5-Pad8)*%
X111805000Y-95020000D03*
%TO.P,U1,9,IOB4_9*%
%TO.N,unconnected-(U1-IOB4-Pad9)*%
X111805000Y-97560000D03*
%TO.P,U1,10,IOB3_10*%
%TO.N,unconnected-(U1-IOB3-Pad10)*%
X111805000Y-100100000D03*
%TO.P,U1,11,IOB2_11*%
%TO.N,unconnected-(U1-IOB2-Pad11)*%
X111805000Y-102640000D03*
%TO.P,U1,12,IOB1_12*%
%TO.N,unconnected-(U1-IOB1-Pad12)*%
X111805000Y-105180000D03*
%TO.P,U1,13,IOB0_13*%
%TO.N,unconnected-(U1-IOB0-Pad13)*%
X111805000Y-107720000D03*
%TO.P,U1,14,IOA7_14*%
%TO.N,unconnected-(U1-IOA7-Pad14)*%
X111805000Y-110260000D03*
%TO.P,U1,15,IOA6_15*%
%TO.N,unconnected-(U1-IOA6-Pad15)*%
X111805000Y-112800000D03*
%TO.P,U1,16,IOA5_16*%
%TO.N,unconnected-(U1-IOA5-Pad16)*%
X111805000Y-115340000D03*
%TO.P,U1,17,IOA4_17*%
%TO.N,unconnected-(U1-IOA4-Pad17)*%
X111805000Y-117880000D03*
%TO.P,U1,18,IOA3_18*%
%TO.N,unconnected-(U1-IOA3-Pad18)*%
X111805000Y-120420000D03*
%TO.P,U1,19,IOA2_19*%
%TO.N,unconnected-(U1-IOA2-Pad19)*%
X111805000Y-122960000D03*
%TO.P,U1,20,IOA1_20*%
%TO.N,unconnected-(U1-IOA1-Pad20)*%
X111805000Y-125500000D03*
%TO.P,U1,21,IOA0_21*%
%TO.N,unconnected-(U1-IOA0-Pad21)*%
X127045000Y-125500000D03*
%TO.P,U1,22,CLOCK_22*%
%TO.N,/CLOCK*%
X127045000Y-122960000D03*
%TO.P,U1,23,~{RESET}_23*%
%TO.N,/~{RESET}*%
X127045000Y-120420000D03*
%TO.P,U1,24,A9_24*%
%TO.N,GND*%
X127045000Y-117880000D03*
%TO.P,U1,25,A8_25*%
%TO.N,+5V*%
X127045000Y-115340000D03*
%TO.P,U1,26,~{CS/Test_2}_26*%
%TO.N,Net-(JP1-C)*%
X127045000Y-112800000D03*
%TO.P,U1,27,BDIR_27*%
%TO.N,+5V*%
X127045000Y-110260000D03*
%TO.P,U1,28,BC2_28*%
X127045000Y-107720000D03*
%TO.P,U1,29,BC1_29*%
%TO.N,/BC1*%
X127045000Y-105180000D03*
%TO.P,U1,30,DA7_30*%
%TO.N,/DA7*%
X127045000Y-102640000D03*
%TO.P,U1,31,DA6_31*%
%TO.N,/DA6*%
X127045000Y-100100000D03*
%TO.P,U1,32,DA5_32*%
%TO.N,/DA5*%
X127045000Y-97560000D03*
%TO.P,U1,33,DA4_33*%
%TO.N,/DA4*%
X127045000Y-95020000D03*
%TO.P,U1,34,DA3_34*%
%TO.N,/DA3*%
X127045000Y-92480000D03*
%TO.P,U1,35,DA2_35*%
%TO.N,/DA2*%
X127045000Y-89940000D03*
%TO.P,U1,36,DA1_36*%
%TO.N,/DA1*%
X127045000Y-87400000D03*
%TO.P,U1,37,DA0_37*%
%TO.N,/DA0*%
X127045000Y-84860000D03*
%TO.P,U1,38,ANALOG_C_38*%
%TO.N,/ANALOG_C*%
X127045000Y-82320000D03*
%TO.P,U1,39,TEST1_39*%
%TO.N,unconnected-(U1-TEST1-Pad39)*%
X127045000Y-79780000D03*
%TO.P,U1,40,VCC_40*%
%TO.N,+5V*%
X127045000Y-77240000D03*
%TD*%
D18*
%TO.P,SW2,1,1_1*%
%TO.N,/SW_NEXT*%
X174250000Y-132500000D03*
X180750000Y-132500000D03*
%TO.P,SW2,2,2_2*%
%TO.N,GND*%
X174250000Y-137000000D03*
X180750000Y-137000000D03*
%TD*%
D20*
%TO.P,R5,1*%
%TO.N,/ANALOG_C*%
X124425000Y-82500000D03*
%TO.P,R5,2*%
%TO.N,Net-(C3-Pad1)*%
X124425000Y-84500000D03*
%TD*%
D21*
%TO.P,JP1,1,A_1*%
%TO.N,+5V*%
X118925000Y-114500000D03*
D22*
%TO.P,JP1,2,C_2*%
%TO.N,Net-(JP1-C)*%
X118925000Y-112500000D03*
D23*
%TO.P,JP1,3,B_3*%
%TO.N,GND*%
X118925000Y-110500000D03*
%TD*%
D24*
%TO.P,R1,1*%
%TO.N,/~{RESET}*%
X123925000Y-120500000D03*
%TO.P,R1,2*%
%TO.N,GND*%
X121925000Y-120500000D03*
%TD*%
D25*
%TO.P,C3,1*%
%TO.N,Net-(C3-Pad1)*%
X116500000Y-88000000D03*
%TO.P,C3,2*%
%TO.N,GND*%
X118575000Y-88000000D03*
%TD*%
D20*
%TO.P,R7,1*%
%TO.N,/CLOCK*%
X123425000Y-123000000D03*
%TO.P,R7,2*%
%TO.N,Net-(A1-GPIO11)*%
X123425000Y-125000000D03*
%TD*%
%TO.P,R6,1*%
%TO.N,Net-(C3-Pad1)*%
X124425000Y-86500000D03*
%TO.P,R6,2*%
%TO.N,GND*%
X124425000Y-88500000D03*
%TD*%
D26*
%TO.P,J1,*%
%TO.N,*%
X165320000Y-77400000D03*
X173300000Y-77400000D03*
D27*
%TO.P,J1,1,DAT2_1*%
%TO.N,unconnected-(J1-DAT2-Pad1)*%
X172500000Y-88560000D03*
%TO.P,J1,2,DAT3/CD_2*%
%TO.N,/SD_CS*%
X171350000Y-88560000D03*
%TO.P,J1,3,CMD_3*%
%TO.N,/SD_MOSI*%
X170250000Y-88560000D03*
%TO.P,J1,4,VDD_4*%
%TO.N,+3.3V*%
X169150000Y-88560000D03*
%TO.P,J1,5,CLK_5*%
%TO.N,/SD_SCK*%
X168000000Y-88560000D03*
%TO.P,J1,6,VSS_6*%
%TO.N,GND*%
X166900000Y-88560000D03*
%TO.P,J1,7,DAT0_7*%
%TO.N,/SD_MISO*%
X165800000Y-88560000D03*
%TO.P,J1,8,DAT1_8*%
%TO.N,unconnected-(J1-DAT1-Pad8)*%
X164700000Y-88560000D03*
%TO.P,J1,9,Card_Detect_9*%
%TO.N,/SD_Card_Detect*%
X163600000Y-88560000D03*
D28*
%TO.P,J1,10,Casing_10*%
%TO.N,GND*%
X162350000Y-87800000D03*
D29*
X162500000Y-78000000D03*
D30*
X177100000Y-87800000D03*
D29*
X178000000Y-78000000D03*
%TD*%
D31*
%TO.P,C2,1*%
%TO.N,+5V*%
X124462500Y-110000000D03*
%TO.P,C2,2*%
%TO.N,GND*%
X122387500Y-110000000D03*
%TD*%
D32*
%TO.P,R3,1*%
%TO.N,/ANALOG_A*%
X114425000Y-85000000D03*
%TO.P,R3,2*%
%TO.N,Net-(C3-Pad1)*%
X116425000Y-85000000D03*
%TD*%
D31*
%TO.P,C1,1*%
%TO.N,+5V*%
X124425000Y-107500000D03*
%TO.P,C1,2*%
%TO.N,GND*%
X122350000Y-107500000D03*
%TD*%
D32*
%TO.P,R4,1*%
%TO.N,/ANALOG_B*%
X114425000Y-82500000D03*
%TO.P,R4,2*%
%TO.N,Net-(C3-Pad1)*%
X116425000Y-82500000D03*
%TD*%
D33*
%TO.P,C4,1*%
%TO.N,Net-(C3-Pad1)*%
X118925000Y-82537500D03*
%TO.P,C4,2*%
%TO.N,Net-(J2-Pin_2)*%
X118925000Y-80462500D03*
%TD*%
D20*
%TO.P,R2,1*%
%TO.N,+3.3V*%
X147500000Y-95000000D03*
%TO.P,R2,2*%
%TO.N,/SD_CS*%
X147500000Y-97000000D03*
%TD*%
D34*
%TO.N,GND*%
X157000000Y-104500000D03*
X157000000Y-98500000D03*
X158000000Y-88500000D03*
X158000000Y-82000000D03*
%TD*%
%TO.N,/DA2*%
D35*
X128060000Y-89940000D02*
X131000000Y-87000000D01*
%TO.N,/SW_PREV*%
X135470000Y-112500000D02*
X135720000Y-112750000D01*
X133000000Y-112500000D02*
X135470000Y-112500000D01*
X131500000Y-114000000D02*
X133000000Y-112500000D01*
X131500000Y-130000000D02*
X131500000Y-114000000D01*
X129000000Y-132500000D02*
X131500000Y-130000000D01*
%TO.N,Net-(A1-GPIO11)*%
X132790000Y-110210000D02*
X135720000Y-110210000D01*
X130500000Y-112500000D02*
X132790000Y-110210000D01*
X130500000Y-122500000D02*
X130500000Y-112500000D01*
X126189017Y-124235983D02*
X128764017Y-124235983D01*
X125425000Y-125000000D02*
X126189017Y-124235983D01*
X128764017Y-124235983D02*
X130500000Y-122500000D01*
X123425000Y-125000000D02*
X125425000Y-125000000D01*
%TO.N,/~{RESET}*%
X129500000Y-119500000D02*
X129500000Y-110000000D01*
X128580000Y-120420000D02*
X129500000Y-119500000D01*
X129500000Y-110000000D02*
X131830000Y-107670000D01*
X131830000Y-107670000D02*
X135720000Y-107670000D01*
X127045000Y-120420000D02*
X128580000Y-120420000D01*
%TO.N,/BC1*%
X129820000Y-105180000D02*
X127045000Y-105180000D01*
X132410000Y-102590000D02*
X129820000Y-105180000D01*
X135720000Y-102590000D02*
X132410000Y-102590000D01*
%TO.N,+5V*%
X130280000Y-107720000D02*
X127045000Y-107720000D01*
%TO.N,/DA7*%
X132990000Y-97510000D02*
X127860000Y-102640000D01*
X135720000Y-97510000D02*
X132990000Y-97510000D01*
X127860000Y-102640000D02*
X127045000Y-102640000D01*
%TO.N,/DA6*%
X128400000Y-100100000D02*
X127045000Y-100100000D01*
X131000000Y-97500000D02*
X128400000Y-100100000D01*
X131000000Y-97000000D02*
X131000000Y-97500000D01*
X133030000Y-94970000D02*
X131000000Y-97000000D01*
X135720000Y-94970000D02*
X133030000Y-94970000D01*
%TO.N,/DA5*%
X133220000Y-89890000D02*
X135720000Y-89890000D01*
X129429950Y-96570050D02*
X132500000Y-93500000D01*
X132500000Y-93500000D02*
X132500000Y-90610000D01*
X129354950Y-96570050D02*
X129429950Y-96570050D01*
X132500000Y-90610000D02*
X133220000Y-89890000D01*
X128365000Y-97560000D02*
X129354950Y-96570050D01*
X127045000Y-97560000D02*
X128365000Y-97560000D01*
%TO.N,/DA3*%
X133190000Y-84810000D02*
X135720000Y-84810000D01*
X132500000Y-85500000D02*
X133190000Y-84810000D01*
X132500000Y-86750066D02*
X132500000Y-85500000D01*
X130000000Y-91000000D02*
X130000000Y-89250066D01*
X128520000Y-92480000D02*
X130000000Y-91000000D01*
X127045000Y-92480000D02*
X128520000Y-92480000D01*
X130000000Y-89250066D02*
X132500000Y-86750066D01*
%TO.N,/DA4*%
X131200000Y-92300000D02*
X131200000Y-89300000D01*
X128480000Y-95020000D02*
X131200000Y-92300000D01*
X131200000Y-89300000D02*
X133150000Y-87350000D01*
X127045000Y-95020000D02*
X128480000Y-95020000D01*
X133150000Y-87350000D02*
X135720000Y-87350000D01*
%TO.N,/DA2*%
X131000000Y-84000000D02*
X131000000Y-87000000D01*
X132730000Y-82270000D02*
X131000000Y-84000000D01*
X135720000Y-82270000D02*
X132730000Y-82270000D01*
%TO.N,/DA1*%
X132810000Y-77190000D02*
X135720000Y-77190000D01*
X130000000Y-80000000D02*
X132810000Y-77190000D01*
X128100000Y-87400000D02*
X130000000Y-85500000D01*
X130000000Y-85500000D02*
X130000000Y-80000000D01*
X127045000Y-87400000D02*
X128100000Y-87400000D01*
%TO.N,/DA2*%
X127045000Y-89940000D02*
X128060000Y-89940000D01*
%TO.N,/DA0*%
X128285000Y-84860000D02*
X129000000Y-84145000D01*
X129000000Y-78500000D02*
X132850000Y-74650000D01*
X132850000Y-74650000D02*
X135720000Y-74650000D01*
X127045000Y-84860000D02*
X128285000Y-84860000D01*
X129000000Y-84145000D02*
X129000000Y-78500000D01*
%TO.N,/SW_PLAY*%
X135500000Y-132500000D02*
X145875000Y-132500000D01*
X132700000Y-129700000D02*
X135500000Y-132500000D01*
X133210000Y-115290000D02*
X132700000Y-115800000D01*
X132700000Y-115800000D02*
X132700000Y-129700000D01*
X135720000Y-115290000D02*
X133210000Y-115290000D01*
%TO.N,Net-(C3-Pad1)*%
X118925000Y-82537500D02*
X116462500Y-82537500D01*
%TO.N,/SD_MISO*%
X162500000Y-101500000D02*
X156330000Y-107670000D01*
X156330000Y-107670000D02*
X153500000Y-107670000D01*
X165800000Y-94700000D02*
X162500000Y-98000000D01*
X162500000Y-98000000D02*
X162500000Y-101500000D01*
X165800000Y-88560000D02*
X165800000Y-94700000D01*
%TO.N,/SD_SCK*%
X156290000Y-110210000D02*
X153500000Y-110210000D01*
X163500000Y-103000000D02*
X156290000Y-110210000D01*
X163500000Y-98500000D02*
X163500000Y-103000000D01*
X168000000Y-94000000D02*
X163500000Y-98500000D01*
X168000000Y-88560000D02*
X168000000Y-94000000D01*
%TO.N,/SD_MOSI*%
X156250000Y-112750000D02*
X153500000Y-112750000D01*
X164500000Y-104500000D02*
X156250000Y-112750000D01*
X170250000Y-93250000D02*
X164500000Y-99000000D01*
X170250000Y-88560000D02*
X170250000Y-93250000D01*
X164500000Y-99000000D02*
X164500000Y-104500000D01*
%TO.N,/SD_CS*%
X156210000Y-115290000D02*
X153500000Y-115290000D01*
X165500000Y-106000000D02*
X156210000Y-115290000D01*
X165500000Y-99500000D02*
X165500000Y-106000000D01*
X171350000Y-88560000D02*
X171350000Y-93650000D01*
X171350000Y-93650000D02*
X165500000Y-99500000D01*
%TO.N,+3.3V*%
X173310000Y-84810000D02*
X168500000Y-84810000D01*
X176715000Y-99401022D02*
X176715000Y-95215000D01*
X149690000Y-84810000D02*
X147500000Y-87000000D01*
X174000000Y-85500000D02*
X173310000Y-84810000D01*
X153500000Y-84810000D02*
X149690000Y-84810000D01*
X176715000Y-95215000D02*
X174000000Y-92500000D01*
X174000000Y-92500000D02*
X174000000Y-85500000D01*
X147500000Y-87000000D02*
X147500000Y-95000000D01*
X169150000Y-88560000D02*
X169150000Y-85460000D01*
X169150000Y-85460000D02*
X168500000Y-84810000D01*
X168500000Y-84810000D02*
X153500000Y-84810000D01*
%TO.N,GND*%
D36*
X126445000Y-117980000D02*
X126425000Y-118000000D01*
X127045000Y-117980000D02*
X126445000Y-117980000D01*
%TO.N,/OLED_SCL*%
D35*
X156590000Y-122910000D02*
X153500000Y-122910000D01*
X171635000Y-99401022D02*
X171635000Y-107865000D01*
X171635000Y-107865000D02*
X156590000Y-122910000D01*
%TO.N,/OLED_SDA*%
X169095000Y-99401022D02*
X169095000Y-107905000D01*
X156630000Y-120370000D02*
X153500000Y-120370000D01*
X169095000Y-107905000D02*
X156630000Y-120370000D01*
%TO.N,/BC1*%
X135570000Y-102740000D02*
X135720000Y-102590000D01*
%TO.N,/~{RESET}*%
X126965000Y-120500000D02*
X127045000Y-120420000D01*
X123925000Y-120500000D02*
X126965000Y-120500000D01*
%TO.N,/SW_PREV*%
X124000000Y-132500000D02*
X129000000Y-132500000D01*
X124000000Y-132500000D02*
X117500000Y-132500000D01*
%TO.N,/SW_PLAY*%
X145875000Y-132500000D02*
X152375000Y-132500000D01*
%TO.N,/SW_NEXT*%
X171000000Y-132500000D02*
X174250000Y-132500000D01*
X135500000Y-127000000D02*
X137000000Y-128500000D01*
X174250000Y-132500000D02*
X180750000Y-132500000D01*
X135500000Y-123130000D02*
X135500000Y-127000000D01*
X137000000Y-128500000D02*
X167000000Y-128500000D01*
X135720000Y-122910000D02*
X135500000Y-123130000D01*
X167000000Y-128500000D02*
X171000000Y-132500000D01*
%TO.N,/SD_CS*%
X147500000Y-97000000D02*
X147500000Y-111000000D01*
X151790000Y-115290000D02*
X153500000Y-115290000D01*
X147500000Y-111000000D02*
X151790000Y-115290000D01*
%TO.N,/SD_Card_Detect*%
X156410000Y-102590000D02*
X153500000Y-102590000D01*
X163600000Y-95400000D02*
X156410000Y-102590000D01*
X163600000Y-88560000D02*
X163600000Y-95400000D01*
%TO.N,+5V*%
X125585000Y-115340000D02*
X127045000Y-115340000D01*
X119425000Y-116000000D02*
X124925000Y-116000000D01*
X140614027Y-106385973D02*
X131614027Y-106385973D01*
X127045000Y-107720000D02*
X124645000Y-107720000D01*
X124925000Y-116000000D02*
X125585000Y-115340000D01*
X144000000Y-103000000D02*
X140614027Y-106385973D01*
X118925000Y-114500000D02*
X118925000Y-115500000D01*
X153500000Y-74650000D02*
X144000000Y-84150000D01*
X124645000Y-107720000D02*
X124425000Y-107500000D01*
X144000000Y-84150000D02*
X144000000Y-103000000D01*
X131614027Y-106385973D02*
X130280000Y-107720000D01*
X124462500Y-110000000D02*
X124462500Y-107537500D01*
X118925000Y-115500000D02*
X119425000Y-116000000D01*
X124722500Y-110260000D02*
X124462500Y-110000000D01*
X127045000Y-110260000D02*
X124722500Y-110260000D01*
X124462500Y-107537500D02*
X124425000Y-107500000D01*
%TO.N,Net-(J2-Pin_2)*%
X118925000Y-74500000D02*
X118925000Y-80462500D01*
%TO.N,unconnected-(U1-NC-Pad2)*%
D36*
X111925000Y-80000000D02*
X111805000Y-79880000D01*
%TO.N,/ANALOG_B*%
D35*
X114425000Y-82500000D02*
X113925000Y-82500000D01*
X113925000Y-82500000D02*
X113745000Y-82320000D01*
X113745000Y-82320000D02*
X111805000Y-82320000D01*
X111885000Y-82500000D02*
X111805000Y-82420000D01*
%TO.N,/ANALOG_A*%
X114425000Y-85000000D02*
X111945000Y-85000000D01*
X111945000Y-85000000D02*
X111805000Y-84860000D01*
%TO.N,/CLOCK*%
D36*
X126465000Y-122960000D02*
X126425000Y-123000000D01*
X127045000Y-122960000D02*
X126465000Y-122960000D01*
D35*
X126425000Y-123000000D02*
X123425000Y-123000000D01*
%TO.N,Net-(JP1-C)*%
D36*
X119225000Y-112800000D02*
X118925000Y-112500000D01*
X127045000Y-112800000D02*
X119225000Y-112800000D01*
%TO.N,/ANALOG_C*%
D35*
X124425000Y-82500000D02*
X126399315Y-82500000D01*
D36*
X126399315Y-82500000D02*
X126812158Y-82087157D01*
%TO.N,unconnected-(U1-TEST1-Pad39)*%
X126925000Y-80000000D02*
X127045000Y-79880000D01*
%TO.N,Net-(C3-Pad1)*%
D35*
X124425000Y-84500000D02*
X124425000Y-86500000D01*
X119962500Y-82537500D02*
X121925000Y-84500000D01*
X116425000Y-85000000D02*
X116425000Y-82500000D01*
X116925000Y-82500000D02*
X116962500Y-82537500D01*
X118925000Y-82537500D02*
X119962500Y-82537500D01*
X116425000Y-85000000D02*
X116425000Y-87500000D01*
X116425000Y-82500000D02*
X116925000Y-82500000D01*
X116462500Y-82537500D02*
X116425000Y-82500000D01*
X121925000Y-84500000D02*
X124425000Y-84500000D01*
%TO.N,+5V*%
X128425000Y-113960000D02*
X127045000Y-115340000D01*
X128425000Y-109100000D02*
X128425000Y-113960000D01*
X127045000Y-107720000D02*
X128425000Y-109100000D01*
%TD*%
%TA.AperFunction,Conductor*%
%TO.N,GND*%
G36*
X128668834Y-114880047D02*
G01*
X128724767Y-114921919D01*
X128749184Y-114987383D01*
X128749500Y-114996229D01*
X128749500Y-119137770D01*
X128729815Y-119204809D01*
X128713181Y-119225451D01*
X128305451Y-119633181D01*
X128278523Y-119647884D01*
X128252705Y-119664477D01*
X128246504Y-119665368D01*
X128244128Y-119666666D01*
X128217770Y-119669500D01*
X128170418Y-119669500D01*
X128103379Y-119649815D01*
X128070100Y-119618385D01*
X128036971Y-119572787D01*
X128036967Y-119572782D01*
X127892213Y-119428028D01*
X127726611Y-119307713D01*
X127633369Y-119260203D01*
X127582574Y-119212229D01*
X127565779Y-119144407D01*
X127588317Y-119078273D01*
X127633371Y-119039234D01*
X127726346Y-118991861D01*
X127726347Y-118991861D01*
X127770921Y-118959474D01*
X127091447Y-118280000D01*
X127097661Y-118280000D01*
X127199394Y-118252741D01*
X127290606Y-118200080D01*
X127365080Y-118125606D01*
X127417741Y-118034394D01*
X127445000Y-117932661D01*
X127445000Y-117926448D01*
X128124474Y-118605922D01*
X128124474Y-118605921D01*
X128156859Y-118561349D01*
X128249755Y-118379031D01*
X128312990Y-118184417D01*
X128345000Y-117982317D01*
X128345000Y-117777682D01*
X128312990Y-117575582D01*
X128249755Y-117380968D01*
X128156859Y-117198650D01*
X128124474Y-117154077D01*
X128124474Y-117154076D01*
X127445000Y-117833551D01*
X127445000Y-117827339D01*
X127417741Y-117725606D01*
X127365080Y-117634394D01*
X127290606Y-117559920D01*
X127199394Y-117507259D01*
X127097661Y-117480000D01*
X127091446Y-117480000D01*
X127770922Y-116800524D01*
X127770921Y-116800523D01*
X127726359Y-116768147D01*
X127726350Y-116768141D01*
X127633369Y-116720765D01*
X127582573Y-116672790D01*
X127565778Y-116604969D01*
X127588315Y-116538835D01*
X127633370Y-116499795D01*
X127642349Y-116495220D01*
X127726610Y-116452287D01*
X127884235Y-116337767D01*
X127892213Y-116331971D01*
X127892215Y-116331968D01*
X127892219Y-116331966D01*
X128036966Y-116187219D01*
X128036968Y-116187215D01*
X128036971Y-116187213D01*
X128107236Y-116090500D01*
X128157287Y-116021610D01*
X128250220Y-115839219D01*
X128313477Y-115644534D01*
X128345500Y-115442352D01*
X128345500Y-115237648D01*
X128336681Y-115181971D01*
X128345635Y-115112680D01*
X128371468Y-115074898D01*
X128537822Y-114908545D01*
X128599142Y-114875063D01*
X128668834Y-114880047D01*
G37*
%TD.AperFunction*%
%TA.AperFunction,Conductor*%
G36*
X173213182Y-89636088D02*
G01*
X173246666Y-89697411D01*
X173249500Y-89723769D01*
X173249500Y-92573918D01*
X173249500Y-92573920D01*
X173249499Y-92573920D01*
X173278340Y-92718907D01*
X173278343Y-92718917D01*
X173334914Y-92855491D01*
X173334916Y-92855495D01*
X173352370Y-92881617D01*
X173360981Y-92894505D01*
X173417049Y-92978418D01*
X173417052Y-92978421D01*
X175928181Y-95489549D01*
X175961666Y-95550872D01*
X175964500Y-95577230D01*
X175964500Y-97926522D01*
X175944815Y-97993561D01*
X175892011Y-98039316D01*
X175840505Y-98050522D01*
X175817132Y-98050522D01*
X175817123Y-98050523D01*
X175757516Y-98056930D01*
X175622671Y-98107224D01*
X175622664Y-98107228D01*
X175507455Y-98193474D01*
X175507452Y-98193477D01*
X175421206Y-98308686D01*
X175421202Y-98308693D01*
X175371997Y-98440620D01*
X175330126Y-98496554D01*
X175264661Y-98520971D01*
X175196388Y-98506119D01*
X175168134Y-98484968D01*
X175054464Y-98371298D01*
X175054459Y-98371294D01*
X174882557Y-98246401D01*
X174693215Y-98149925D01*
X174491124Y-98084263D01*
X174425000Y-98073790D01*
X174425000Y-98968010D01*
X174367993Y-98935097D01*
X174240826Y-98901022D01*
X174109174Y-98901022D01*
X173982007Y-98935097D01*
X173925000Y-98968010D01*
X173925000Y-98073790D01*
X173924999Y-98073790D01*
X173858875Y-98084263D01*
X173656784Y-98149925D01*
X173467442Y-98246401D01*
X173295540Y-98371294D01*
X173295535Y-98371298D01*
X173145276Y-98521557D01*
X173145272Y-98521562D01*
X173020378Y-98693465D01*
X173015762Y-98702524D01*
X172967784Y-98753317D01*
X172899963Y-98770109D01*
X172833829Y-98747568D01*
X172794794Y-98702515D01*
X172790051Y-98693206D01*
X172790049Y-98693203D01*
X172790048Y-98693201D01*
X172665109Y-98521235D01*
X172514786Y-98370912D01*
X172342820Y-98245973D01*
X172153414Y-98149466D01*
X172153413Y-98149465D01*
X172153412Y-98149465D01*
X171951243Y-98083776D01*
X171951241Y-98083775D01*
X171951240Y-98083775D01*
X171789957Y-98058230D01*
X171741287Y-98050522D01*
X171528713Y-98050522D01*
X171480042Y-98058230D01*
X171318760Y-98083775D01*
X171116585Y-98149466D01*
X170927179Y-98245973D01*
X170755213Y-98370912D01*
X170604890Y-98521235D01*
X170479949Y-98693204D01*
X170475484Y-98701968D01*
X170427509Y-98752764D01*
X170359688Y-98769558D01*
X170293553Y-98747020D01*
X170254516Y-98701968D01*
X170250050Y-98693204D01*
X170125109Y-98521235D01*
X169974786Y-98370912D01*
X169802820Y-98245973D01*
X169613414Y-98149466D01*
X169613413Y-98149465D01*
X169613412Y-98149465D01*
X169411243Y-98083776D01*
X169411241Y-98083775D01*
X169411240Y-98083775D01*
X169249957Y-98058230D01*
X169201287Y-98050522D01*
X168988713Y-98050522D01*
X168940042Y-98058230D01*
X168778760Y-98083775D01*
X168576585Y-98149466D01*
X168387179Y-98245973D01*
X168215213Y-98370912D01*
X168064890Y-98521235D01*
X167939951Y-98693201D01*
X167843444Y-98882607D01*
X167777753Y-99084782D01*
X167759064Y-99202781D01*
X167744500Y-99294735D01*
X167744500Y-99507309D01*
X167777754Y-99717265D01*
X167808167Y-99810867D01*
X167843444Y-99919436D01*
X167939951Y-100108842D01*
X168064890Y-100280808D01*
X168064896Y-100280814D01*
X168215208Y-100431126D01*
X168293384Y-100487924D01*
X168336051Y-100543253D01*
X168344500Y-100588242D01*
X168344500Y-107542770D01*
X168324815Y-107609809D01*
X168308181Y-107630451D01*
X156355451Y-119583181D01*
X156294128Y-119616666D01*
X156267770Y-119619500D01*
X154625418Y-119619500D01*
X154558379Y-119599815D01*
X154525100Y-119568385D01*
X154491971Y-119522787D01*
X154491967Y-119522782D01*
X154347213Y-119378028D01*
X154181614Y-119257715D01*
X154110432Y-119221446D01*
X154095703Y-119213941D01*
X154044908Y-119165968D01*
X154028113Y-119098147D01*
X154050650Y-119032012D01*
X154093546Y-118994099D01*
X154159493Y-118958849D01*
X154159511Y-118958838D01*
X154228912Y-118912465D01*
X153629409Y-118312962D01*
X153692993Y-118295925D01*
X153807007Y-118230099D01*
X153900099Y-118137007D01*
X153965925Y-118022993D01*
X153982962Y-117959409D01*
X154582465Y-118558912D01*
X154628838Y-118489511D01*
X154628844Y-118489501D01*
X154675509Y-118402198D01*
X154735814Y-118256612D01*
X154764555Y-118161864D01*
X154795298Y-118007302D01*
X154795298Y-118007299D01*
X154805000Y-117908789D01*
X154805000Y-117751210D01*
X154795298Y-117652700D01*
X154795298Y-117652697D01*
X154764555Y-117498135D01*
X154735814Y-117403387D01*
X154675509Y-117257801D01*
X154628841Y-117170493D01*
X154582465Y-117101086D01*
X154582465Y-117101085D01*
X153982962Y-117700589D01*
X153965925Y-117637007D01*
X153900099Y-117522993D01*
X153807007Y-117429901D01*
X153692993Y-117364075D01*
X153629410Y-117347037D01*
X154228913Y-116747534D01*
X154228912Y-116747533D01*
X154159506Y-116701158D01*
X154093545Y-116665900D01*
X154043701Y-116616937D01*
X154028241Y-116548799D01*
X154052073Y-116483119D01*
X154095702Y-116446059D01*
X154181610Y-116402287D01*
X154272745Y-116336074D01*
X154347213Y-116281971D01*
X154347215Y-116281968D01*
X154347219Y-116281966D01*
X154491966Y-116137219D01*
X154508595Y-116114331D01*
X154525100Y-116091615D01*
X154580429Y-116048949D01*
X154625418Y-116040500D01*
X156283920Y-116040500D01*
X156381462Y-116021096D01*
X156428913Y-116011658D01*
X156565495Y-115955084D01*
X156614729Y-115922186D01*
X156688416Y-115872952D01*
X166082952Y-106478416D01*
X166130891Y-106406669D01*
X166155726Y-106369501D01*
X166158845Y-106364831D01*
X166165084Y-106355495D01*
X166221658Y-106218913D01*
X166250500Y-106073918D01*
X166250500Y-99862229D01*
X166270185Y-99795190D01*
X166286819Y-99774548D01*
X171932948Y-94128419D01*
X171932951Y-94128416D01*
X172015084Y-94005495D01*
X172071658Y-93868913D01*
X172082877Y-93812511D01*
X172100500Y-93723920D01*
X172100500Y-89784499D01*
X172120185Y-89717460D01*
X172172989Y-89671705D01*
X172224496Y-89660499D01*
X172897872Y-89660499D01*
X172957483Y-89654091D01*
X173082167Y-89607587D01*
X173151859Y-89602603D01*
X173213182Y-89636088D01*
G37*
%TD.AperFunction*%
%TA.AperFunction,Conductor*%
G36*
X152441621Y-85580185D02*
G01*
X152474900Y-85611615D01*
X152508028Y-85657212D01*
X152508032Y-85657217D01*
X152652786Y-85801971D01*
X152806184Y-85913419D01*
X152818390Y-85922287D01*
X152909840Y-85968883D01*
X152911080Y-85969515D01*
X152961876Y-86017490D01*
X152978671Y-86085311D01*
X152956134Y-86151446D01*
X152911080Y-86190485D01*
X152818386Y-86237715D01*
X152652786Y-86358028D01*
X152508028Y-86502786D01*
X152387715Y-86668386D01*
X152294781Y-86850776D01*
X152231522Y-87045465D01*
X152200386Y-87242052D01*
X152199500Y-87247648D01*
X152199500Y-87452352D01*
X152202928Y-87473995D01*
X152231522Y-87654534D01*
X152294781Y-87849223D01*
X152342229Y-87942343D01*
X152370730Y-87998280D01*
X152387715Y-88031613D01*
X152508028Y-88197213D01*
X152652786Y-88341971D01*
X152807749Y-88454556D01*
X152818390Y-88462287D01*
X152909840Y-88508883D01*
X152911080Y-88509515D01*
X152961876Y-88557490D01*
X152978671Y-88625311D01*
X152956134Y-88691446D01*
X152911080Y-88730485D01*
X152818386Y-88777715D01*
X152652786Y-88898028D01*
X152508028Y-89042786D01*
X152387715Y-89208386D01*
X152294781Y-89390776D01*
X152231522Y-89585465D01*
X152199500Y-89787648D01*
X152199500Y-89992351D01*
X152231522Y-90194534D01*
X152294781Y-90389223D01*
X152320256Y-90439219D01*
X152362921Y-90522954D01*
X152387715Y-90571613D01*
X152508028Y-90737213D01*
X152652782Y-90881967D01*
X152652787Y-90881971D01*
X152729063Y-90937389D01*
X152771729Y-90992719D01*
X152777708Y-91062332D01*
X152745102Y-91124127D01*
X152686845Y-91157855D01*
X152666776Y-91162977D01*
X152666766Y-91162980D01*
X152593280Y-91193419D01*
X152593252Y-91193431D01*
X152544451Y-91216779D01*
X152544446Y-91216782D01*
X152429268Y-91303005D01*
X152429256Y-91303015D01*
X152373019Y-91359252D01*
X152336843Y-91399524D01*
X152336837Y-91399532D01*
X152263426Y-91523263D01*
X152232978Y-91596774D01*
X152232970Y-91596795D01*
X152214976Y-91647800D01*
X152194500Y-91790219D01*
X152194500Y-93069784D01*
X152197395Y-93123814D01*
X152197396Y-93123818D01*
X152232976Y-93263221D01*
X152232980Y-93263233D01*
X152263419Y-93336719D01*
X152263431Y-93336747D01*
X152286779Y-93385548D01*
X152286782Y-93385553D01*
X152304213Y-93408837D01*
X152373006Y-93500733D01*
X152373010Y-93500737D01*
X152373015Y-93500743D01*
X152429252Y-93556980D01*
X152429261Y-93556988D01*
X152429267Y-93556994D01*
X152469524Y-93593156D01*
X152469532Y-93593162D01*
X152593263Y-93666573D01*
X152593262Y-93666573D01*
X152600329Y-93669500D01*
X152666774Y-93697022D01*
X152682645Y-93702621D01*
X152695133Y-93707027D01*
X152751805Y-93747894D01*
X152777386Y-93812912D01*
X152763754Y-93881439D01*
X152726765Y-93924281D01*
X152652782Y-93978032D01*
X152508028Y-94122786D01*
X152387715Y-94288386D01*
X152294781Y-94470776D01*
X152231522Y-94665465D01*
X152199500Y-94867648D01*
X152199500Y-95072351D01*
X152231522Y-95274534D01*
X152294781Y-95469223D01*
X152320256Y-95519219D01*
X152362921Y-95602954D01*
X152387715Y-95651613D01*
X152508028Y-95817213D01*
X152652786Y-95961971D01*
X152807749Y-96074556D01*
X152818390Y-96082287D01*
X152909840Y-96128883D01*
X152911080Y-96129515D01*
X152961876Y-96177490D01*
X152978671Y-96245311D01*
X152956134Y-96311446D01*
X152911080Y-96350485D01*
X152818386Y-96397715D01*
X152652786Y-96518028D01*
X152508028Y-96662786D01*
X152387715Y-96828386D01*
X152294781Y-97010776D01*
X152231522Y-97205465D01*
X152199500Y-97407648D01*
X152199500Y-97612351D01*
X152231522Y-97814534D01*
X152294781Y-98009223D01*
X152344716Y-98107224D01*
X152366473Y-98149925D01*
X152387715Y-98191613D01*
X152508028Y-98357213D01*
X152652786Y-98501971D01*
X152790994Y-98602383D01*
X152818390Y-98622287D01*
X152909840Y-98668883D01*
X152911080Y-98669515D01*
X152961876Y-98717490D01*
X152978671Y-98785311D01*
X152956134Y-98851446D01*
X152911080Y-98890485D01*
X152818386Y-98937715D01*
X152652786Y-99058028D01*
X152508028Y-99202786D01*
X152387715Y-99368386D01*
X152294781Y-99550776D01*
X152231522Y-99745465D01*
X152199500Y-99947648D01*
X152199500Y-100152351D01*
X152231522Y-100354534D01*
X152294781Y-100549223D01*
X152387715Y-100731613D01*
X152508028Y-100897213D01*
X152652786Y-101041971D01*
X152784645Y-101137770D01*
X152818390Y-101162287D01*
X152901844Y-101204809D01*
X152911080Y-101209515D01*
X152961876Y-101257490D01*
X152978671Y-101325311D01*
X152956134Y-101391446D01*
X152911080Y-101430485D01*
X152818386Y-101477715D01*
X152652786Y-101598028D01*
X152508028Y-101742786D01*
X152387715Y-101908386D01*
X152294781Y-102090776D01*
X152231522Y-102285465D01*
X152199500Y-102487648D01*
X152199500Y-102692351D01*
X152231522Y-102894534D01*
X152294781Y-103089223D01*
X152337443Y-103172950D01*
X152386601Y-103269428D01*
X152387715Y-103271613D01*
X152508028Y-103437213D01*
X152652782Y-103581967D01*
X152652787Y-103581971D01*
X152729583Y-103637767D01*
X152772249Y-103693097D01*
X152778228Y-103762710D01*
X152745622Y-103824505D01*
X152687365Y-103858233D01*
X152666967Y-103863439D01*
X152666956Y-103863442D01*
X152610415Y-103886862D01*
X153370590Y-104647037D01*
X153307007Y-104664075D01*
X153192993Y-104729901D01*
X153099901Y-104822993D01*
X153034075Y-104937007D01*
X153017037Y-105000590D01*
X152256862Y-104240415D01*
X152233449Y-104296940D01*
X152215455Y-104347946D01*
X152195000Y-104490219D01*
X152195000Y-105769785D01*
X152197893Y-105823762D01*
X152197893Y-105823764D01*
X152233438Y-105963030D01*
X152233440Y-105963037D01*
X152256863Y-106019583D01*
X153017037Y-105259409D01*
X153034075Y-105322993D01*
X153099901Y-105437007D01*
X153192993Y-105530099D01*
X153307007Y-105595925D01*
X153370590Y-105612962D01*
X152610415Y-106373135D01*
X152610415Y-106373136D01*
X152666954Y-106396556D01*
X152666961Y-106396558D01*
X152695621Y-106406669D01*
X152752294Y-106447534D01*
X152777876Y-106512552D01*
X152764246Y-106581080D01*
X152727256Y-106623924D01*
X152652782Y-106678032D01*
X152508028Y-106822786D01*
X152387715Y-106988386D01*
X152294781Y-107170776D01*
X152231522Y-107365465D01*
X152199500Y-107567648D01*
X152199500Y-107772351D01*
X152231522Y-107974534D01*
X152294781Y-108169223D01*
X152341294Y-108260508D01*
X152383540Y-108343421D01*
X152387715Y-108351613D01*
X152508028Y-108517213D01*
X152652786Y-108661971D01*
X152807749Y-108774556D01*
X152818390Y-108782287D01*
X152909583Y-108828752D01*
X152911080Y-108829515D01*
X152961876Y-108877490D01*
X152978671Y-108945311D01*
X152956134Y-109011446D01*
X152911080Y-109050485D01*
X152818386Y-109097715D01*
X152652786Y-109218028D01*
X152508028Y-109362786D01*
X152387715Y-109528386D01*
X152294781Y-109710776D01*
X152231522Y-109905465D01*
X152199500Y-110107648D01*
X152199500Y-110312351D01*
X152231522Y-110514534D01*
X152294781Y-110709223D01*
X152338269Y-110794571D01*
X152383018Y-110882396D01*
X152387715Y-110891613D01*
X152508028Y-111057213D01*
X152652786Y-111201971D01*
X152787684Y-111299978D01*
X152818390Y-111322287D01*
X152909840Y-111368883D01*
X152911080Y-111369515D01*
X152961876Y-111417490D01*
X152978671Y-111485311D01*
X152956134Y-111551446D01*
X152911080Y-111590485D01*
X152818386Y-111637715D01*
X152652786Y-111758028D01*
X152508028Y-111902786D01*
X152387715Y-112068386D01*
X152294781Y-112250776D01*
X152231522Y-112445465D01*
X152199500Y-112647648D01*
X152199500Y-112852351D01*
X152231522Y-113054534D01*
X152294781Y-113249223D01*
X152320256Y-113299219D01*
X152377571Y-113411706D01*
X152387715Y-113431613D01*
X152508028Y-113597213D01*
X152652786Y-113741971D01*
X152807749Y-113854556D01*
X152818390Y-113862287D01*
X152909840Y-113908883D01*
X152911080Y-113909515D01*
X152961876Y-113957490D01*
X152978671Y-114025311D01*
X152956134Y-114091446D01*
X152911080Y-114130485D01*
X152818386Y-114177715D01*
X152652786Y-114298028D01*
X152508032Y-114442782D01*
X152508028Y-114442787D01*
X152474900Y-114488385D01*
X152470568Y-114491725D01*
X152468295Y-114496703D01*
X152443195Y-114512833D01*
X152419571Y-114531051D01*
X152412897Y-114532304D01*
X152409517Y-114534477D01*
X152374582Y-114539500D01*
X152152229Y-114539500D01*
X152085190Y-114519815D01*
X152064548Y-114503181D01*
X148286819Y-110725451D01*
X148253334Y-110664128D01*
X148250500Y-110637770D01*
X148250500Y-98115638D01*
X148270185Y-98048599D01*
X148309401Y-98010100D01*
X148418656Y-97942712D01*
X148542712Y-97818656D01*
X148634814Y-97669334D01*
X148689999Y-97502797D01*
X148700500Y-97400009D01*
X148700499Y-96599992D01*
X148697234Y-96568034D01*
X148689999Y-96497203D01*
X148689998Y-96497200D01*
X148673600Y-96447715D01*
X148634814Y-96330666D01*
X148542712Y-96181344D01*
X148449049Y-96087681D01*
X148415564Y-96026358D01*
X148420548Y-95956666D01*
X148449049Y-95912319D01*
X148494156Y-95867212D01*
X148542712Y-95818656D01*
X148634814Y-95669334D01*
X148689999Y-95502797D01*
X148700500Y-95400009D01*
X148700499Y-94599992D01*
X148689999Y-94497203D01*
X148634814Y-94330666D01*
X148542712Y-94181344D01*
X148418656Y-94057288D01*
X148309402Y-93989900D01*
X148262679Y-93937953D01*
X148250500Y-93884362D01*
X148250500Y-87362230D01*
X148270185Y-87295191D01*
X148286819Y-87274549D01*
X149964549Y-85596819D01*
X150025872Y-85563334D01*
X150052230Y-85560500D01*
X152374582Y-85560500D01*
X152441621Y-85580185D01*
G37*
%TD.AperFunction*%
%TA.AperFunction,Conductor*%
G36*
X134661621Y-103360185D02*
G01*
X134694900Y-103391615D01*
X134728028Y-103437212D01*
X134728032Y-103437217D01*
X134872786Y-103581971D01*
X135038388Y-103702286D01*
X135038390Y-103702287D01*
X135124294Y-103746057D01*
X135175090Y-103794031D01*
X135191886Y-103861852D01*
X135169349Y-103927987D01*
X135126455Y-103965899D01*
X135060494Y-104001157D01*
X135060489Y-104001160D01*
X134991086Y-104047532D01*
X134991085Y-104047533D01*
X135590590Y-104647037D01*
X135527007Y-104664075D01*
X135412993Y-104729901D01*
X135319901Y-104822993D01*
X135254075Y-104937007D01*
X135237037Y-105000590D01*
X134637533Y-104401085D01*
X134637532Y-104401086D01*
X134591161Y-104470488D01*
X134544490Y-104557801D01*
X134484185Y-104703387D01*
X134455444Y-104798135D01*
X134424701Y-104952697D01*
X134424701Y-104952700D01*
X134415000Y-105051210D01*
X134415000Y-105208789D01*
X134424701Y-105307299D01*
X134424701Y-105307302D01*
X134455445Y-105461864D01*
X134459574Y-105475475D01*
X134460199Y-105545342D01*
X134422952Y-105604456D01*
X134359659Y-105634048D01*
X134340914Y-105635473D01*
X131540107Y-105635473D01*
X131395119Y-105664313D01*
X131395113Y-105664315D01*
X131258535Y-105720887D01*
X131258523Y-105720894D01*
X131209296Y-105753786D01*
X131135615Y-105803017D01*
X131135607Y-105803023D01*
X130005451Y-106933181D01*
X129944128Y-106966666D01*
X129917770Y-106969500D01*
X128170418Y-106969500D01*
X128103379Y-106949815D01*
X128070100Y-106918385D01*
X128036971Y-106872787D01*
X128036967Y-106872782D01*
X127892213Y-106728028D01*
X127726614Y-106607715D01*
X127691365Y-106589755D01*
X127633917Y-106560483D01*
X127583123Y-106512511D01*
X127566328Y-106444690D01*
X127588865Y-106378555D01*
X127633917Y-106339516D01*
X127726610Y-106292287D01*
X127827596Y-106218917D01*
X127892213Y-106171971D01*
X127892215Y-106171968D01*
X127892219Y-106171966D01*
X128036966Y-106027219D01*
X128042514Y-106019583D01*
X128070100Y-105981615D01*
X128125429Y-105938949D01*
X128170418Y-105930500D01*
X129893920Y-105930500D01*
X129991462Y-105911096D01*
X130038913Y-105901658D01*
X130175495Y-105845084D01*
X130224729Y-105812186D01*
X130298416Y-105762952D01*
X132684548Y-103376818D01*
X132745871Y-103343334D01*
X132772229Y-103340500D01*
X134594582Y-103340500D01*
X134661621Y-103360185D01*
G37*
%TD.AperFunction*%
%TA.AperFunction,Conductor*%
G36*
X161668834Y-98495047D02*
G01*
X161724767Y-98536919D01*
X161749184Y-98602383D01*
X161749500Y-98611229D01*
X161749500Y-101137770D01*
X161729815Y-101204809D01*
X161713181Y-101225451D01*
X156055451Y-106883181D01*
X155994128Y-106916666D01*
X155967770Y-106919500D01*
X154625418Y-106919500D01*
X154558379Y-106899815D01*
X154525100Y-106868385D01*
X154491971Y-106822787D01*
X154491967Y-106822782D01*
X154347213Y-106678028D01*
X154181614Y-106557715D01*
X154097349Y-106514780D01*
X154095703Y-106513941D01*
X154044908Y-106465968D01*
X154028113Y-106398147D01*
X154050650Y-106332012D01*
X154093546Y-106294099D01*
X154159493Y-106258849D01*
X154159511Y-106258838D01*
X154228912Y-106212465D01*
X153629409Y-105612962D01*
X153692993Y-105595925D01*
X153807007Y-105530099D01*
X153900099Y-105437007D01*
X153965925Y-105322993D01*
X153982962Y-105259409D01*
X154582465Y-105858912D01*
X154628838Y-105789511D01*
X154628844Y-105789501D01*
X154675509Y-105702198D01*
X154735814Y-105556612D01*
X154764555Y-105461864D01*
X154795298Y-105307302D01*
X154795298Y-105307299D01*
X154805000Y-105208789D01*
X154805000Y-105051210D01*
X154795298Y-104952700D01*
X154795298Y-104952697D01*
X154764555Y-104798135D01*
X154735814Y-104703387D01*
X154675509Y-104557801D01*
X154628841Y-104470493D01*
X154582465Y-104401086D01*
X154582465Y-104401085D01*
X153982962Y-105000589D01*
X153965925Y-104937007D01*
X153900099Y-104822993D01*
X153807007Y-104729901D01*
X153692993Y-104664075D01*
X153629410Y-104647037D01*
X154228913Y-104047534D01*
X154228912Y-104047533D01*
X154159506Y-104001158D01*
X154093545Y-103965900D01*
X154043701Y-103916937D01*
X154028241Y-103848799D01*
X154052073Y-103783119D01*
X154095702Y-103746059D01*
X154181610Y-103702287D01*
X154272745Y-103636074D01*
X154347213Y-103581971D01*
X154347215Y-103581968D01*
X154347219Y-103581966D01*
X154491966Y-103437219D01*
X154494650Y-103433524D01*
X154525100Y-103391615D01*
X154580429Y-103348949D01*
X154625418Y-103340500D01*
X156483920Y-103340500D01*
X156581462Y-103321096D01*
X156628913Y-103311658D01*
X156725598Y-103271610D01*
X156765493Y-103255085D01*
X156765493Y-103255084D01*
X156765495Y-103255084D01*
X156820373Y-103218416D01*
X156888416Y-103172952D01*
X161537819Y-98523547D01*
X161599142Y-98490063D01*
X161668834Y-98495047D01*
G37*
%TD.AperFunction*%
%TA.AperFunction,Conductor*%
G36*
X168204809Y-85580185D02*
G01*
X168225451Y-85596819D01*
X168363181Y-85734549D01*
X168396666Y-85795872D01*
X168399500Y-85822230D01*
X168399500Y-87335500D01*
X168379815Y-87402539D01*
X168327011Y-87448294D01*
X168275500Y-87459500D01*
X167602129Y-87459500D01*
X167602123Y-87459501D01*
X167542517Y-87465908D01*
X167492616Y-87484520D01*
X167422925Y-87489503D01*
X167405953Y-87484519D01*
X167357383Y-87466403D01*
X167357372Y-87466401D01*
X167297844Y-87460000D01*
X167150000Y-87460000D01*
X167150000Y-87900826D01*
X167149572Y-87908798D01*
X167149678Y-87908804D01*
X167149500Y-87912126D01*
X167149500Y-87912127D01*
X167149501Y-89207872D01*
X167149501Y-89207880D01*
X167149679Y-89211180D01*
X167149572Y-89211185D01*
X167150000Y-89219156D01*
X167150000Y-89660000D01*
X167160184Y-89670184D01*
X167192539Y-89679685D01*
X167238294Y-89732489D01*
X167249500Y-89784000D01*
X167249500Y-93637770D01*
X167229815Y-93704809D01*
X167213181Y-93725451D01*
X166762181Y-94176451D01*
X166700858Y-94209936D01*
X166631166Y-94204952D01*
X166575233Y-94163080D01*
X166550816Y-94097616D01*
X166550500Y-94088770D01*
X166550500Y-89784000D01*
X166570185Y-89716961D01*
X166622989Y-89671206D01*
X166643188Y-89666811D01*
X166650000Y-89660000D01*
X166650000Y-89219167D01*
X166650427Y-89211188D01*
X166650322Y-89211183D01*
X166650497Y-89207898D01*
X166650500Y-89207873D01*
X166650499Y-87912128D01*
X166650498Y-87912127D01*
X166650321Y-87908804D01*
X166650426Y-87908798D01*
X166650000Y-87900836D01*
X166650000Y-87460000D01*
X166502155Y-87460000D01*
X166442627Y-87466401D01*
X166442623Y-87466402D01*
X166394046Y-87484520D01*
X166324354Y-87489503D01*
X166307382Y-87484519D01*
X166257485Y-87465909D01*
X166257483Y-87465908D01*
X166197883Y-87459501D01*
X166197881Y-87459500D01*
X166197873Y-87459500D01*
X166197864Y-87459500D01*
X165402129Y-87459500D01*
X165402123Y-87459501D01*
X165342516Y-87465908D01*
X165293332Y-87484253D01*
X165223640Y-87489237D01*
X165206667Y-87484253D01*
X165157482Y-87465908D01*
X165157483Y-87465908D01*
X165097883Y-87459501D01*
X165097881Y-87459500D01*
X165097873Y-87459500D01*
X165097864Y-87459500D01*
X164302129Y-87459500D01*
X164302123Y-87459501D01*
X164242516Y-87465908D01*
X164193332Y-87484253D01*
X164123640Y-87489237D01*
X164106667Y-87484253D01*
X164057482Y-87465908D01*
X164057483Y-87465908D01*
X163997883Y-87459501D01*
X163997881Y-87459500D01*
X163997873Y-87459500D01*
X163997865Y-87459500D01*
X163574000Y-87459500D01*
X163506961Y-87439815D01*
X163461206Y-87387011D01*
X163450000Y-87335500D01*
X163450000Y-87052172D01*
X163449999Y-87052155D01*
X163443598Y-86992627D01*
X163443596Y-86992620D01*
X163393354Y-86857913D01*
X163393350Y-86857906D01*
X163307190Y-86742812D01*
X163307187Y-86742809D01*
X163192093Y-86656649D01*
X163192086Y-86656645D01*
X163057379Y-86606403D01*
X163057372Y-86606401D01*
X162997844Y-86600000D01*
X162600000Y-86600000D01*
X162600000Y-89000000D01*
X162625501Y-89000000D01*
X162692540Y-89019685D01*
X162738295Y-89072489D01*
X162749501Y-89124000D01*
X162749501Y-89207876D01*
X162755908Y-89267483D01*
X162806203Y-89402329D01*
X162824766Y-89427126D01*
X162849184Y-89492590D01*
X162849500Y-89501438D01*
X162849500Y-95037770D01*
X162829815Y-95104809D01*
X162813181Y-95125451D01*
X156135451Y-101803181D01*
X156074128Y-101836666D01*
X156047770Y-101839500D01*
X154625418Y-101839500D01*
X154558379Y-101819815D01*
X154525100Y-101788385D01*
X154491971Y-101742787D01*
X154491967Y-101742782D01*
X154347213Y-101598028D01*
X154181614Y-101477715D01*
X154136972Y-101454969D01*
X154088917Y-101430483D01*
X154038123Y-101382511D01*
X154021328Y-101314690D01*
X154043865Y-101248555D01*
X154088917Y-101209516D01*
X154181610Y-101162287D01*
X154215355Y-101137770D01*
X154347213Y-101041971D01*
X154347215Y-101041968D01*
X154347219Y-101041966D01*
X154491966Y-100897219D01*
X154491968Y-100897215D01*
X154491971Y-100897213D01*
X154597820Y-100751522D01*
X154612287Y-100731610D01*
X154705220Y-100549219D01*
X154768477Y-100354534D01*
X154800500Y-100152352D01*
X154800500Y-99947648D01*
X154768477Y-99745466D01*
X154705220Y-99550781D01*
X154705218Y-99550778D01*
X154705218Y-99550776D01*
X154637761Y-99418386D01*
X154612287Y-99368390D01*
X154590944Y-99339014D01*
X154491971Y-99202786D01*
X154347213Y-99058028D01*
X154181614Y-98937715D01*
X154175006Y-98934348D01*
X154088917Y-98890483D01*
X154038123Y-98842511D01*
X154021328Y-98774690D01*
X154043865Y-98708555D01*
X154088917Y-98669516D01*
X154181610Y-98622287D01*
X154209006Y-98602383D01*
X154347213Y-98501971D01*
X154347215Y-98501968D01*
X154347219Y-98501966D01*
X154491966Y-98357219D01*
X154491968Y-98357215D01*
X154491971Y-98357213D01*
X154572790Y-98245973D01*
X154612287Y-98191610D01*
X154705220Y-98009219D01*
X154768477Y-97814534D01*
X154800500Y-97612352D01*
X154800500Y-97407648D01*
X154779419Y-97274548D01*
X154768477Y-97205465D01*
X154705218Y-97010776D01*
X154662556Y-96927048D01*
X154612287Y-96828390D01*
X154583190Y-96788341D01*
X154491971Y-96662786D01*
X154347213Y-96518028D01*
X154181614Y-96397715D01*
X154175006Y-96394348D01*
X154088917Y-96350483D01*
X154038123Y-96302511D01*
X154021328Y-96234690D01*
X154043865Y-96168555D01*
X154088917Y-96129516D01*
X154181610Y-96082287D01*
X154202770Y-96066913D01*
X154347213Y-95961971D01*
X154347215Y-95961968D01*
X154347219Y-95961966D01*
X154491966Y-95817219D01*
X154491968Y-95817215D01*
X154491971Y-95817213D01*
X154587965Y-95685086D01*
X154612287Y-95651610D01*
X154705220Y-95469219D01*
X154768477Y-95274534D01*
X154800500Y-95072352D01*
X154800500Y-94867648D01*
X154768477Y-94665466D01*
X154705220Y-94470781D01*
X154705218Y-94470778D01*
X154705218Y-94470776D01*
X154637447Y-94337770D01*
X154612287Y-94288390D01*
X154570728Y-94231188D01*
X154491971Y-94122786D01*
X154347213Y-93978028D01*
X154181613Y-93857715D01*
X154181612Y-93857714D01*
X154181610Y-93857713D01*
X154110432Y-93821446D01*
X154096245Y-93814217D01*
X154045449Y-93766242D01*
X154028654Y-93698421D01*
X154051192Y-93632286D01*
X154094083Y-93594376D01*
X154159783Y-93559259D01*
X154290811Y-93471709D01*
X154367412Y-93408843D01*
X154478843Y-93297412D01*
X154541709Y-93220811D01*
X154629259Y-93089783D01*
X154675972Y-93002389D01*
X154736278Y-92856798D01*
X154765044Y-92761968D01*
X154795787Y-92607410D01*
X154805500Y-92508793D01*
X154805500Y-92351207D01*
X154795787Y-92252590D01*
X154765044Y-92098032D01*
X154736278Y-92003202D01*
X154675972Y-91857611D01*
X154664912Y-91836920D01*
X154629265Y-91770228D01*
X154629263Y-91770226D01*
X154629259Y-91770217D01*
X154629248Y-91770200D01*
X154541721Y-91639206D01*
X154541712Y-91639194D01*
X154541709Y-91639189D01*
X154478843Y-91562588D01*
X154367412Y-91451157D01*
X154290811Y-91388291D01*
X154290804Y-91388286D01*
X154290793Y-91388278D01*
X154159799Y-91300751D01*
X154159788Y-91300744D01*
X154159783Y-91300741D01*
X154123685Y-91281446D01*
X154094086Y-91265625D01*
X154044242Y-91216662D01*
X154028782Y-91148524D01*
X154052614Y-91082845D01*
X154096246Y-91045782D01*
X154181610Y-91002287D01*
X154272745Y-90936074D01*
X154347213Y-90881971D01*
X154347215Y-90881968D01*
X154347219Y-90881966D01*
X154491966Y-90737219D01*
X154491968Y-90737215D01*
X154491971Y-90737213D01*
X154587965Y-90605086D01*
X154612287Y-90571610D01*
X154705220Y-90389219D01*
X154768477Y-90194534D01*
X154800500Y-89992352D01*
X154800500Y-89787648D01*
X154780635Y-89662229D01*
X154768477Y-89585465D01*
X154728199Y-89461502D01*
X154705220Y-89390781D01*
X154705218Y-89390778D01*
X154705218Y-89390776D01*
X154628666Y-89240536D01*
X154612287Y-89208390D01*
X154583755Y-89169119D01*
X154491971Y-89042786D01*
X154347213Y-88898028D01*
X154181614Y-88777715D01*
X154127220Y-88750000D01*
X154088917Y-88730483D01*
X154038123Y-88682511D01*
X154021328Y-88614690D01*
X154043865Y-88548555D01*
X154044686Y-88547844D01*
X161250000Y-88547844D01*
X161256401Y-88607372D01*
X161256403Y-88607379D01*
X161306645Y-88742086D01*
X161306649Y-88742093D01*
X161392809Y-88857187D01*
X161392812Y-88857190D01*
X161507906Y-88943350D01*
X161507913Y-88943354D01*
X161642620Y-88993596D01*
X161642627Y-88993598D01*
X161702155Y-88999999D01*
X161702172Y-89000000D01*
X162100000Y-89000000D01*
X162100000Y-88050000D01*
X161250000Y-88050000D01*
X161250000Y-88547844D01*
X154044686Y-88547844D01*
X154088917Y-88509516D01*
X154181610Y-88462287D01*
X154202770Y-88446913D01*
X154347213Y-88341971D01*
X154347215Y-88341968D01*
X154347219Y-88341966D01*
X154491966Y-88197219D01*
X154491968Y-88197215D01*
X154491971Y-88197213D01*
X154562579Y-88100028D01*
X154612287Y-88031610D01*
X154705220Y-87849219D01*
X154768477Y-87654534D01*
X154800500Y-87452352D01*
X154800500Y-87247648D01*
X154799614Y-87242052D01*
X154772086Y-87068249D01*
X154769536Y-87052155D01*
X161250000Y-87052155D01*
X161250000Y-87550000D01*
X162100000Y-87550000D01*
X162100000Y-86600000D01*
X161702155Y-86600000D01*
X161642627Y-86606401D01*
X161642620Y-86606403D01*
X161507913Y-86656645D01*
X161507906Y-86656649D01*
X161392812Y-86742809D01*
X161392809Y-86742812D01*
X161306649Y-86857906D01*
X161306645Y-86857913D01*
X161256403Y-86992620D01*
X161256401Y-86992627D01*
X161250000Y-87052155D01*
X154769536Y-87052155D01*
X154768477Y-87045466D01*
X154705220Y-86850781D01*
X154705218Y-86850778D01*
X154705218Y-86850776D01*
X154650205Y-86742809D01*
X154612287Y-86668390D01*
X154590040Y-86637769D01*
X154491971Y-86502786D01*
X154347213Y-86358028D01*
X154181614Y-86237715D01*
X154175006Y-86234348D01*
X154088917Y-86190483D01*
X154038123Y-86142511D01*
X154021328Y-86074690D01*
X154043865Y-86008555D01*
X154088917Y-85969516D01*
X154181610Y-85922287D01*
X154202770Y-85906913D01*
X154347213Y-85801971D01*
X154347215Y-85801968D01*
X154347219Y-85801966D01*
X154491966Y-85657219D01*
X154519771Y-85618949D01*
X154525100Y-85611615D01*
X154580429Y-85568949D01*
X154625418Y-85560500D01*
X168137770Y-85560500D01*
X168204809Y-85580185D01*
G37*
%TD.AperFunction*%
%TA.AperFunction,Conductor*%
G36*
X134661621Y-90660185D02*
G01*
X134694900Y-90691615D01*
X134728028Y-90737212D01*
X134728032Y-90737217D01*
X134872786Y-90881971D01*
X135038388Y-91002286D01*
X135038390Y-91002287D01*
X135124294Y-91046057D01*
X135175090Y-91094031D01*
X135191886Y-91161852D01*
X135169349Y-91227987D01*
X135126455Y-91265899D01*
X135060494Y-91301157D01*
X135060489Y-91301160D01*
X134991086Y-91347532D01*
X134991085Y-91347533D01*
X135590590Y-91947037D01*
X135527007Y-91964075D01*
X135412993Y-92029901D01*
X135319901Y-92122993D01*
X135254075Y-92237007D01*
X135237037Y-92300589D01*
X134637533Y-91701085D01*
X134637532Y-91701086D01*
X134591161Y-91770488D01*
X134544490Y-91857801D01*
X134484185Y-92003387D01*
X134455444Y-92098135D01*
X134424701Y-92252697D01*
X134424701Y-92252700D01*
X134415000Y-92351210D01*
X134415000Y-92508789D01*
X134424701Y-92607299D01*
X134424701Y-92607302D01*
X134455444Y-92761864D01*
X134484185Y-92856612D01*
X134544490Y-93002198D01*
X134591158Y-93089506D01*
X134637533Y-93158912D01*
X134637534Y-93158913D01*
X135237037Y-92559409D01*
X135254075Y-92622993D01*
X135319901Y-92737007D01*
X135412993Y-92830099D01*
X135527007Y-92895925D01*
X135590590Y-92912962D01*
X134991085Y-93512465D01*
X135060493Y-93558841D01*
X135126454Y-93594099D01*
X135176298Y-93643062D01*
X135191758Y-93711200D01*
X135167926Y-93776879D01*
X135124295Y-93813942D01*
X135038386Y-93857715D01*
X134872786Y-93978028D01*
X134728032Y-94122782D01*
X134728028Y-94122787D01*
X134694900Y-94168385D01*
X134639571Y-94211051D01*
X134594582Y-94219500D01*
X133141230Y-94219500D01*
X133074191Y-94199815D01*
X133028436Y-94147011D01*
X133018492Y-94077853D01*
X133047517Y-94014297D01*
X133053549Y-94007819D01*
X133082948Y-93978419D01*
X133082948Y-93978418D01*
X133082951Y-93978416D01*
X133165084Y-93855495D01*
X133221658Y-93718913D01*
X133246673Y-93593157D01*
X133250500Y-93573920D01*
X133250500Y-90972230D01*
X133270185Y-90905191D01*
X133286819Y-90884549D01*
X133494549Y-90676819D01*
X133555872Y-90643334D01*
X133582230Y-90640500D01*
X134594582Y-90640500D01*
X134661621Y-90660185D01*
G37*
%TD.AperFunction*%
%TA.AperFunction,Conductor*%
G36*
X134661621Y-77960185D02*
G01*
X134694900Y-77991615D01*
X134728028Y-78037212D01*
X134728032Y-78037217D01*
X134872786Y-78181971D01*
X135038388Y-78302286D01*
X135038390Y-78302287D01*
X135124294Y-78346057D01*
X135175090Y-78394031D01*
X135191886Y-78461852D01*
X135169349Y-78527987D01*
X135126455Y-78565899D01*
X135060494Y-78601157D01*
X135060489Y-78601160D01*
X134991086Y-78647532D01*
X134991085Y-78647533D01*
X135590590Y-79247037D01*
X135527007Y-79264075D01*
X135412993Y-79329901D01*
X135319901Y-79422993D01*
X135254075Y-79537007D01*
X135237037Y-79600589D01*
X134637533Y-79001085D01*
X134637532Y-79001086D01*
X134591161Y-79070488D01*
X134544490Y-79157801D01*
X134484185Y-79303387D01*
X134455444Y-79398135D01*
X134424701Y-79552697D01*
X134424701Y-79552700D01*
X134415000Y-79651210D01*
X134415000Y-79808789D01*
X134424701Y-79907299D01*
X134424701Y-79907302D01*
X134455444Y-80061864D01*
X134484185Y-80156612D01*
X134544490Y-80302198D01*
X134591158Y-80389506D01*
X134637533Y-80458912D01*
X134637534Y-80458913D01*
X135237037Y-79859409D01*
X135254075Y-79922993D01*
X135319901Y-80037007D01*
X135412993Y-80130099D01*
X135527007Y-80195925D01*
X135590590Y-80212962D01*
X134991085Y-80812465D01*
X135060493Y-80858841D01*
X135126454Y-80894099D01*
X135176298Y-80943062D01*
X135191758Y-81011200D01*
X135167926Y-81076879D01*
X135124295Y-81113942D01*
X135038386Y-81157715D01*
X134872786Y-81278028D01*
X134728032Y-81422782D01*
X134728028Y-81422787D01*
X134694900Y-81468385D01*
X134639571Y-81511051D01*
X134594582Y-81519500D01*
X132656080Y-81519500D01*
X132511092Y-81548340D01*
X132511082Y-81548343D01*
X132374511Y-81604912D01*
X132374498Y-81604919D01*
X132251584Y-81687048D01*
X132251580Y-81687051D01*
X130962181Y-82976451D01*
X130900858Y-83009936D01*
X130831166Y-83004952D01*
X130775233Y-82963080D01*
X130750816Y-82897616D01*
X130750500Y-82888770D01*
X130750500Y-80362229D01*
X130770185Y-80295190D01*
X130786819Y-80274548D01*
X133084548Y-77976819D01*
X133145871Y-77943334D01*
X133172229Y-77940500D01*
X134594582Y-77940500D01*
X134661621Y-77960185D01*
G37*
%TD.AperFunction*%
%TA.AperFunction,Conductor*%
G36*
X185503736Y-73000726D02*
G01*
X185793796Y-73018271D01*
X185808659Y-73020076D01*
X186090797Y-73071780D01*
X186105334Y-73075363D01*
X186379182Y-73160698D01*
X186393163Y-73166000D01*
X186654734Y-73283724D01*
X186667987Y-73290680D01*
X186913458Y-73439071D01*
X186925776Y-73447573D01*
X187095497Y-73580541D01*
X187151573Y-73624474D01*
X187162781Y-73634404D01*
X187365595Y-73837218D01*
X187375525Y-73848426D01*
X187414765Y-73898512D01*
X187546807Y-74067051D01*
X187552422Y-74074217D01*
X187560928Y-74086541D01*
X187709319Y-74332012D01*
X187716277Y-74345269D01*
X187830266Y-74598541D01*
X187833994Y-74606823D01*
X187839304Y-74620825D01*
X187924635Y-74894664D01*
X187928219Y-74909202D01*
X187979923Y-75191340D01*
X187981728Y-75206205D01*
X187999274Y-75496263D01*
X187999500Y-75503750D01*
X187999500Y-140246249D01*
X187999274Y-140253736D01*
X187981728Y-140543794D01*
X187979923Y-140558659D01*
X187928219Y-140840797D01*
X187924635Y-140855335D01*
X187839304Y-141129174D01*
X187833994Y-141143176D01*
X187716277Y-141404730D01*
X187709319Y-141417987D01*
X187560928Y-141663458D01*
X187552422Y-141675782D01*
X187375525Y-141901573D01*
X187365595Y-141912781D01*
X187162781Y-142115595D01*
X187151573Y-142125525D01*
X186925782Y-142302422D01*
X186913458Y-142310928D01*
X186667987Y-142459319D01*
X186654730Y-142466277D01*
X186393176Y-142583994D01*
X186379174Y-142589304D01*
X186105335Y-142674635D01*
X186090797Y-142678219D01*
X185808659Y-142729923D01*
X185793794Y-142731728D01*
X185503736Y-142749274D01*
X185496249Y-142749500D01*
X111503751Y-142749500D01*
X111496264Y-142749274D01*
X111206205Y-142731728D01*
X111191340Y-142729923D01*
X110909202Y-142678219D01*
X110894664Y-142674635D01*
X110620825Y-142589304D01*
X110606827Y-142583995D01*
X110454096Y-142515256D01*
X110345269Y-142466277D01*
X110332012Y-142459319D01*
X110086541Y-142310928D01*
X110074217Y-142302422D01*
X109848426Y-142125525D01*
X109837218Y-142115595D01*
X109634404Y-141912781D01*
X109624474Y-141901573D01*
X109447573Y-141675776D01*
X109439071Y-141663458D01*
X109290680Y-141417987D01*
X109283722Y-141404730D01*
X109166000Y-141143163D01*
X109160698Y-141129182D01*
X109075363Y-140855334D01*
X109071780Y-140840797D01*
X109020076Y-140558659D01*
X109018271Y-140543794D01*
X109000726Y-140253736D01*
X109000500Y-140246249D01*
X109000500Y-136881947D01*
X116000000Y-136881947D01*
X116000000Y-137118052D01*
X116036934Y-137351247D01*
X116109897Y-137575802D01*
X116217087Y-137786174D01*
X116277338Y-137869104D01*
X116277340Y-137869105D01*
X116976212Y-137170233D01*
X116987482Y-137212292D01*
X117059890Y-137337708D01*
X117162292Y-137440110D01*
X117287708Y-137512518D01*
X117329765Y-137523787D01*
X116630893Y-138222658D01*
X116713828Y-138282914D01*
X116924197Y-138390102D01*
X117148752Y-138463065D01*
X117148751Y-138463065D01*
X117381948Y-138500000D01*
X117618052Y-138500000D01*
X117851247Y-138463065D01*
X118075802Y-138390102D01*
X118286163Y-138282918D01*
X118286169Y-138282914D01*
X118369104Y-138222658D01*
X118369105Y-138222658D01*
X117670233Y-137523787D01*
X117712292Y-137512518D01*
X117837708Y-137440110D01*
X117940110Y-137337708D01*
X118012518Y-137212292D01*
X118023787Y-137170234D01*
X118722658Y-137869105D01*
X118722658Y-137869104D01*
X118782914Y-137786169D01*
X118782918Y-137786163D01*
X118890102Y-137575802D01*
X118963065Y-137351247D01*
X119000000Y-137118052D01*
X119000000Y-136881947D01*
X122500000Y-136881947D01*
X122500000Y-137118052D01*
X122536934Y-137351247D01*
X122609897Y-137575802D01*
X122717087Y-137786174D01*
X122777338Y-137869104D01*
X122777340Y-137869105D01*
X123476212Y-137170233D01*
X123487482Y-137212292D01*
X123559890Y-137337708D01*
X123662292Y-137440110D01*
X123787708Y-137512518D01*
X123829765Y-137523787D01*
X123130893Y-138222658D01*
X123213828Y-138282914D01*
X123424197Y-138390102D01*
X123648752Y-138463065D01*
X123648751Y-138463065D01*
X123881948Y-138500000D01*
X124118052Y-138500000D01*
X124351247Y-138463065D01*
X124575802Y-138390102D01*
X124786163Y-138282918D01*
X124786169Y-138282914D01*
X124869104Y-138222658D01*
X124869105Y-138222658D01*
X124170233Y-137523787D01*
X124212292Y-137512518D01*
X124337708Y-137440110D01*
X124440110Y-137337708D01*
X124512518Y-137212292D01*
X124523787Y-137170233D01*
X125222658Y-137869105D01*
X125222658Y-137869104D01*
X125282914Y-137786169D01*
X125282918Y-137786163D01*
X125390102Y-137575802D01*
X125463065Y-137351247D01*
X125500000Y-137118052D01*
X125500000Y-136881947D01*
X144375000Y-136881947D01*
X144375000Y-137118052D01*
X144411934Y-137351247D01*
X144484897Y-137575802D01*
X144592087Y-137786174D01*
X144652338Y-137869104D01*
X144652340Y-137869105D01*
X145351212Y-137170233D01*
X145362482Y-137212292D01*
X145434890Y-137337708D01*
X145537292Y-137440110D01*
X145662708Y-137512518D01*
X145704765Y-137523787D01*
X145005893Y-138222658D01*
X145088828Y-138282914D01*
X145299197Y-138390102D01*
X145523752Y-138463065D01*
X145523751Y-138463065D01*
X145756948Y-138500000D01*
X145993052Y-138500000D01*
X146226247Y-138463065D01*
X146450802Y-138390102D01*
X146661163Y-138282918D01*
X146661169Y-138282914D01*
X146744104Y-138222658D01*
X146744105Y-138222658D01*
X146045233Y-137523787D01*
X146087292Y-137512518D01*
X146212708Y-137440110D01*
X146315110Y-137337708D01*
X146387518Y-137212292D01*
X146398787Y-137170233D01*
X147097658Y-137869105D01*
X147097658Y-137869104D01*
X147157914Y-137786169D01*
X147157918Y-137786163D01*
X147265102Y-137575802D01*
X147338065Y-137351247D01*
X147375000Y-137118052D01*
X147375000Y-136881947D01*
X150875000Y-136881947D01*
X150875000Y-137118052D01*
X150911934Y-137351247D01*
X150984897Y-137575802D01*
X151092087Y-137786174D01*
X151152338Y-137869104D01*
X151152340Y-137869105D01*
X151851212Y-137170233D01*
X151862482Y-137212292D01*
X151934890Y-137337708D01*
X152037292Y-137440110D01*
X152162708Y-137512518D01*
X152204765Y-137523787D01*
X151505893Y-138222658D01*
X151588828Y-138282914D01*
X151799197Y-138390102D01*
X152023752Y-138463065D01*
X152023751Y-138463065D01*
X152256948Y-138500000D01*
X152493052Y-138500000D01*
X152726247Y-138463065D01*
X152950802Y-138390102D01*
X153161163Y-138282918D01*
X153161169Y-138282914D01*
X153244104Y-138222658D01*
X153244105Y-138222658D01*
X152545233Y-137523787D01*
X152587292Y-137512518D01*
X152712708Y-137440110D01*
X152815110Y-137337708D01*
X152887518Y-137212292D01*
X152898787Y-137170234D01*
X153597658Y-137869105D01*
X153597658Y-137869104D01*
X153657914Y-137786169D01*
X153657918Y-137786163D01*
X153765102Y-137575802D01*
X153838065Y-137351247D01*
X153875000Y-137118052D01*
X153875000Y-136881947D01*
X172750000Y-136881947D01*
X172750000Y-137118052D01*
X172786934Y-137351247D01*
X172859897Y-137575802D01*
X172967087Y-137786174D01*
X173027338Y-137869104D01*
X173027340Y-137869105D01*
X173726212Y-137170233D01*
X173737482Y-137212292D01*
X173809890Y-137337708D01*
X173912292Y-137440110D01*
X174037708Y-137512518D01*
X174079765Y-137523787D01*
X173380893Y-138222658D01*
X173463828Y-138282914D01*
X173674197Y-138390102D01*
X173898752Y-138463065D01*
X173898751Y-138463065D01*
X174131948Y-138500000D01*
X174368052Y-138500000D01*
X174601247Y-138463065D01*
X174825802Y-138390102D01*
X175036163Y-138282918D01*
X175036169Y-138282914D01*
X175119104Y-138222658D01*
X175119105Y-138222658D01*
X174420233Y-137523787D01*
X174462292Y-137512518D01*
X174587708Y-137440110D01*
X174690110Y-137337708D01*
X174762518Y-137212292D01*
X174773787Y-137170233D01*
X175472658Y-137869105D01*
X175472658Y-137869104D01*
X175532914Y-137786169D01*
X175532918Y-137786163D01*
X175640102Y-137575802D01*
X175713065Y-137351247D01*
X175750000Y-137118052D01*
X175750000Y-136881947D01*
X179250000Y-136881947D01*
X179250000Y-137118052D01*
X179286934Y-137351247D01*
X179359897Y-137575802D01*
X179467087Y-137786174D01*
X179527338Y-137869104D01*
X179527340Y-137869105D01*
X180226212Y-137170233D01*
X180237482Y-137212292D01*
X180309890Y-137337708D01*
X180412292Y-137440110D01*
X180537708Y-137512518D01*
X180579765Y-137523787D01*
X179880893Y-138222658D01*
X179963828Y-138282914D01*
X180174197Y-138390102D01*
X180398752Y-138463065D01*
X180398751Y-138463065D01*
X180631948Y-138500000D01*
X180868052Y-138500000D01*
X181101247Y-138463065D01*
X181325802Y-138390102D01*
X181536163Y-138282918D01*
X181536169Y-138282914D01*
X181619104Y-138222658D01*
X181619105Y-138222658D01*
X180920233Y-137523787D01*
X180962292Y-137512518D01*
X181087708Y-137440110D01*
X181190110Y-137337708D01*
X181262518Y-137212292D01*
X181273787Y-137170234D01*
X181972658Y-137869105D01*
X181972658Y-137869104D01*
X182032914Y-137786169D01*
X182032918Y-137786163D01*
X182140102Y-137575802D01*
X182213065Y-137351247D01*
X182250000Y-137118052D01*
X182250000Y-136881947D01*
X182213065Y-136648752D01*
X182140102Y-136424197D01*
X182032914Y-136213828D01*
X181972658Y-136130894D01*
X181972658Y-136130893D01*
X181273787Y-136829765D01*
X181262518Y-136787708D01*
X181190110Y-136662292D01*
X181087708Y-136559890D01*
X180962292Y-136487482D01*
X180920234Y-136476212D01*
X181619105Y-135777340D01*
X181619104Y-135777338D01*
X181536174Y-135717087D01*
X181325802Y-135609897D01*
X181101247Y-135536934D01*
X181101248Y-135536934D01*
X180868052Y-135500000D01*
X180631948Y-135500000D01*
X180398752Y-135536934D01*
X180174197Y-135609897D01*
X179963830Y-135717084D01*
X179880894Y-135777340D01*
X180579766Y-136476212D01*
X180537708Y-136487482D01*
X180412292Y-136559890D01*
X180309890Y-136662292D01*
X180237482Y-136787708D01*
X180226212Y-136829765D01*
X179527340Y-136130894D01*
X179467084Y-136213830D01*
X179359897Y-136424197D01*
X179286934Y-136648752D01*
X179250000Y-136881947D01*
X175750000Y-136881947D01*
X175713065Y-136648752D01*
X175640102Y-136424197D01*
X175532914Y-136213828D01*
X175472658Y-136130894D01*
X175472658Y-136130893D01*
X174773787Y-136829765D01*
X174762518Y-136787708D01*
X174690110Y-136662292D01*
X174587708Y-136559890D01*
X174462292Y-136487482D01*
X174420234Y-136476212D01*
X175119105Y-135777340D01*
X175119104Y-135777339D01*
X175036174Y-135717087D01*
X174825802Y-135609897D01*
X174601247Y-135536934D01*
X174601248Y-135536934D01*
X174368052Y-135500000D01*
X174131948Y-135500000D01*
X173898752Y-135536934D01*
X173674197Y-135609897D01*
X173463830Y-135717084D01*
X173380894Y-135777340D01*
X174079766Y-136476212D01*
X174037708Y-136487482D01*
X173912292Y-136559890D01*
X173809890Y-136662292D01*
X173737482Y-136787708D01*
X173726212Y-136829766D01*
X173027340Y-136130894D01*
X172967084Y-136213830D01*
X172859897Y-136424197D01*
X172786934Y-136648752D01*
X172750000Y-136881947D01*
X153875000Y-136881947D01*
X153838065Y-136648752D01*
X153765102Y-136424197D01*
X153657914Y-136213828D01*
X153597658Y-136130894D01*
X153597658Y-136130893D01*
X152898787Y-136829765D01*
X152887518Y-136787708D01*
X152815110Y-136662292D01*
X152712708Y-136559890D01*
X152587292Y-136487482D01*
X152545234Y-136476212D01*
X153244105Y-135777340D01*
X153244104Y-135777339D01*
X153161174Y-135717087D01*
X152950802Y-135609897D01*
X152726247Y-135536934D01*
X152726248Y-135536934D01*
X152493052Y-135500000D01*
X152256948Y-135500000D01*
X152023752Y-135536934D01*
X151799197Y-135609897D01*
X151588830Y-135717084D01*
X151505894Y-135777340D01*
X152204766Y-136476212D01*
X152162708Y-136487482D01*
X152037292Y-136559890D01*
X151934890Y-136662292D01*
X151862482Y-136787708D01*
X151851212Y-136829766D01*
X151152340Y-136130894D01*
X151092084Y-136213830D01*
X150984897Y-136424197D01*
X150911934Y-136648752D01*
X150875000Y-136881947D01*
X147375000Y-136881947D01*
X147338065Y-136648752D01*
X147265102Y-136424197D01*
X147157914Y-136213828D01*
X147097658Y-136130894D01*
X147097658Y-136130893D01*
X146398787Y-136829765D01*
X146387518Y-136787708D01*
X146315110Y-136662292D01*
X146212708Y-136559890D01*
X146087292Y-136487482D01*
X146045234Y-136476212D01*
X146744105Y-135777340D01*
X146744104Y-135777339D01*
X146661174Y-135717087D01*
X146450802Y-135609897D01*
X146226247Y-135536934D01*
X146226248Y-135536934D01*
X145993052Y-135500000D01*
X145756948Y-135500000D01*
X145523752Y-135536934D01*
X145299197Y-135609897D01*
X145088830Y-135717084D01*
X145005894Y-135777340D01*
X145704766Y-136476212D01*
X145662708Y-136487482D01*
X145537292Y-136559890D01*
X145434890Y-136662292D01*
X145362482Y-136787708D01*
X145351212Y-136829766D01*
X144652340Y-136130894D01*
X144592084Y-136213830D01*
X144484897Y-136424197D01*
X144411934Y-136648752D01*
X144375000Y-136881947D01*
X125500000Y-136881947D01*
X125463065Y-136648752D01*
X125390102Y-136424197D01*
X125282914Y-136213828D01*
X125222658Y-136130894D01*
X125222658Y-136130893D01*
X124523787Y-136829765D01*
X124512518Y-136787708D01*
X124440110Y-136662292D01*
X124337708Y-136559890D01*
X124212292Y-136487482D01*
X124170234Y-136476212D01*
X124869105Y-135777340D01*
X124869104Y-135777339D01*
X124786174Y-135717087D01*
X124575802Y-135609897D01*
X124351247Y-135536934D01*
X124351248Y-135536934D01*
X124118052Y-135500000D01*
X123881948Y-135500000D01*
X123648752Y-135536934D01*
X123424197Y-135609897D01*
X123213830Y-135717084D01*
X123130894Y-135777340D01*
X123829766Y-136476212D01*
X123787708Y-136487482D01*
X123662292Y-136559890D01*
X123559890Y-136662292D01*
X123487482Y-136787708D01*
X123476212Y-136829766D01*
X122777340Y-136130894D01*
X122717084Y-136213830D01*
X122609897Y-136424197D01*
X122536934Y-136648752D01*
X122500000Y-136881947D01*
X119000000Y-136881947D01*
X118963065Y-136648752D01*
X118890102Y-136424197D01*
X118782914Y-136213828D01*
X118722658Y-136130894D01*
X118722658Y-136130893D01*
X118023787Y-136829765D01*
X118012518Y-136787708D01*
X117940110Y-136662292D01*
X117837708Y-136559890D01*
X117712292Y-136487482D01*
X117670234Y-136476212D01*
X118369105Y-135777340D01*
X118369104Y-135777339D01*
X118286174Y-135717087D01*
X118075802Y-135609897D01*
X117851247Y-135536934D01*
X117851248Y-135536934D01*
X117618052Y-135500000D01*
X117381948Y-135500000D01*
X117148752Y-135536934D01*
X116924197Y-135609897D01*
X116713830Y-135717084D01*
X116630894Y-135777340D01*
X117329766Y-136476212D01*
X117287708Y-136487482D01*
X117162292Y-136559890D01*
X117059890Y-136662292D01*
X116987482Y-136787708D01*
X116976212Y-136829766D01*
X116277340Y-136130894D01*
X116217084Y-136213830D01*
X116109897Y-136424197D01*
X116036934Y-136648752D01*
X116000000Y-136881947D01*
X109000500Y-136881947D01*
X109000500Y-79677648D01*
X110504500Y-79677648D01*
X110504500Y-79882351D01*
X110536522Y-80084534D01*
X110599781Y-80279223D01*
X110655974Y-80389506D01*
X110691338Y-80458912D01*
X110692715Y-80461613D01*
X110813028Y-80627213D01*
X110957786Y-80771971D01*
X111077351Y-80858838D01*
X111123390Y-80892287D01*
X111201355Y-80932012D01*
X111216080Y-80939515D01*
X111266876Y-80987490D01*
X111283671Y-81055311D01*
X111261134Y-81121446D01*
X111216080Y-81160485D01*
X111123386Y-81207715D01*
X110957786Y-81328028D01*
X110813028Y-81472786D01*
X110692715Y-81638386D01*
X110599781Y-81820776D01*
X110536522Y-82015465D01*
X110504500Y-82217648D01*
X110504500Y-82422351D01*
X110536522Y-82624534D01*
X110599781Y-82819223D01*
X110692715Y-83001613D01*
X110813028Y-83167213D01*
X110957786Y-83311971D01*
X111109955Y-83422526D01*
X111123390Y-83432287D01*
X111194570Y-83468555D01*
X111216080Y-83479515D01*
X111266876Y-83527490D01*
X111283671Y-83595311D01*
X111261134Y-83661446D01*
X111216080Y-83700485D01*
X111123386Y-83747715D01*
X110957786Y-83868028D01*
X110813028Y-84012786D01*
X110692715Y-84178386D01*
X110599781Y-84360776D01*
X110536522Y-84555465D01*
X110504500Y-84757648D01*
X110504500Y-84962351D01*
X110536522Y-85164534D01*
X110599781Y-85359223D01*
X110692715Y-85541613D01*
X110813028Y-85707213D01*
X110957786Y-85851971D01*
X111087364Y-85946113D01*
X111123390Y-85972287D01*
X111194570Y-86008555D01*
X111216080Y-86019515D01*
X111266876Y-86067490D01*
X111283671Y-86135311D01*
X111261134Y-86201446D01*
X111216080Y-86240485D01*
X111123386Y-86287715D01*
X110957786Y-86408028D01*
X110813028Y-86552786D01*
X110692715Y-86718386D01*
X110599781Y-86900776D01*
X110536522Y-87095465D01*
X110504500Y-87297648D01*
X110504500Y-87502351D01*
X110536522Y-87704534D01*
X110599781Y-87899223D01*
X110692715Y-88081613D01*
X110813028Y-88247213D01*
X110957786Y-88391971D01*
X111054566Y-88462284D01*
X111123390Y-88512287D01*
X111194570Y-88548555D01*
X111216080Y-88559515D01*
X111266876Y-88607490D01*
X111283671Y-88675311D01*
X111261134Y-88741446D01*
X111216080Y-88780485D01*
X111123386Y-88827715D01*
X110957786Y-88948028D01*
X110957785Y-88948030D01*
X110813032Y-89092782D01*
X110813028Y-89092786D01*
X110692715Y-89258386D01*
X110599781Y-89440776D01*
X110536522Y-89635465D01*
X110504500Y-89837648D01*
X110504500Y-90042351D01*
X110536522Y-90244534D01*
X110599781Y-90439223D01*
X110692715Y-90621613D01*
X110813028Y-90787213D01*
X110957786Y-90931971D01*
X111054570Y-91002287D01*
X111123390Y-91052287D01*
X111205317Y-91094031D01*
X111216080Y-91099515D01*
X111266876Y-91147490D01*
X111283671Y-91215311D01*
X111261134Y-91281446D01*
X111216080Y-91320485D01*
X111123386Y-91367715D01*
X110957786Y-91488028D01*
X110813028Y-91632786D01*
X110692715Y-91798386D01*
X110599781Y-91980776D01*
X110536522Y-92175465D01*
X110504500Y-92377648D01*
X110504500Y-92582351D01*
X110536522Y-92784534D01*
X110599781Y-92979223D01*
X110645923Y-93069780D01*
X110691338Y-93158912D01*
X110692715Y-93161613D01*
X110813028Y-93327213D01*
X110957786Y-93471971D01*
X111077355Y-93558841D01*
X111123390Y-93592287D01*
X111212655Y-93637770D01*
X111216080Y-93639515D01*
X111266876Y-93687490D01*
X111283671Y-93755311D01*
X111261134Y-93821446D01*
X111216080Y-93860485D01*
X111123386Y-93907715D01*
X110957786Y-94028028D01*
X110813028Y-94172786D01*
X110692715Y-94338386D01*
X110599781Y-94520776D01*
X110536522Y-94715465D01*
X110504500Y-94917648D01*
X110504500Y-95122351D01*
X110536522Y-95324534D01*
X110599781Y-95519223D01*
X110692715Y-95701613D01*
X110813028Y-95867213D01*
X110957786Y-96011971D01*
X111112749Y-96124556D01*
X111123390Y-96132287D01*
X111194570Y-96168555D01*
X111216080Y-96179515D01*
X111266876Y-96227490D01*
X111283671Y-96295311D01*
X111261134Y-96361446D01*
X111216080Y-96400485D01*
X111123386Y-96447715D01*
X110957786Y-96568028D01*
X110813028Y-96712786D01*
X110692715Y-96878386D01*
X110599781Y-97060776D01*
X110536522Y-97255465D01*
X110512419Y-97407648D01*
X110504500Y-97457648D01*
X110504500Y-97662352D01*
X110505606Y-97669334D01*
X110536522Y-97864534D01*
X110599781Y-98059223D01*
X110645763Y-98149466D01*
X110668187Y-98193476D01*
X110692715Y-98241613D01*
X110813028Y-98407213D01*
X110957786Y-98551971D01*
X111054566Y-98622284D01*
X111123390Y-98672287D01*
X111194570Y-98708555D01*
X111216080Y-98719515D01*
X111266876Y-98767490D01*
X111283671Y-98835311D01*
X111261134Y-98901446D01*
X111216080Y-98940485D01*
X111123386Y-98987715D01*
X110957786Y-99108028D01*
X110813028Y-99252786D01*
X110692715Y-99418386D01*
X110599781Y-99600776D01*
X110536522Y-99795465D01*
X110504500Y-99997648D01*
X110504500Y-100202351D01*
X110536522Y-100404534D01*
X110599781Y-100599223D01*
X110660189Y-100717779D01*
X110677382Y-100751522D01*
X110692715Y-100781613D01*
X110813028Y-100947213D01*
X110957786Y-101091971D01*
X111112749Y-101204556D01*
X111123390Y-101212287D01*
X111194570Y-101248555D01*
X111216080Y-101259515D01*
X111266876Y-101307490D01*
X111283671Y-101375311D01*
X111261134Y-101441446D01*
X111216080Y-101480485D01*
X111123386Y-101527715D01*
X110957786Y-101648028D01*
X110813028Y-101792786D01*
X110692715Y-101958386D01*
X110599781Y-102140776D01*
X110536522Y-102335465D01*
X110504500Y-102537648D01*
X110504500Y-102742351D01*
X110536522Y-102944534D01*
X110599781Y-103139223D01*
X110640132Y-103218415D01*
X110687642Y-103311658D01*
X110692715Y-103321613D01*
X110813028Y-103487213D01*
X110957786Y-103631971D01*
X111054570Y-103702287D01*
X111123390Y-103752287D01*
X111205317Y-103794031D01*
X111216080Y-103799515D01*
X111266876Y-103847490D01*
X111283671Y-103915311D01*
X111261134Y-103981446D01*
X111216080Y-104020485D01*
X111123386Y-104067715D01*
X110957786Y-104188028D01*
X110813028Y-104332786D01*
X110692715Y-104498386D01*
X110599781Y-104680776D01*
X110536522Y-104875465D01*
X110504500Y-105077648D01*
X110504500Y-105282351D01*
X110536522Y-105484534D01*
X110599781Y-105679223D01*
X110655977Y-105789511D01*
X110691338Y-105858912D01*
X110692715Y-105861613D01*
X110813028Y-106027213D01*
X110957786Y-106171971D01*
X111077351Y-106258838D01*
X111123390Y-106292287D01*
X111201355Y-106332012D01*
X111216080Y-106339515D01*
X111266876Y-106387490D01*
X111283671Y-106455311D01*
X111261134Y-106521446D01*
X111216080Y-106560485D01*
X111123386Y-106607715D01*
X110957786Y-106728028D01*
X110813028Y-106872786D01*
X110692715Y-107038386D01*
X110599781Y-107220776D01*
X110536522Y-107415465D01*
X110504500Y-107617648D01*
X110504500Y-107822351D01*
X110536522Y-108024534D01*
X110599781Y-108219223D01*
X110642448Y-108302960D01*
X110688642Y-108393621D01*
X110692715Y-108401613D01*
X110813028Y-108567213D01*
X110957786Y-108711971D01*
X111112749Y-108824556D01*
X111123390Y-108832287D01*
X111194570Y-108868555D01*
X111216080Y-108879515D01*
X111266876Y-108927490D01*
X111283671Y-108995311D01*
X111261134Y-109061446D01*
X111216080Y-109100485D01*
X111123386Y-109147715D01*
X110957786Y-109268028D01*
X110813028Y-109412786D01*
X110692715Y-109578386D01*
X110599781Y-109760776D01*
X110536522Y-109955465D01*
X110504500Y-110157648D01*
X110504500Y-110362351D01*
X110536522Y-110564534D01*
X110599781Y-110759223D01*
X110656333Y-110870211D01*
X110692067Y-110940343D01*
X110692715Y-110941613D01*
X110813028Y-111107213D01*
X110957786Y-111251971D01*
X111112749Y-111364556D01*
X111123390Y-111372287D01*
X111194570Y-111408555D01*
X111216080Y-111419515D01*
X111266876Y-111467490D01*
X111283671Y-111535311D01*
X111261134Y-111601446D01*
X111216080Y-111640485D01*
X111123386Y-111687715D01*
X110957786Y-111808028D01*
X110813028Y-111952786D01*
X110692715Y-112118386D01*
X110599781Y-112300776D01*
X110536522Y-112495465D01*
X110504500Y-112697648D01*
X110504500Y-112902351D01*
X110536522Y-113104534D01*
X110599781Y-113299223D01*
X110658814Y-113415080D01*
X110687642Y-113471658D01*
X110692715Y-113481613D01*
X110813028Y-113647213D01*
X110957786Y-113791971D01*
X111092567Y-113889893D01*
X111123390Y-113912287D01*
X111194570Y-113948555D01*
X111216080Y-113959515D01*
X111266876Y-114007490D01*
X111283671Y-114075311D01*
X111261134Y-114141446D01*
X111216080Y-114180485D01*
X111123386Y-114227715D01*
X110957786Y-114348028D01*
X110813028Y-114492786D01*
X110692715Y-114658386D01*
X110599781Y-114840776D01*
X110536522Y-115035465D01*
X110504500Y-115237648D01*
X110504500Y-115442351D01*
X110536522Y-115644534D01*
X110599781Y-115839223D01*
X110642054Y-115922186D01*
X110687642Y-116011658D01*
X110692715Y-116021613D01*
X110813028Y-116187213D01*
X110957786Y-116331971D01*
X111054570Y-116402287D01*
X111123390Y-116452287D01*
X111205317Y-116494031D01*
X111216080Y-116499515D01*
X111266876Y-116547490D01*
X111283671Y-116615311D01*
X111261134Y-116681446D01*
X111216080Y-116720485D01*
X111123386Y-116767715D01*
X110957786Y-116888028D01*
X110813028Y-117032786D01*
X110692715Y-117198386D01*
X110599781Y-117380776D01*
X110536522Y-117575465D01*
X110504500Y-117777648D01*
X110504500Y-117982351D01*
X110536522Y-118184534D01*
X110599781Y-118379223D01*
X110655974Y-118489506D01*
X110692585Y-118561359D01*
X110692715Y-118561613D01*
X110813028Y-118727213D01*
X110957786Y-118871971D01*
X111077351Y-118958838D01*
X111123390Y-118992287D01*
X111201355Y-119032012D01*
X111216080Y-119039515D01*
X111266876Y-119087490D01*
X111283671Y-119155311D01*
X111261134Y-119221446D01*
X111216080Y-119260485D01*
X111123386Y-119307715D01*
X110957786Y-119428028D01*
X110813028Y-119572786D01*
X110692715Y-119738386D01*
X110599781Y-119920776D01*
X110536522Y-120115465D01*
X110512419Y-120267648D01*
X110504500Y-120317648D01*
X110504500Y-120522352D01*
X110506807Y-120536918D01*
X110536522Y-120724534D01*
X110599781Y-120919223D01*
X110642443Y-121002950D01*
X110687642Y-121091658D01*
X110692715Y-121101613D01*
X110813028Y-121267213D01*
X110957786Y-121411971D01*
X111054566Y-121482284D01*
X111123390Y-121532287D01*
X111194570Y-121568555D01*
X111216080Y-121579515D01*
X111266876Y-121627490D01*
X111283671Y-121695311D01*
X111261134Y-121761446D01*
X111216080Y-121800485D01*
X111123386Y-121847715D01*
X110957786Y-121968028D01*
X110813028Y-122112786D01*
X110692715Y-122278386D01*
X110599781Y-122460776D01*
X110536522Y-122655465D01*
X110504500Y-122857648D01*
X110504500Y-123062351D01*
X110536522Y-123264534D01*
X110599781Y-123459223D01*
X110642054Y-123542186D01*
X110687642Y-123631658D01*
X110692715Y-123641613D01*
X110813028Y-123807213D01*
X110957786Y-123951971D01*
X111083539Y-124043334D01*
X111123390Y-124072287D01*
X111176369Y-124099281D01*
X111216080Y-124119515D01*
X111266876Y-124167490D01*
X111283671Y-124235311D01*
X111261134Y-124301446D01*
X111216080Y-124340485D01*
X111123386Y-124387715D01*
X110957786Y-124508028D01*
X110813028Y-124652786D01*
X110692715Y-124818386D01*
X110599781Y-125000776D01*
X110536522Y-125195465D01*
X110504500Y-125397648D01*
X110504500Y-125602351D01*
X110536522Y-125804534D01*
X110599781Y-125999223D01*
X110692715Y-126181613D01*
X110813028Y-126347213D01*
X110957786Y-126491971D01*
X111112749Y-126604556D01*
X111123390Y-126612287D01*
X111225134Y-126664128D01*
X111305776Y-126705218D01*
X111305778Y-126705218D01*
X111305781Y-126705220D01*
X111368046Y-126725451D01*
X111500465Y-126768477D01*
X111601557Y-126784488D01*
X111702648Y-126800500D01*
X111702649Y-126800500D01*
X111907351Y-126800500D01*
X111907352Y-126800500D01*
X112109534Y-126768477D01*
X112304219Y-126705220D01*
X112486610Y-126612287D01*
X112579590Y-126544732D01*
X112652213Y-126491971D01*
X112652215Y-126491968D01*
X112652219Y-126491966D01*
X112796966Y-126347219D01*
X112796968Y-126347215D01*
X112796971Y-126347213D01*
X112849732Y-126274590D01*
X112917287Y-126181610D01*
X113010220Y-125999219D01*
X113073477Y-125804534D01*
X113105500Y-125602352D01*
X113105500Y-125397648D01*
X113073477Y-125195466D01*
X113010220Y-125000781D01*
X113010218Y-125000778D01*
X113010218Y-125000776D01*
X112959413Y-124901067D01*
X112917287Y-124818390D01*
X112909556Y-124807749D01*
X112796971Y-124652786D01*
X112652213Y-124508028D01*
X112486614Y-124387715D01*
X112480006Y-124384348D01*
X112393917Y-124340483D01*
X112343123Y-124292511D01*
X112326328Y-124224690D01*
X112348865Y-124158555D01*
X112393917Y-124119516D01*
X112486610Y-124072287D01*
X112526461Y-124043334D01*
X112652213Y-123951971D01*
X112652215Y-123951968D01*
X112652219Y-123951966D01*
X112796966Y-123807219D01*
X112796968Y-123807215D01*
X112796971Y-123807213D01*
X112866426Y-123711615D01*
X112917287Y-123641610D01*
X113010220Y-123459219D01*
X113073477Y-123264534D01*
X113105500Y-123062352D01*
X113105500Y-122857648D01*
X113073477Y-122655466D01*
X113055449Y-122599983D01*
X113044127Y-122565137D01*
X113010220Y-122460781D01*
X113010218Y-122460778D01*
X113010218Y-122460776D01*
X112976503Y-122394607D01*
X112917287Y-122278390D01*
X112909556Y-122267749D01*
X112796971Y-122112786D01*
X112652213Y-121968028D01*
X112486614Y-121847715D01*
X112453530Y-121830858D01*
X112393917Y-121800483D01*
X112343123Y-121752511D01*
X112326328Y-121684690D01*
X112348865Y-121618555D01*
X112393917Y-121579516D01*
X112486610Y-121532287D01*
X112555434Y-121482284D01*
X112652213Y-121411971D01*
X112652215Y-121411968D01*
X112652219Y-121411966D01*
X112796966Y-121267219D01*
X112796968Y-121267215D01*
X112796971Y-121267213D01*
X112867236Y-121170500D01*
X112917287Y-121101610D01*
X112969067Y-120999986D01*
X120825001Y-120999986D01*
X120835494Y-121102697D01*
X120890641Y-121269119D01*
X120890643Y-121269124D01*
X120982684Y-121418345D01*
X121106654Y-121542315D01*
X121255875Y-121634356D01*
X121255880Y-121634358D01*
X121422302Y-121689505D01*
X121422309Y-121689506D01*
X121525019Y-121699999D01*
X121674999Y-121699999D01*
X121675000Y-121699998D01*
X121675000Y-120750000D01*
X120825001Y-120750000D01*
X120825001Y-120999986D01*
X112969067Y-120999986D01*
X113010220Y-120919219D01*
X113073477Y-120724534D01*
X113105500Y-120522352D01*
X113105500Y-120317648D01*
X113073477Y-120115466D01*
X113035964Y-120000013D01*
X120825000Y-120000013D01*
X120825000Y-120250000D01*
X121675000Y-120250000D01*
X121675000Y-119300000D01*
X121525027Y-119300000D01*
X121525012Y-119300001D01*
X121422302Y-119310494D01*
X121255880Y-119365641D01*
X121255875Y-119365643D01*
X121106654Y-119457684D01*
X120982684Y-119581654D01*
X120890643Y-119730875D01*
X120890641Y-119730880D01*
X120835494Y-119897302D01*
X120835493Y-119897309D01*
X120825000Y-120000013D01*
X113035964Y-120000013D01*
X113010220Y-119920781D01*
X112917287Y-119738390D01*
X112882564Y-119690597D01*
X112796971Y-119572786D01*
X112652213Y-119428028D01*
X112486614Y-119307715D01*
X112470491Y-119299500D01*
X112393917Y-119260483D01*
X112343123Y-119212511D01*
X112326328Y-119144690D01*
X112348865Y-119078555D01*
X112393917Y-119039516D01*
X112486610Y-118992287D01*
X112532649Y-118958838D01*
X112652213Y-118871971D01*
X112652215Y-118871968D01*
X112652219Y-118871966D01*
X112796966Y-118727219D01*
X112796968Y-118727215D01*
X112796971Y-118727213D01*
X112880638Y-118612053D01*
X112917287Y-118561610D01*
X113010220Y-118379219D01*
X113073477Y-118184534D01*
X113105500Y-117982352D01*
X113105500Y-117777648D01*
X113083224Y-117637007D01*
X113073477Y-117575465D01*
X113017565Y-117403387D01*
X113010220Y-117380781D01*
X113010218Y-117380778D01*
X113010218Y-117380776D01*
X112917419Y-117198650D01*
X112917287Y-117198390D01*
X112885092Y-117154077D01*
X112796971Y-117032786D01*
X112652213Y-116888028D01*
X112486614Y-116767715D01*
X112480006Y-116764348D01*
X112393917Y-116720483D01*
X112343123Y-116672511D01*
X112326328Y-116604690D01*
X112348865Y-116538555D01*
X112393917Y-116499516D01*
X112486610Y-116452287D01*
X112644235Y-116337767D01*
X112652213Y-116331971D01*
X112652215Y-116331968D01*
X112652219Y-116331966D01*
X112796966Y-116187219D01*
X112796968Y-116187215D01*
X112796971Y-116187213D01*
X112867236Y-116090500D01*
X112917287Y-116021610D01*
X113010220Y-115839219D01*
X113073477Y-115644534D01*
X113105500Y-115442352D01*
X113105500Y-115237648D01*
X113095896Y-115177011D01*
X113073477Y-115035465D01*
X113036583Y-114921919D01*
X113010220Y-114840781D01*
X113010218Y-114840778D01*
X113010218Y-114840776D01*
X112967556Y-114757048D01*
X112917287Y-114658390D01*
X112892964Y-114624912D01*
X112796971Y-114492786D01*
X112652213Y-114348028D01*
X112486614Y-114227715D01*
X112480006Y-114224348D01*
X112393917Y-114180483D01*
X112343123Y-114132511D01*
X112326328Y-114064690D01*
X112348865Y-113998555D01*
X112393917Y-113959516D01*
X112486610Y-113912287D01*
X112517433Y-113889893D01*
X112652213Y-113791971D01*
X112652215Y-113791968D01*
X112652219Y-113791966D01*
X112796966Y-113647219D01*
X112796968Y-113647215D01*
X112796971Y-113647213D01*
X112866426Y-113551615D01*
X112917287Y-113481610D01*
X113010220Y-113299219D01*
X113073477Y-113104534D01*
X113105500Y-112902352D01*
X113105500Y-112697648D01*
X113073477Y-112495466D01*
X113010220Y-112300781D01*
X113010218Y-112300778D01*
X113010218Y-112300776D01*
X112976503Y-112234607D01*
X112917287Y-112118390D01*
X112886126Y-112075500D01*
X112796971Y-111952786D01*
X112652213Y-111808028D01*
X112486614Y-111687715D01*
X112480006Y-111684348D01*
X112393917Y-111640483D01*
X112343123Y-111592511D01*
X112326328Y-111524690D01*
X112348865Y-111458555D01*
X112393917Y-111419516D01*
X112486610Y-111372287D01*
X112586103Y-111300002D01*
X112652213Y-111251971D01*
X112652215Y-111251968D01*
X112652219Y-111251966D01*
X112796966Y-111107219D01*
X112796968Y-111107215D01*
X112796971Y-111107213D01*
X112867236Y-111010500D01*
X112917287Y-110941610D01*
X113010220Y-110759219D01*
X113073477Y-110564534D01*
X113079741Y-110524986D01*
X121300001Y-110524986D01*
X121310494Y-110627697D01*
X121365641Y-110794119D01*
X121365643Y-110794124D01*
X121457684Y-110943345D01*
X121581654Y-111067315D01*
X121730875Y-111159356D01*
X121730880Y-111159358D01*
X121897302Y-111214505D01*
X121897309Y-111214506D01*
X122000019Y-111224999D01*
X122137499Y-111224999D01*
X122137500Y-111224998D01*
X122137500Y-110250000D01*
X121300001Y-110250000D01*
X121300001Y-110524986D01*
X113079741Y-110524986D01*
X113105500Y-110362352D01*
X113105500Y-110157648D01*
X113073477Y-109955466D01*
X113010220Y-109760781D01*
X113010218Y-109760778D01*
X113010218Y-109760776D01*
X112976503Y-109694607D01*
X112917287Y-109578390D01*
X112892964Y-109544912D01*
X112796971Y-109412786D01*
X112652213Y-109268028D01*
X112486614Y-109147715D01*
X112480006Y-109144348D01*
X112393917Y-109100483D01*
X112343123Y-109052511D01*
X112326328Y-108984690D01*
X112348865Y-108918555D01*
X112393917Y-108879516D01*
X112486610Y-108832287D01*
X112555434Y-108782284D01*
X112652213Y-108711971D01*
X112652215Y-108711968D01*
X112652219Y-108711966D01*
X112796966Y-108567219D01*
X112796968Y-108567215D01*
X112796971Y-108567213D01*
X112867236Y-108470500D01*
X112917287Y-108401610D01*
X113010220Y-108219219D01*
X113073330Y-108024986D01*
X121262501Y-108024986D01*
X121272994Y-108127697D01*
X121328141Y-108294119D01*
X121328143Y-108294124D01*
X121420184Y-108443345D01*
X121544155Y-108567316D01*
X121544159Y-108567319D01*
X121687976Y-108656027D01*
X121734701Y-108707975D01*
X121745922Y-108776937D01*
X121718079Y-108841019D01*
X121687976Y-108867103D01*
X121581659Y-108932680D01*
X121581655Y-108932683D01*
X121457684Y-109056654D01*
X121365643Y-109205875D01*
X121365641Y-109205880D01*
X121310494Y-109372302D01*
X121310493Y-109372309D01*
X121300000Y-109475013D01*
X121300000Y-109750000D01*
X122137500Y-109750000D01*
X122137500Y-108855000D01*
X122136319Y-108853819D01*
X122102834Y-108792496D01*
X122100000Y-108766138D01*
X122100000Y-107750000D01*
X121262501Y-107750000D01*
X121262501Y-108024986D01*
X113073330Y-108024986D01*
X113073477Y-108024534D01*
X113105500Y-107822352D01*
X113105500Y-107617648D01*
X113073477Y-107415466D01*
X113010220Y-107220781D01*
X113010218Y-107220778D01*
X113010218Y-107220776D01*
X112917287Y-107038390D01*
X112917281Y-107038381D01*
X112871242Y-106975013D01*
X121262500Y-106975013D01*
X121262500Y-107250000D01*
X122100000Y-107250000D01*
X122100000Y-106275000D01*
X121962527Y-106275000D01*
X121962512Y-106275001D01*
X121859802Y-106285494D01*
X121693380Y-106340641D01*
X121693375Y-106340643D01*
X121544154Y-106432684D01*
X121420184Y-106556654D01*
X121328143Y-106705875D01*
X121328141Y-106705880D01*
X121272994Y-106872302D01*
X121272993Y-106872309D01*
X121262500Y-106975013D01*
X112871242Y-106975013D01*
X112796971Y-106872786D01*
X112652213Y-106728028D01*
X112486614Y-106607715D01*
X112451365Y-106589755D01*
X112393917Y-106560483D01*
X112343123Y-106512511D01*
X112326328Y-106444690D01*
X112348865Y-106378555D01*
X112393917Y-106339516D01*
X112486610Y-106292287D01*
X112587596Y-106218917D01*
X112652213Y-106171971D01*
X112652215Y-106171968D01*
X112652219Y-106171966D01*
X112796966Y-106027219D01*
X112796968Y-106027215D01*
X112796971Y-106027213D01*
X112867236Y-105930500D01*
X112917287Y-105861610D01*
X113010220Y-105679219D01*
X113073477Y-105484534D01*
X113105500Y-105282352D01*
X113105500Y-105077648D01*
X113073477Y-104875466D01*
X113056427Y-104822993D01*
X113010218Y-104680776D01*
X112947558Y-104557801D01*
X112917287Y-104498390D01*
X112872131Y-104436237D01*
X112796971Y-104332786D01*
X112652213Y-104188028D01*
X112486614Y-104067715D01*
X112480006Y-104064348D01*
X112393917Y-104020483D01*
X112343123Y-103972511D01*
X112326328Y-103904690D01*
X112348865Y-103838555D01*
X112393917Y-103799516D01*
X112486610Y-103752287D01*
X112644235Y-103637767D01*
X112652213Y-103631971D01*
X112652215Y-103631968D01*
X112652219Y-103631966D01*
X112796966Y-103487219D01*
X112796968Y-103487215D01*
X112796971Y-103487213D01*
X112867236Y-103390500D01*
X112917287Y-103321610D01*
X113010220Y-103139219D01*
X113073477Y-102944534D01*
X113105500Y-102742352D01*
X113105500Y-102537648D01*
X113073477Y-102335466D01*
X113010220Y-102140781D01*
X113010218Y-102140778D01*
X113010218Y-102140776D01*
X112976503Y-102074607D01*
X112917287Y-101958390D01*
X112892965Y-101924913D01*
X112796971Y-101792786D01*
X112652213Y-101648028D01*
X112486614Y-101527715D01*
X112480006Y-101524348D01*
X112393917Y-101480483D01*
X112343123Y-101432511D01*
X112326328Y-101364690D01*
X112348865Y-101298555D01*
X112393917Y-101259516D01*
X112486610Y-101212287D01*
X112589175Y-101137770D01*
X112652213Y-101091971D01*
X112652215Y-101091968D01*
X112652219Y-101091966D01*
X112796966Y-100947219D01*
X112796968Y-100947215D01*
X112796971Y-100947213D01*
X112887841Y-100822139D01*
X112917287Y-100781610D01*
X113010220Y-100599219D01*
X113073477Y-100404534D01*
X113105500Y-100202352D01*
X113105500Y-99997648D01*
X113073477Y-99795466D01*
X113073387Y-99795190D01*
X113010218Y-99600776D01*
X112976503Y-99534607D01*
X112917287Y-99418390D01*
X112909556Y-99407749D01*
X112796971Y-99252786D01*
X112652213Y-99108028D01*
X112486614Y-98987715D01*
X112480006Y-98984348D01*
X112393917Y-98940483D01*
X112343123Y-98892511D01*
X112326328Y-98824690D01*
X112348865Y-98758555D01*
X112393917Y-98719516D01*
X112486610Y-98672287D01*
X112570650Y-98611229D01*
X112652213Y-98551971D01*
X112652215Y-98551968D01*
X112652219Y-98551966D01*
X112796966Y-98407219D01*
X112796968Y-98407215D01*
X112796971Y-98407213D01*
X112868554Y-98308686D01*
X112917287Y-98241610D01*
X113010220Y-98059219D01*
X113073477Y-97864534D01*
X113105500Y-97662352D01*
X113105500Y-97457648D01*
X113096371Y-97400008D01*
X113073477Y-97255465D01*
X113035235Y-97137769D01*
X113010220Y-97060781D01*
X113010218Y-97060778D01*
X113010218Y-97060776D01*
X112974187Y-96990063D01*
X112917287Y-96878390D01*
X112892966Y-96844915D01*
X112796971Y-96712786D01*
X112652213Y-96568028D01*
X112486614Y-96447715D01*
X112480006Y-96444348D01*
X112393917Y-96400483D01*
X112343123Y-96352511D01*
X112326328Y-96284690D01*
X112348865Y-96218555D01*
X112393917Y-96179516D01*
X112486610Y-96132287D01*
X112507770Y-96116913D01*
X112652213Y-96011971D01*
X112652215Y-96011968D01*
X112652219Y-96011966D01*
X112796966Y-95867219D01*
X112796968Y-95867215D01*
X112796971Y-95867213D01*
X112867236Y-95770500D01*
X112917287Y-95701610D01*
X113010220Y-95519219D01*
X113073477Y-95324534D01*
X113105500Y-95122352D01*
X113105500Y-94917648D01*
X113096290Y-94859499D01*
X113073477Y-94715465D01*
X113010218Y-94520776D01*
X112943141Y-94389132D01*
X112917287Y-94338390D01*
X112909556Y-94327749D01*
X112796971Y-94172786D01*
X112652213Y-94028028D01*
X112486614Y-93907715D01*
X112435044Y-93881439D01*
X112393917Y-93860483D01*
X112343123Y-93812511D01*
X112326328Y-93744690D01*
X112348865Y-93678555D01*
X112393917Y-93639516D01*
X112486610Y-93592287D01*
X112535206Y-93556980D01*
X112652213Y-93471971D01*
X112652215Y-93471968D01*
X112652219Y-93471966D01*
X112796966Y-93327219D01*
X112796968Y-93327215D01*
X112796971Y-93327213D01*
X112874275Y-93220811D01*
X112917287Y-93161610D01*
X113010220Y-92979219D01*
X113073477Y-92784534D01*
X113105500Y-92582352D01*
X113105500Y-92377648D01*
X113085694Y-92252599D01*
X113073477Y-92175465D01*
X113010218Y-91980776D01*
X112947558Y-91857801D01*
X112917287Y-91798390D01*
X112872131Y-91736237D01*
X112796971Y-91632786D01*
X112652213Y-91488028D01*
X112486614Y-91367715D01*
X112470004Y-91359252D01*
X112393917Y-91320483D01*
X112343123Y-91272511D01*
X112326328Y-91204690D01*
X112348865Y-91138555D01*
X112393917Y-91099516D01*
X112486610Y-91052287D01*
X112596800Y-90972230D01*
X112652213Y-90931971D01*
X112652215Y-90931968D01*
X112652219Y-90931966D01*
X112796966Y-90787219D01*
X112796968Y-90787215D01*
X112796971Y-90787213D01*
X112869607Y-90687236D01*
X112917287Y-90621610D01*
X113010220Y-90439219D01*
X113073477Y-90244534D01*
X113105500Y-90042352D01*
X113105500Y-89837648D01*
X113073477Y-89635466D01*
X113065484Y-89610867D01*
X113035162Y-89517546D01*
X113010220Y-89440781D01*
X113010218Y-89440778D01*
X113010218Y-89440776D01*
X112976503Y-89374607D01*
X112917287Y-89258390D01*
X112893391Y-89225500D01*
X112796971Y-89092786D01*
X112652213Y-88948028D01*
X112486614Y-88827715D01*
X112480006Y-88824348D01*
X112393917Y-88780483D01*
X112343123Y-88732511D01*
X112326328Y-88664690D01*
X112348865Y-88598555D01*
X112393917Y-88559516D01*
X112486610Y-88512287D01*
X112555434Y-88462284D01*
X112652213Y-88391971D01*
X112652215Y-88391968D01*
X112652219Y-88391966D01*
X112796966Y-88247219D01*
X112796968Y-88247215D01*
X112796971Y-88247213D01*
X112867236Y-88150500D01*
X112917287Y-88081610D01*
X113010220Y-87899219D01*
X113073477Y-87704534D01*
X113105500Y-87502352D01*
X113105500Y-87297648D01*
X113076983Y-87117601D01*
X113073477Y-87095465D01*
X113010218Y-86900776D01*
X112951478Y-86785494D01*
X112917287Y-86718390D01*
X112896030Y-86689132D01*
X112796971Y-86552786D01*
X112652213Y-86408028D01*
X112486614Y-86287715D01*
X112480006Y-86284348D01*
X112393917Y-86240483D01*
X112343123Y-86192511D01*
X112326328Y-86124690D01*
X112348865Y-86058555D01*
X112393917Y-86019516D01*
X112486610Y-85972287D01*
X112522636Y-85946113D01*
X112652213Y-85851971D01*
X112652215Y-85851968D01*
X112652219Y-85851966D01*
X112717366Y-85786819D01*
X112778689Y-85753334D01*
X112805047Y-85750500D01*
X113309362Y-85750500D01*
X113376401Y-85770185D01*
X113414899Y-85809401D01*
X113482288Y-85918656D01*
X113606344Y-86042712D01*
X113755666Y-86134814D01*
X113922203Y-86189999D01*
X114024991Y-86200500D01*
X114825008Y-86200499D01*
X114825016Y-86200498D01*
X114825019Y-86200498D01*
X114881302Y-86194748D01*
X114927797Y-86189999D01*
X115094334Y-86134814D01*
X115243656Y-86042712D01*
X115337319Y-85949049D01*
X115343393Y-85945731D01*
X115347351Y-85940052D01*
X115373664Y-85929202D01*
X115398642Y-85915564D01*
X115405546Y-85916057D01*
X115411946Y-85913419D01*
X115439944Y-85918517D01*
X115468334Y-85920548D01*
X115475522Y-85924996D01*
X115480685Y-85925937D01*
X115502471Y-85941674D01*
X115509644Y-85946113D01*
X115511176Y-85947544D01*
X115606344Y-86042712D01*
X115626116Y-86054907D01*
X115635144Y-86063340D01*
X115646887Y-86083205D01*
X115662318Y-86100360D01*
X115665623Y-86114901D01*
X115670698Y-86123487D01*
X115670257Y-86135289D01*
X115674500Y-86153957D01*
X115674500Y-86900270D01*
X115654815Y-86967309D01*
X115638181Y-86987951D01*
X115569789Y-87056342D01*
X115477687Y-87205663D01*
X115477685Y-87205668D01*
X115456362Y-87270016D01*
X115422501Y-87372203D01*
X115422501Y-87372204D01*
X115422500Y-87372204D01*
X115412000Y-87474983D01*
X115412000Y-88525001D01*
X115412001Y-88525019D01*
X115422500Y-88627796D01*
X115422501Y-88627799D01*
X115460375Y-88742093D01*
X115477686Y-88794334D01*
X115569788Y-88943656D01*
X115693844Y-89067712D01*
X115843166Y-89159814D01*
X116009703Y-89214999D01*
X116112491Y-89225500D01*
X116887508Y-89225499D01*
X116887516Y-89225498D01*
X116887519Y-89225498D01*
X116949602Y-89219156D01*
X116990297Y-89214999D01*
X117156834Y-89159814D01*
X117306156Y-89067712D01*
X117430212Y-88943656D01*
X117432252Y-88940347D01*
X117434245Y-88938555D01*
X117434693Y-88937989D01*
X117434789Y-88938065D01*
X117484194Y-88893623D01*
X117553156Y-88882395D01*
X117617240Y-88910234D01*
X117643329Y-88940339D01*
X117645181Y-88943341D01*
X117645183Y-88943344D01*
X117769154Y-89067315D01*
X117918375Y-89159356D01*
X117918380Y-89159358D01*
X118084802Y-89214505D01*
X118084809Y-89214506D01*
X118187519Y-89224999D01*
X118324999Y-89224999D01*
X118825000Y-89224999D01*
X118962472Y-89224999D01*
X118962486Y-89224998D01*
X119065197Y-89214505D01*
X119231619Y-89159358D01*
X119231624Y-89159356D01*
X119380845Y-89067315D01*
X119504815Y-88943345D01*
X119531559Y-88899986D01*
X123225001Y-88899986D01*
X123235494Y-89002697D01*
X123290641Y-89169119D01*
X123290643Y-89169124D01*
X123382684Y-89318345D01*
X123506654Y-89442315D01*
X123655875Y-89534356D01*
X123655880Y-89534358D01*
X123822302Y-89589505D01*
X123822309Y-89589506D01*
X123925019Y-89599999D01*
X124174999Y-89599999D01*
X124675000Y-89599999D01*
X124924972Y-89599999D01*
X124924986Y-89599998D01*
X125027697Y-89589505D01*
X125194119Y-89534358D01*
X125194124Y-89534356D01*
X125343345Y-89442315D01*
X125467315Y-89318345D01*
X125559356Y-89169124D01*
X125559358Y-89169119D01*
X125614505Y-89002697D01*
X125614506Y-89002690D01*
X125624999Y-88899986D01*
X125625000Y-88899973D01*
X125625000Y-88750000D01*
X124675000Y-88750000D01*
X124675000Y-89599999D01*
X124174999Y-89599999D01*
X124175000Y-89599998D01*
X124175000Y-88750000D01*
X123225001Y-88750000D01*
X123225001Y-88899986D01*
X119531559Y-88899986D01*
X119596856Y-88794124D01*
X119596858Y-88794119D01*
X119641422Y-88659634D01*
X119641422Y-88659633D01*
X119652005Y-88627694D01*
X119652006Y-88627690D01*
X119662499Y-88524986D01*
X119662500Y-88524973D01*
X119662500Y-88250000D01*
X118825000Y-88250000D01*
X118825000Y-89224999D01*
X118324999Y-89224999D01*
X118325000Y-89224998D01*
X118325000Y-87750000D01*
X118825000Y-87750000D01*
X119662499Y-87750000D01*
X119662499Y-87475028D01*
X119662498Y-87475013D01*
X119652005Y-87372302D01*
X119596858Y-87205880D01*
X119596856Y-87205875D01*
X119504815Y-87056654D01*
X119380845Y-86932684D01*
X119231624Y-86840643D01*
X119231619Y-86840641D01*
X119065197Y-86785494D01*
X119065190Y-86785493D01*
X118962486Y-86775000D01*
X118825000Y-86775000D01*
X118825000Y-87750000D01*
X118325000Y-87750000D01*
X118325000Y-86775000D01*
X118187527Y-86775000D01*
X118187512Y-86775001D01*
X118084802Y-86785494D01*
X117918380Y-86840641D01*
X117918375Y-86840643D01*
X117769154Y-86932684D01*
X117645183Y-87056655D01*
X117645179Y-87056660D01*
X117643326Y-87059665D01*
X117641518Y-87061290D01*
X117640702Y-87062323D01*
X117640525Y-87062183D01*
X117591374Y-87106385D01*
X117522411Y-87117601D01*
X117458331Y-87089752D01*
X117432253Y-87059653D01*
X117432237Y-87059628D01*
X117430212Y-87056344D01*
X117306156Y-86932288D01*
X117306155Y-86932287D01*
X117234402Y-86888029D01*
X117187678Y-86836081D01*
X117175500Y-86782491D01*
X117175500Y-86153957D01*
X117195185Y-86086918D01*
X117234407Y-86048416D01*
X117243656Y-86042712D01*
X117367712Y-85918656D01*
X117459814Y-85769334D01*
X117514999Y-85602797D01*
X117525500Y-85500009D01*
X117525499Y-84499992D01*
X117521502Y-84460868D01*
X117514999Y-84397203D01*
X117514998Y-84397200D01*
X117486390Y-84310867D01*
X117459814Y-84230666D01*
X117367712Y-84081344D01*
X117243656Y-83957288D01*
X117243655Y-83957287D01*
X117234402Y-83951580D01*
X117227578Y-83943993D01*
X117218297Y-83939755D01*
X117204609Y-83918456D01*
X117187678Y-83899632D01*
X117185033Y-83887995D01*
X117180523Y-83880977D01*
X117175500Y-83846042D01*
X117175500Y-83653957D01*
X117195185Y-83586918D01*
X117234407Y-83548416D01*
X117243656Y-83542712D01*
X117367712Y-83418656D01*
X117411970Y-83346902D01*
X117419556Y-83340078D01*
X117423795Y-83330797D01*
X117445094Y-83317108D01*
X117463917Y-83300179D01*
X117475552Y-83297534D01*
X117482573Y-83293023D01*
X117517508Y-83288000D01*
X117753752Y-83288000D01*
X117820791Y-83307685D01*
X117851531Y-83338997D01*
X117852807Y-83337989D01*
X117857288Y-83343656D01*
X117981344Y-83467712D01*
X118130666Y-83559814D01*
X118297203Y-83614999D01*
X118399991Y-83625500D01*
X119450008Y-83625499D01*
X119450016Y-83625498D01*
X119450019Y-83625498D01*
X119531025Y-83617223D01*
X119552797Y-83614999D01*
X119719334Y-83559814D01*
X119732134Y-83551919D01*
X119762129Y-83533418D01*
X119829521Y-83514977D01*
X119896185Y-83535899D01*
X119914907Y-83551275D01*
X120638181Y-84274548D01*
X121342049Y-84978416D01*
X121442545Y-85078912D01*
X121446585Y-85082952D01*
X121569498Y-85165080D01*
X121569511Y-85165087D01*
X121706082Y-85221656D01*
X121706087Y-85221658D01*
X121706091Y-85221658D01*
X121706092Y-85221659D01*
X121851079Y-85250500D01*
X121851082Y-85250500D01*
X121851083Y-85250500D01*
X121998917Y-85250500D01*
X123271042Y-85250500D01*
X123338081Y-85270185D01*
X123361659Y-85289856D01*
X123370093Y-85298885D01*
X123382288Y-85318656D01*
X123477455Y-85413823D01*
X123478887Y-85415356D01*
X123493672Y-85444773D01*
X123509436Y-85473642D01*
X123509279Y-85475825D01*
X123510264Y-85477784D01*
X123506799Y-85510507D01*
X123504452Y-85543334D01*
X123503101Y-85545434D01*
X123502908Y-85547266D01*
X123497988Y-85553391D01*
X123475951Y-85587681D01*
X123382289Y-85681342D01*
X123290187Y-85830663D01*
X123290185Y-85830668D01*
X123283126Y-85851971D01*
X123235001Y-85997203D01*
X123235001Y-85997204D01*
X123235000Y-85997204D01*
X123224500Y-86099983D01*
X123224500Y-86900001D01*
X123224501Y-86900019D01*
X123235000Y-87002796D01*
X123235001Y-87002799D01*
X123290185Y-87169331D01*
X123290187Y-87169336D01*
X123312728Y-87205880D01*
X123382286Y-87318653D01*
X123382289Y-87318657D01*
X123476304Y-87412672D01*
X123509789Y-87473995D01*
X123504805Y-87543687D01*
X123476305Y-87588034D01*
X123382682Y-87681657D01*
X123290643Y-87830875D01*
X123290641Y-87830880D01*
X123235494Y-87997302D01*
X123235493Y-87997309D01*
X123225000Y-88100013D01*
X123225000Y-88250000D01*
X125624999Y-88250000D01*
X125624999Y-88100028D01*
X125624998Y-88100013D01*
X125614605Y-87998280D01*
X125554510Y-87823020D01*
X125467315Y-87681654D01*
X125373695Y-87588034D01*
X125340210Y-87526711D01*
X125345194Y-87457019D01*
X125373691Y-87412676D01*
X125467712Y-87318656D01*
X125514961Y-87242051D01*
X125566908Y-87195327D01*
X125635871Y-87184104D01*
X125699953Y-87211947D01*
X125738810Y-87270016D01*
X125744500Y-87307148D01*
X125744500Y-87502352D01*
X125746694Y-87516204D01*
X125776523Y-87704535D01*
X125776523Y-87704538D01*
X125784936Y-87730430D01*
X125784957Y-87730492D01*
X125839780Y-87899219D01*
X125849053Y-87917418D01*
X125849054Y-87917421D01*
X125932715Y-88081613D01*
X126053028Y-88247213D01*
X126197786Y-88391971D01*
X126294566Y-88462284D01*
X126363390Y-88512287D01*
X126434570Y-88548555D01*
X126456080Y-88559515D01*
X126506876Y-88607490D01*
X126523671Y-88675311D01*
X126501134Y-88741446D01*
X126456080Y-88780485D01*
X126363386Y-88827715D01*
X126197786Y-88948028D01*
X126197785Y-88948030D01*
X126053032Y-89092782D01*
X126053028Y-89092786D01*
X125932715Y-89258386D01*
X125839781Y-89440776D01*
X125776522Y-89635465D01*
X125744500Y-89837648D01*
X125744500Y-90042351D01*
X125776522Y-90244534D01*
X125839781Y-90439223D01*
X125932715Y-90621613D01*
X126053028Y-90787213D01*
X126197786Y-90931971D01*
X126294570Y-91002287D01*
X126363390Y-91052287D01*
X126445317Y-91094031D01*
X126456080Y-91099515D01*
X126506876Y-91147490D01*
X126523671Y-91215311D01*
X126501134Y-91281446D01*
X126456080Y-91320485D01*
X126363386Y-91367715D01*
X126197786Y-91488028D01*
X126053028Y-91632786D01*
X125932715Y-91798386D01*
X125839781Y-91980776D01*
X125776522Y-92175465D01*
X125744500Y-92377648D01*
X125744500Y-92582351D01*
X125776522Y-92784534D01*
X125839781Y-92979223D01*
X125885923Y-93069780D01*
X125931338Y-93158912D01*
X125932715Y-93161613D01*
X126053028Y-93327213D01*
X126197786Y-93471971D01*
X126317355Y-93558841D01*
X126363390Y-93592287D01*
X126452655Y-93637770D01*
X126456080Y-93639515D01*
X126506876Y-93687490D01*
X126523671Y-93755311D01*
X126501134Y-93821446D01*
X126456080Y-93860485D01*
X126363386Y-93907715D01*
X126197786Y-94028028D01*
X126053028Y-94172786D01*
X125932715Y-94338386D01*
X125839781Y-94520776D01*
X125776522Y-94715465D01*
X125744500Y-94917648D01*
X125744500Y-95122351D01*
X125776522Y-95324534D01*
X125839781Y-95519223D01*
X125932715Y-95701613D01*
X126053028Y-95867213D01*
X126197786Y-96011971D01*
X126352749Y-96124556D01*
X126363390Y-96132287D01*
X126434570Y-96168555D01*
X126456080Y-96179515D01*
X126506876Y-96227490D01*
X126523671Y-96295311D01*
X126501134Y-96361446D01*
X126456080Y-96400485D01*
X126363386Y-96447715D01*
X126197786Y-96568028D01*
X126053028Y-96712786D01*
X125932715Y-96878386D01*
X125839781Y-97060776D01*
X125776522Y-97255465D01*
X125752419Y-97407648D01*
X125744500Y-97457648D01*
X125744500Y-97662352D01*
X125745606Y-97669334D01*
X125776522Y-97864534D01*
X125839781Y-98059223D01*
X125885763Y-98149466D01*
X125908187Y-98193476D01*
X125932715Y-98241613D01*
X126053028Y-98407213D01*
X126197786Y-98551971D01*
X126294566Y-98622284D01*
X126363390Y-98672287D01*
X126434570Y-98708555D01*
X126456080Y-98719515D01*
X126506876Y-98767490D01*
X126523671Y-98835311D01*
X126501134Y-98901446D01*
X126456080Y-98940485D01*
X126363386Y-98987715D01*
X126197786Y-99108028D01*
X126053028Y-99252786D01*
X125932715Y-99418386D01*
X125839781Y-99600776D01*
X125776522Y-99795465D01*
X125744500Y-99997648D01*
X125744500Y-100202351D01*
X125776522Y-100404534D01*
X125839781Y-100599223D01*
X125900189Y-100717779D01*
X125917382Y-100751522D01*
X125932715Y-100781613D01*
X126053028Y-100947213D01*
X126197786Y-101091971D01*
X126352749Y-101204556D01*
X126363390Y-101212287D01*
X126434570Y-101248555D01*
X126456080Y-101259515D01*
X126506876Y-101307490D01*
X126523671Y-101375311D01*
X126501134Y-101441446D01*
X126456080Y-101480485D01*
X126363386Y-101527715D01*
X126197786Y-101648028D01*
X126053028Y-101792786D01*
X125932715Y-101958386D01*
X125839781Y-102140776D01*
X125776522Y-102335465D01*
X125744500Y-102537648D01*
X125744500Y-102742351D01*
X125776522Y-102944534D01*
X125839781Y-103139223D01*
X125880132Y-103218415D01*
X125927642Y-103311658D01*
X125932715Y-103321613D01*
X126053028Y-103487213D01*
X126197786Y-103631971D01*
X126294570Y-103702287D01*
X126363390Y-103752287D01*
X126445317Y-103794031D01*
X126456080Y-103799515D01*
X126506876Y-103847490D01*
X126523671Y-103915311D01*
X126501134Y-103981446D01*
X126456080Y-104020485D01*
X126363386Y-104067715D01*
X126197786Y-104188028D01*
X126053028Y-104332786D01*
X125932715Y-104498386D01*
X125839781Y-104680776D01*
X125776522Y-104875465D01*
X125744500Y-105077648D01*
X125744500Y-105282351D01*
X125776522Y-105484534D01*
X125839781Y-105679223D01*
X125895977Y-105789511D01*
X125931338Y-105858912D01*
X125932715Y-105861613D01*
X126053028Y-106027213D01*
X126197786Y-106171971D01*
X126317351Y-106258838D01*
X126363390Y-106292287D01*
X126441355Y-106332012D01*
X126456080Y-106339515D01*
X126506876Y-106387490D01*
X126523671Y-106455311D01*
X126501134Y-106521446D01*
X126456080Y-106560485D01*
X126363386Y-106607715D01*
X126197786Y-106728028D01*
X126053032Y-106872782D01*
X126053028Y-106872787D01*
X126019900Y-106918385D01*
X125964571Y-106961051D01*
X125919582Y-106969500D01*
X125623592Y-106969500D01*
X125556553Y-106949815D01*
X125510798Y-106897011D01*
X125504705Y-106878604D01*
X125504629Y-106878630D01*
X125486122Y-106822781D01*
X125447314Y-106705666D01*
X125355212Y-106556344D01*
X125231156Y-106432288D01*
X125135253Y-106373135D01*
X125081836Y-106340187D01*
X125081831Y-106340185D01*
X125079809Y-106339515D01*
X124915297Y-106285001D01*
X124915295Y-106285000D01*
X124812510Y-106274500D01*
X124037498Y-106274500D01*
X124037480Y-106274501D01*
X123934703Y-106285000D01*
X123934700Y-106285001D01*
X123768168Y-106340185D01*
X123768163Y-106340187D01*
X123618842Y-106432289D01*
X123494788Y-106556343D01*
X123494783Y-106556349D01*
X123492741Y-106559661D01*
X123490747Y-106561453D01*
X123490307Y-106562011D01*
X123490211Y-106561935D01*
X123440791Y-106606383D01*
X123371828Y-106617602D01*
X123307747Y-106589755D01*
X123281668Y-106559656D01*
X123279819Y-106556659D01*
X123279816Y-106556655D01*
X123155845Y-106432684D01*
X123006624Y-106340643D01*
X123006619Y-106340641D01*
X122840197Y-106285494D01*
X122840190Y-106285493D01*
X122737486Y-106275000D01*
X122600000Y-106275000D01*
X122600000Y-108645000D01*
X122601181Y-108646181D01*
X122634666Y-108707504D01*
X122637500Y-108733862D01*
X122637500Y-111224999D01*
X122774972Y-111224999D01*
X122774986Y-111224998D01*
X122877697Y-111214505D01*
X123044119Y-111159358D01*
X123044124Y-111159356D01*
X123193345Y-111067315D01*
X123317318Y-110943342D01*
X123319165Y-110940348D01*
X123320969Y-110938724D01*
X123321798Y-110937677D01*
X123321976Y-110937818D01*
X123371110Y-110893621D01*
X123440073Y-110882396D01*
X123504156Y-110910236D01*
X123530243Y-110940341D01*
X123532288Y-110943656D01*
X123656344Y-111067712D01*
X123805666Y-111159814D01*
X123972203Y-111214999D01*
X124074991Y-111225500D01*
X124850008Y-111225499D01*
X124850016Y-111225498D01*
X124850019Y-111225498D01*
X124914540Y-111218907D01*
X124952797Y-111214999D01*
X125119334Y-111159814D01*
X125268656Y-111067712D01*
X125289549Y-111046819D01*
X125350872Y-111013334D01*
X125377230Y-111010500D01*
X125919582Y-111010500D01*
X125986621Y-111030185D01*
X126019900Y-111061615D01*
X126053028Y-111107212D01*
X126053032Y-111107217D01*
X126197786Y-111251971D01*
X126352749Y-111364556D01*
X126363390Y-111372287D01*
X126434570Y-111408555D01*
X126456080Y-111419515D01*
X126506876Y-111467490D01*
X126523671Y-111535311D01*
X126501134Y-111601446D01*
X126456080Y-111640485D01*
X126363386Y-111687715D01*
X126197786Y-111808028D01*
X126053028Y-111952786D01*
X125932715Y-112118385D01*
X125925883Y-112131795D01*
X125877909Y-112182591D01*
X125815398Y-112199500D01*
X120304500Y-112199500D01*
X120237461Y-112179815D01*
X120191706Y-112127011D01*
X120180500Y-112075500D01*
X120180500Y-111300002D01*
X120180499Y-111299978D01*
X120174076Y-111219669D01*
X120174075Y-111219666D01*
X120174075Y-111219662D01*
X120154709Y-111157584D01*
X120131226Y-111082310D01*
X120131224Y-111082308D01*
X120051415Y-110962595D01*
X120049457Y-110960955D01*
X119941110Y-110870214D01*
X119941107Y-110870212D01*
X119941105Y-110870211D01*
X119809245Y-110812651D01*
X119666509Y-110794570D01*
X119524454Y-110817438D01*
X119524451Y-110817439D01*
X119394598Y-110879399D01*
X118993783Y-111146609D01*
X118927084Y-111167417D01*
X118859723Y-111148862D01*
X118856217Y-111146609D01*
X118455401Y-110879399D01*
X118384994Y-110840182D01*
X118384987Y-110840179D01*
X118246942Y-110799645D01*
X118246940Y-110799645D01*
X118103060Y-110799645D01*
X118103059Y-110799645D01*
X118004846Y-110828483D01*
X117965019Y-110840178D01*
X117965005Y-110840182D01*
X117843969Y-110917967D01*
X117843965Y-110917971D01*
X117749750Y-111026700D01*
X117749744Y-111026709D01*
X117689976Y-111157580D01*
X117689975Y-111157585D01*
X117669500Y-111299999D01*
X117669500Y-113700021D01*
X117675923Y-113780330D01*
X117675925Y-113780338D01*
X117684787Y-113808745D01*
X117689151Y-113863319D01*
X117669500Y-113999999D01*
X117669500Y-115000002D01*
X117674644Y-115071940D01*
X117715182Y-115209994D01*
X117792967Y-115331030D01*
X117792969Y-115331032D01*
X117901706Y-115425254D01*
X117939143Y-115442351D01*
X118032580Y-115485023D01*
X118032583Y-115485023D01*
X118032584Y-115485024D01*
X118073622Y-115490924D01*
X118137178Y-115519948D01*
X118174953Y-115578726D01*
X118177593Y-115589470D01*
X118203340Y-115718907D01*
X118203343Y-115718917D01*
X118259914Y-115855492D01*
X118292812Y-115904727D01*
X118292813Y-115904730D01*
X118342046Y-115978414D01*
X118342052Y-115978421D01*
X118946584Y-116582952D01*
X118946586Y-116582954D01*
X118976058Y-116602645D01*
X119020270Y-116632186D01*
X119069505Y-116665084D01*
X119069506Y-116665084D01*
X119069507Y-116665085D01*
X119069509Y-116665086D01*
X119156600Y-116701160D01*
X119206087Y-116721658D01*
X119206091Y-116721658D01*
X119206092Y-116721659D01*
X119351079Y-116750500D01*
X119351082Y-116750500D01*
X124998920Y-116750500D01*
X125096462Y-116731096D01*
X125143913Y-116721658D01*
X125280495Y-116665084D01*
X125329729Y-116632186D01*
X125329734Y-116632183D01*
X125362934Y-116610000D01*
X125403416Y-116582952D01*
X125843537Y-116142830D01*
X125904858Y-116109347D01*
X125974549Y-116114331D01*
X126030483Y-116156202D01*
X126031534Y-116157628D01*
X126053028Y-116187212D01*
X126053032Y-116187217D01*
X126197786Y-116331971D01*
X126363385Y-116452284D01*
X126363387Y-116452285D01*
X126363390Y-116452287D01*
X126447651Y-116495220D01*
X126456630Y-116499795D01*
X126507426Y-116547770D01*
X126524221Y-116615591D01*
X126501684Y-116681725D01*
X126456630Y-116720765D01*
X126363644Y-116768143D01*
X126319077Y-116800523D01*
X126319077Y-116800524D01*
X126998554Y-117480000D01*
X126992339Y-117480000D01*
X126890606Y-117507259D01*
X126799394Y-117559920D01*
X126724920Y-117634394D01*
X126672259Y-117725606D01*
X126645000Y-117827339D01*
X126645000Y-117833553D01*
X125965524Y-117154077D01*
X125965523Y-117154077D01*
X125933143Y-117198644D01*
X125840244Y-117380968D01*
X125777009Y-117575582D01*
X125745000Y-117777682D01*
X125745000Y-117982317D01*
X125777009Y-118184417D01*
X125840244Y-118379031D01*
X125933141Y-118561350D01*
X125933147Y-118561359D01*
X125965523Y-118605921D01*
X125965524Y-118605922D01*
X126645000Y-117926446D01*
X126645000Y-117932661D01*
X126672259Y-118034394D01*
X126724920Y-118125606D01*
X126799394Y-118200080D01*
X126890606Y-118252741D01*
X126992339Y-118280000D01*
X126998553Y-118280000D01*
X126319076Y-118959474D01*
X126363652Y-118991861D01*
X126456628Y-119039234D01*
X126507425Y-119087208D01*
X126524220Y-119155029D01*
X126501683Y-119221164D01*
X126456630Y-119260203D01*
X126363388Y-119307713D01*
X126197786Y-119428028D01*
X126053032Y-119572782D01*
X126053028Y-119572787D01*
X125961777Y-119698385D01*
X125906448Y-119741051D01*
X125861459Y-119749500D01*
X125040638Y-119749500D01*
X124973599Y-119729815D01*
X124935099Y-119690597D01*
X124933738Y-119688390D01*
X124867712Y-119581344D01*
X124743656Y-119457288D01*
X124615161Y-119378032D01*
X124594336Y-119365187D01*
X124594331Y-119365185D01*
X124592862Y-119364698D01*
X124427797Y-119310001D01*
X124427795Y-119310000D01*
X124325010Y-119299500D01*
X123524998Y-119299500D01*
X123524980Y-119299501D01*
X123422203Y-119310000D01*
X123422200Y-119310001D01*
X123255668Y-119365185D01*
X123255663Y-119365187D01*
X123106345Y-119457287D01*
X123012327Y-119551305D01*
X122951003Y-119584789D01*
X122881312Y-119579805D01*
X122836965Y-119551304D01*
X122743345Y-119457684D01*
X122594124Y-119365643D01*
X122594119Y-119365641D01*
X122427697Y-119310494D01*
X122427690Y-119310493D01*
X122324986Y-119300000D01*
X122175000Y-119300000D01*
X122175000Y-121699999D01*
X122324972Y-121699999D01*
X122324986Y-121699998D01*
X122427697Y-121689505D01*
X122594119Y-121634358D01*
X122594124Y-121634356D01*
X122743342Y-121542317D01*
X122836964Y-121448695D01*
X122898287Y-121415210D01*
X122967979Y-121420194D01*
X123012327Y-121448695D01*
X123106344Y-121542712D01*
X123255666Y-121634814D01*
X123325018Y-121657795D01*
X123382462Y-121697566D01*
X123409286Y-121762082D01*
X123396971Y-121830858D01*
X123349429Y-121882058D01*
X123286014Y-121899500D01*
X122924998Y-121899500D01*
X122924980Y-121899501D01*
X122822203Y-121910000D01*
X122822200Y-121910001D01*
X122655668Y-121965185D01*
X122655663Y-121965187D01*
X122506342Y-122057289D01*
X122382289Y-122181342D01*
X122290187Y-122330663D01*
X122290186Y-122330666D01*
X122235001Y-122497203D01*
X122235001Y-122497204D01*
X122235000Y-122497204D01*
X122224500Y-122599983D01*
X122224500Y-123400001D01*
X122224501Y-123400019D01*
X122235000Y-123502796D01*
X122235001Y-123502799D01*
X122268001Y-123602384D01*
X122290186Y-123669334D01*
X122382287Y-123818655D01*
X122382289Y-123818657D01*
X122475951Y-123912319D01*
X122509436Y-123973642D01*
X122504452Y-124043334D01*
X122475951Y-124087681D01*
X122382289Y-124181342D01*
X122290187Y-124330663D01*
X122290186Y-124330666D01*
X122235001Y-124497203D01*
X122235001Y-124497204D01*
X122235000Y-124497204D01*
X122224500Y-124599983D01*
X122224500Y-125400001D01*
X122224501Y-125400019D01*
X122235000Y-125502796D01*
X122235001Y-125502799D01*
X122290185Y-125669331D01*
X122290187Y-125669336D01*
X122323540Y-125723409D01*
X122382288Y-125818656D01*
X122506344Y-125942712D01*
X122655666Y-126034814D01*
X122822203Y-126089999D01*
X122924991Y-126100500D01*
X123925008Y-126100499D01*
X123925016Y-126100498D01*
X123925019Y-126100498D01*
X123981302Y-126094748D01*
X124027797Y-126089999D01*
X124194334Y-126034814D01*
X124343656Y-125942712D01*
X124467712Y-125818656D01*
X124473420Y-125809402D01*
X124525368Y-125762678D01*
X124578958Y-125750500D01*
X125498919Y-125750500D01*
X125524409Y-125745429D01*
X125635108Y-125723409D01*
X125704698Y-125729636D01*
X125759876Y-125772498D01*
X125777228Y-125806704D01*
X125839780Y-125999219D01*
X125891385Y-126100500D01*
X125932715Y-126181613D01*
X126053028Y-126347213D01*
X126197786Y-126491971D01*
X126352749Y-126604556D01*
X126363390Y-126612287D01*
X126465134Y-126664128D01*
X126545776Y-126705218D01*
X126545778Y-126705218D01*
X126545781Y-126705220D01*
X126608046Y-126725451D01*
X126740465Y-126768477D01*
X126841557Y-126784488D01*
X126942648Y-126800500D01*
X126942649Y-126800500D01*
X127147351Y-126800500D01*
X127147352Y-126800500D01*
X127349534Y-126768477D01*
X127544219Y-126705220D01*
X127726610Y-126612287D01*
X127819590Y-126544732D01*
X127892213Y-126491971D01*
X127892215Y-126491968D01*
X127892219Y-126491966D01*
X128036966Y-126347219D01*
X128036968Y-126347215D01*
X128036971Y-126347213D01*
X128089732Y-126274590D01*
X128157287Y-126181610D01*
X128250220Y-125999219D01*
X128313477Y-125804534D01*
X128345500Y-125602352D01*
X128345500Y-125397648D01*
X128313477Y-125195466D01*
X128298315Y-125148802D01*
X128296320Y-125078960D01*
X128332400Y-125019127D01*
X128395101Y-124988299D01*
X128416246Y-124986483D01*
X128837937Y-124986483D01*
X128935479Y-124967079D01*
X128982930Y-124957641D01*
X129119512Y-124901067D01*
X129168746Y-124868169D01*
X129242433Y-124818935D01*
X130537819Y-123523549D01*
X130599142Y-123490064D01*
X130668834Y-123495048D01*
X130724767Y-123536920D01*
X130749184Y-123602384D01*
X130749500Y-123611230D01*
X130749500Y-129637770D01*
X130729815Y-129704809D01*
X130713181Y-129725451D01*
X128725451Y-131713181D01*
X128664128Y-131746666D01*
X128637770Y-131749500D01*
X125372631Y-131749500D01*
X125305592Y-131729815D01*
X125272313Y-131698386D01*
X125144517Y-131522490D01*
X124977510Y-131355483D01*
X124786433Y-131216657D01*
X124575996Y-131109433D01*
X124351368Y-131036446D01*
X124118097Y-130999500D01*
X124118092Y-130999500D01*
X123881908Y-130999500D01*
X123881903Y-130999500D01*
X123648631Y-131036446D01*
X123424003Y-131109433D01*
X123213566Y-131216657D01*
X123104550Y-131295862D01*
X123022490Y-131355483D01*
X123022488Y-131355485D01*
X123022487Y-131355485D01*
X122855485Y-131522487D01*
X122855485Y-131522488D01*
X122855483Y-131522490D01*
X122727687Y-131698386D01*
X122672357Y-131741051D01*
X122627369Y-131749500D01*
X118872631Y-131749500D01*
X118805592Y-131729815D01*
X118772313Y-131698386D01*
X118644517Y-131522490D01*
X118477510Y-131355483D01*
X118286433Y-131216657D01*
X118075996Y-131109433D01*
X117851368Y-131036446D01*
X117618097Y-130999500D01*
X117618092Y-130999500D01*
X117381908Y-130999500D01*
X117381903Y-130999500D01*
X117148631Y-131036446D01*
X116924003Y-131109433D01*
X116713566Y-131216657D01*
X116604550Y-131295862D01*
X116522490Y-131355483D01*
X116522488Y-131355485D01*
X116522487Y-131355485D01*
X116355485Y-131522487D01*
X116355485Y-131522488D01*
X116355483Y-131522490D01*
X116295862Y-131604550D01*
X116216657Y-131713566D01*
X116109433Y-131924003D01*
X116036446Y-132148631D01*
X115999500Y-132381902D01*
X115999500Y-132618097D01*
X116036446Y-132851368D01*
X116109433Y-133075996D01*
X116183653Y-133221659D01*
X116216657Y-133286433D01*
X116355483Y-133477510D01*
X116522490Y-133644517D01*
X116713567Y-133783343D01*
X116812991Y-133834002D01*
X116924003Y-133890566D01*
X116924005Y-133890566D01*
X116924008Y-133890568D01*
X117044412Y-133929689D01*
X117148631Y-133963553D01*
X117381903Y-134000500D01*
X117381908Y-134000500D01*
X117618097Y-134000500D01*
X117851368Y-133963553D01*
X118075992Y-133890568D01*
X118286433Y-133783343D01*
X118477510Y-133644517D01*
X118644517Y-133477510D01*
X118772313Y-133301613D01*
X118827643Y-133258949D01*
X118872631Y-133250500D01*
X122627369Y-133250500D01*
X122694408Y-133270185D01*
X122727685Y-133301613D01*
X122855483Y-133477510D01*
X123022490Y-133644517D01*
X123213567Y-133783343D01*
X123312991Y-133834002D01*
X123424003Y-133890566D01*
X123424005Y-133890566D01*
X123424008Y-133890568D01*
X123544412Y-133929689D01*
X123648631Y-133963553D01*
X123881903Y-134000500D01*
X123881908Y-134000500D01*
X124118097Y-134000500D01*
X124351368Y-133963553D01*
X124575992Y-133890568D01*
X124786433Y-133783343D01*
X124977510Y-133644517D01*
X125144517Y-133477510D01*
X125272313Y-133301613D01*
X125327643Y-133258949D01*
X125372631Y-133250500D01*
X129073920Y-133250500D01*
X129171462Y-133231096D01*
X129218913Y-133221658D01*
X129355495Y-133165084D01*
X129404729Y-133132186D01*
X129404734Y-133132183D01*
X129429071Y-133115921D01*
X129478416Y-133082952D01*
X132082952Y-130478416D01*
X132132186Y-130404729D01*
X132132823Y-130403774D01*
X132186430Y-130358967D01*
X132255754Y-130350254D01*
X132318784Y-130380403D01*
X132323610Y-130384978D01*
X135021586Y-133082954D01*
X135051058Y-133102645D01*
X135095270Y-133132186D01*
X135144505Y-133165084D01*
X135144506Y-133165084D01*
X135144507Y-133165085D01*
X135144509Y-133165086D01*
X135281082Y-133221656D01*
X135281087Y-133221658D01*
X135281091Y-133221658D01*
X135281092Y-133221659D01*
X135426079Y-133250500D01*
X135426082Y-133250500D01*
X135426083Y-133250500D01*
X135573917Y-133250500D01*
X144502369Y-133250500D01*
X144569408Y-133270185D01*
X144602685Y-133301613D01*
X144730483Y-133477510D01*
X144897490Y-133644517D01*
X145088567Y-133783343D01*
X145187991Y-133834002D01*
X145299003Y-133890566D01*
X145299005Y-133890566D01*
X145299008Y-133890568D01*
X145419412Y-133929689D01*
X145523631Y-133963553D01*
X145756903Y-134000500D01*
X145756908Y-134000500D01*
X145993097Y-134000500D01*
X146226368Y-133963553D01*
X146450992Y-133890568D01*
X146661433Y-133783343D01*
X146852510Y-133644517D01*
X147019517Y-133477510D01*
X147147313Y-133301613D01*
X147202643Y-133258949D01*
X147247631Y-133250500D01*
X151002369Y-133250500D01*
X151069408Y-133270185D01*
X151102685Y-133301613D01*
X151230483Y-133477510D01*
X151397490Y-133644517D01*
X151588567Y-133783343D01*
X151687991Y-133834002D01*
X151799003Y-133890566D01*
X151799005Y-133890566D01*
X151799008Y-133890568D01*
X151919412Y-133929689D01*
X152023631Y-133963553D01*
X152256903Y-134000500D01*
X152256908Y-134000500D01*
X152493097Y-134000500D01*
X152726368Y-133963553D01*
X152950992Y-133890568D01*
X153161433Y-133783343D01*
X153352510Y-133644517D01*
X153519517Y-133477510D01*
X153658343Y-133286433D01*
X153765568Y-133075992D01*
X153838553Y-132851368D01*
X153875500Y-132618097D01*
X153875500Y-132381902D01*
X153838553Y-132148631D01*
X153765566Y-131924003D01*
X153709002Y-131812991D01*
X153658343Y-131713567D01*
X153519517Y-131522490D01*
X153352510Y-131355483D01*
X153161433Y-131216657D01*
X152950996Y-131109433D01*
X152726368Y-131036446D01*
X152493097Y-130999500D01*
X152493092Y-130999500D01*
X152256908Y-130999500D01*
X152256903Y-130999500D01*
X152023631Y-131036446D01*
X151799003Y-131109433D01*
X151588566Y-131216657D01*
X151479550Y-131295862D01*
X151397490Y-131355483D01*
X151397488Y-131355485D01*
X151397487Y-131355485D01*
X151230485Y-131522487D01*
X151230485Y-131522488D01*
X151230483Y-131522490D01*
X151102687Y-131698386D01*
X151047357Y-131741051D01*
X151002369Y-131749500D01*
X147247631Y-131749500D01*
X147180592Y-131729815D01*
X147147313Y-131698386D01*
X147019517Y-131522490D01*
X146852510Y-131355483D01*
X146661433Y-131216657D01*
X146450996Y-131109433D01*
X146226368Y-131036446D01*
X145993097Y-130999500D01*
X145993092Y-130999500D01*
X145756908Y-130999500D01*
X145756903Y-130999500D01*
X145523631Y-131036446D01*
X145299003Y-131109433D01*
X145088566Y-131216657D01*
X144979550Y-131295862D01*
X144897490Y-131355483D01*
X144897488Y-131355485D01*
X144897487Y-131355485D01*
X144730485Y-131522487D01*
X144730485Y-131522488D01*
X144730483Y-131522490D01*
X144602687Y-131698386D01*
X144547357Y-131741051D01*
X144502369Y-131749500D01*
X135862230Y-131749500D01*
X135795191Y-131729815D01*
X135774549Y-131713181D01*
X133486819Y-129425451D01*
X133453334Y-129364128D01*
X133450500Y-129337770D01*
X133450500Y-116164500D01*
X133470185Y-116097461D01*
X133522989Y-116051706D01*
X133574500Y-116040500D01*
X134594582Y-116040500D01*
X134661621Y-116060185D01*
X134694900Y-116091615D01*
X134728028Y-116137212D01*
X134728032Y-116137217D01*
X134872786Y-116281971D01*
X135038388Y-116402286D01*
X135038390Y-116402287D01*
X135124294Y-116446057D01*
X135175090Y-116494031D01*
X135191886Y-116561852D01*
X135169349Y-116627987D01*
X135126455Y-116665899D01*
X135060494Y-116701157D01*
X135060489Y-116701160D01*
X134991086Y-116747532D01*
X134991085Y-116747533D01*
X135590590Y-117347037D01*
X135527007Y-117364075D01*
X135412993Y-117429901D01*
X135319901Y-117522993D01*
X135254075Y-117637007D01*
X135237037Y-117700589D01*
X134637533Y-117101085D01*
X134637532Y-117101086D01*
X134591161Y-117170488D01*
X134544490Y-117257801D01*
X134484185Y-117403387D01*
X134455444Y-117498135D01*
X134424701Y-117652697D01*
X134424701Y-117652700D01*
X134415000Y-117751210D01*
X134415000Y-117908789D01*
X134424701Y-118007299D01*
X134424701Y-118007302D01*
X134455444Y-118161864D01*
X134484185Y-118256612D01*
X134544490Y-118402198D01*
X134591158Y-118489506D01*
X134637533Y-118558912D01*
X134637534Y-118558913D01*
X135237037Y-117959409D01*
X135254075Y-118022993D01*
X135319901Y-118137007D01*
X135412993Y-118230099D01*
X135527007Y-118295925D01*
X135590590Y-118312962D01*
X134991085Y-118912465D01*
X135060493Y-118958841D01*
X135126454Y-118994099D01*
X135176298Y-119043062D01*
X135191758Y-119111200D01*
X135167926Y-119176879D01*
X135124295Y-119213942D01*
X135038386Y-119257715D01*
X134872786Y-119378028D01*
X134728028Y-119522786D01*
X134607715Y-119688386D01*
X134514781Y-119870776D01*
X134451522Y-120065465D01*
X134419500Y-120267648D01*
X134419500Y-120472351D01*
X134451522Y-120674534D01*
X134514781Y-120869223D01*
X134557443Y-120952950D01*
X134582921Y-121002954D01*
X134607715Y-121051613D01*
X134728028Y-121217213D01*
X134872786Y-121361971D01*
X134992154Y-121448695D01*
X135038390Y-121482287D01*
X135129840Y-121528883D01*
X135131080Y-121529515D01*
X135181876Y-121577490D01*
X135198671Y-121645311D01*
X135176134Y-121711446D01*
X135131080Y-121750485D01*
X135038386Y-121797715D01*
X134872786Y-121918028D01*
X134728028Y-122062786D01*
X134607715Y-122228386D01*
X134514781Y-122410776D01*
X134451522Y-122605465D01*
X134419500Y-122807648D01*
X134419500Y-123012351D01*
X134451522Y-123214534D01*
X134514781Y-123409223D01*
X134607715Y-123591613D01*
X134725818Y-123754170D01*
X134749298Y-123819977D01*
X134749500Y-123827055D01*
X134749500Y-127073918D01*
X134749500Y-127073920D01*
X134749499Y-127073920D01*
X134778340Y-127218907D01*
X134778343Y-127218917D01*
X134834914Y-127355492D01*
X134867812Y-127404727D01*
X134867813Y-127404730D01*
X134917046Y-127478414D01*
X134917052Y-127478421D01*
X135306444Y-127867812D01*
X136417048Y-128978415D01*
X136417049Y-128978416D01*
X136521584Y-129082951D01*
X136521585Y-129082952D01*
X136644498Y-129165080D01*
X136644511Y-129165087D01*
X136781082Y-129221656D01*
X136781087Y-129221658D01*
X136781091Y-129221658D01*
X136781092Y-129221659D01*
X136926079Y-129250500D01*
X136926082Y-129250500D01*
X166637770Y-129250500D01*
X166704809Y-129270185D01*
X166725451Y-129286819D01*
X170521580Y-133082948D01*
X170521584Y-133082951D01*
X170644498Y-133165080D01*
X170644511Y-133165087D01*
X170781082Y-133221656D01*
X170781087Y-133221658D01*
X170781091Y-133221658D01*
X170781092Y-133221659D01*
X170926079Y-133250500D01*
X170926082Y-133250500D01*
X171073917Y-133250500D01*
X172877369Y-133250500D01*
X172944408Y-133270185D01*
X172977685Y-133301613D01*
X173105483Y-133477510D01*
X173272490Y-133644517D01*
X173463567Y-133783343D01*
X173562991Y-133834002D01*
X173674003Y-133890566D01*
X173674005Y-133890566D01*
X173674008Y-133890568D01*
X173794412Y-133929689D01*
X173898631Y-133963553D01*
X174131903Y-134000500D01*
X174131908Y-134000500D01*
X174368097Y-134000500D01*
X174601368Y-133963553D01*
X174825992Y-133890568D01*
X175036433Y-133783343D01*
X175227510Y-133644517D01*
X175394517Y-133477510D01*
X175522313Y-133301613D01*
X175577643Y-133258949D01*
X175622631Y-133250500D01*
X179377369Y-133250500D01*
X179444408Y-133270185D01*
X179477685Y-133301613D01*
X179605483Y-133477510D01*
X179772490Y-133644517D01*
X179963567Y-133783343D01*
X180062991Y-133834002D01*
X180174003Y-133890566D01*
X180174005Y-133890566D01*
X180174008Y-133890568D01*
X180294412Y-133929689D01*
X180398631Y-133963553D01*
X180631903Y-134000500D01*
X180631908Y-134000500D01*
X180868097Y-134000500D01*
X181101368Y-133963553D01*
X181325992Y-133890568D01*
X181536433Y-133783343D01*
X181727510Y-133644517D01*
X181894517Y-133477510D01*
X182033343Y-133286433D01*
X182140568Y-133075992D01*
X182213553Y-132851368D01*
X182250500Y-132618097D01*
X182250500Y-132381902D01*
X182213553Y-132148631D01*
X182140566Y-131924003D01*
X182084002Y-131812991D01*
X182033343Y-131713567D01*
X181894517Y-131522490D01*
X181727510Y-131355483D01*
X181536433Y-131216657D01*
X181325996Y-131109433D01*
X181101368Y-131036446D01*
X180868097Y-130999500D01*
X180868092Y-130999500D01*
X180631908Y-130999500D01*
X180631903Y-130999500D01*
X180398631Y-131036446D01*
X180174003Y-131109433D01*
X179963566Y-131216657D01*
X179854550Y-131295862D01*
X179772490Y-131355483D01*
X179772488Y-131355485D01*
X179772487Y-131355485D01*
X179605485Y-131522487D01*
X179605485Y-131522488D01*
X179605483Y-131522490D01*
X179477687Y-131698386D01*
X179422357Y-131741051D01*
X179377369Y-131749500D01*
X175622631Y-131749500D01*
X175555592Y-131729815D01*
X175522313Y-131698386D01*
X175394517Y-131522490D01*
X175227510Y-131355483D01*
X175036433Y-131216657D01*
X174825996Y-131109433D01*
X174601368Y-131036446D01*
X174368097Y-130999500D01*
X174368092Y-130999500D01*
X174131908Y-130999500D01*
X174131903Y-130999500D01*
X173898631Y-131036446D01*
X173674003Y-131109433D01*
X173463566Y-131216657D01*
X173354550Y-131295862D01*
X173272490Y-131355483D01*
X173272488Y-131355485D01*
X173272487Y-131355485D01*
X173105485Y-131522487D01*
X173105485Y-131522488D01*
X173105483Y-131522490D01*
X172977687Y-131698386D01*
X172922357Y-131741051D01*
X172877369Y-131749500D01*
X171362229Y-131749500D01*
X171295190Y-131729815D01*
X171274548Y-131713181D01*
X167478421Y-127917052D01*
X167478414Y-127917046D01*
X167404729Y-127867812D01*
X167404729Y-127867813D01*
X167355491Y-127834913D01*
X167218917Y-127778343D01*
X167218907Y-127778340D01*
X167073920Y-127749500D01*
X167073918Y-127749500D01*
X137362229Y-127749500D01*
X137295190Y-127729815D01*
X137274548Y-127713181D01*
X136286819Y-126725451D01*
X136253334Y-126664128D01*
X136250500Y-126637770D01*
X136250500Y-124175268D01*
X136270185Y-124108229D01*
X136318206Y-124064783D01*
X136336963Y-124055226D01*
X136401610Y-124022287D01*
X136468565Y-123973642D01*
X136567213Y-123901971D01*
X136567215Y-123901968D01*
X136567219Y-123901966D01*
X136711966Y-123757219D01*
X136711968Y-123757215D01*
X136711971Y-123757213D01*
X136795960Y-123641610D01*
X136832287Y-123591610D01*
X136925220Y-123409219D01*
X136988477Y-123214534D01*
X137020500Y-123012352D01*
X137020500Y-122807648D01*
X136988477Y-122605466D01*
X136986695Y-122599983D01*
X136959127Y-122515137D01*
X136925220Y-122410781D01*
X136925218Y-122410778D01*
X136925218Y-122410776D01*
X136857761Y-122278386D01*
X136832287Y-122228390D01*
X136803765Y-122189132D01*
X136711971Y-122062786D01*
X136567213Y-121918028D01*
X136401614Y-121797715D01*
X136331680Y-121762082D01*
X136308917Y-121750483D01*
X136258123Y-121702511D01*
X136241328Y-121634690D01*
X136263865Y-121568555D01*
X136308917Y-121529516D01*
X136401610Y-121482287D01*
X136447846Y-121448695D01*
X136567213Y-121361971D01*
X136567215Y-121361968D01*
X136567219Y-121361966D01*
X136711966Y-121217219D01*
X136711968Y-121217215D01*
X136711971Y-121217213D01*
X136782236Y-121120500D01*
X136832287Y-121051610D01*
X136925220Y-120869219D01*
X136988477Y-120674534D01*
X137020500Y-120472352D01*
X137020500Y-120267648D01*
X136988477Y-120065466D01*
X136978637Y-120035183D01*
X136925218Y-119870776D01*
X136857761Y-119738386D01*
X136832287Y-119688390D01*
X136780177Y-119616666D01*
X136711971Y-119522786D01*
X136567217Y-119378032D01*
X136490415Y-119322232D01*
X136447750Y-119266902D01*
X136441771Y-119197288D01*
X136474377Y-119135494D01*
X136532640Y-119101765D01*
X136553022Y-119096563D01*
X136553035Y-119096559D01*
X136609582Y-119073135D01*
X135849409Y-118312962D01*
X135912993Y-118295925D01*
X136027007Y-118230099D01*
X136120099Y-118137007D01*
X136185925Y-118022993D01*
X136202962Y-117959409D01*
X136963135Y-118719582D01*
X136963137Y-118719582D01*
X136986552Y-118663053D01*
X137004544Y-118612053D01*
X137024999Y-118469780D01*
X137025000Y-118469779D01*
X137025000Y-117190224D01*
X137024999Y-117190204D01*
X137022106Y-117136237D01*
X137022106Y-117136235D01*
X136986558Y-116996960D01*
X136963136Y-116940415D01*
X136963135Y-116940415D01*
X136202962Y-117700589D01*
X136185925Y-117637007D01*
X136120099Y-117522993D01*
X136027007Y-117429901D01*
X135912993Y-117364075D01*
X135849410Y-117347037D01*
X136609583Y-116586863D01*
X136609583Y-116586862D01*
X136553052Y-116563447D01*
X136553013Y-116563432D01*
X136524375Y-116553329D01*
X136467704Y-116512463D01*
X136442122Y-116447444D01*
X136455754Y-116378917D01*
X136492745Y-116336074D01*
X136567215Y-116281969D01*
X136567215Y-116281968D01*
X136567219Y-116281966D01*
X136711966Y-116137219D01*
X136711968Y-116137215D01*
X136711971Y-116137213D01*
X136795960Y-116021610D01*
X136832287Y-115971610D01*
X136925220Y-115789219D01*
X136988477Y-115594534D01*
X137020500Y-115392352D01*
X137020500Y-115187648D01*
X136988477Y-114985466D01*
X136963484Y-114908547D01*
X136925218Y-114790776D01*
X136866185Y-114674919D01*
X136832287Y-114608390D01*
X136812424Y-114581051D01*
X136711971Y-114442786D01*
X136567213Y-114298028D01*
X136401614Y-114177715D01*
X136395006Y-114174348D01*
X136308917Y-114130483D01*
X136258123Y-114082511D01*
X136241328Y-114014690D01*
X136263865Y-113948555D01*
X136308917Y-113909516D01*
X136401610Y-113862287D01*
X136475305Y-113808745D01*
X136567213Y-113741971D01*
X136567215Y-113741968D01*
X136567219Y-113741966D01*
X136711966Y-113597219D01*
X136711968Y-113597215D01*
X136711971Y-113597213D01*
X136795960Y-113481610D01*
X136832287Y-113431610D01*
X136925220Y-113249219D01*
X136988477Y-113054534D01*
X137020500Y-112852352D01*
X137020500Y-112647648D01*
X136988477Y-112445466D01*
X136925220Y-112250781D01*
X136925218Y-112250778D01*
X136925218Y-112250776D01*
X136889061Y-112179815D01*
X136832287Y-112068390D01*
X136780177Y-111996666D01*
X136711971Y-111902786D01*
X136567213Y-111758028D01*
X136401614Y-111637715D01*
X136395006Y-111634348D01*
X136308917Y-111590483D01*
X136258123Y-111542511D01*
X136241328Y-111474690D01*
X136263865Y-111408555D01*
X136308917Y-111369516D01*
X136401610Y-111322287D01*
X136432316Y-111299978D01*
X136567213Y-111201971D01*
X136567215Y-111201968D01*
X136567219Y-111201966D01*
X136711966Y-111057219D01*
X136711968Y-111057215D01*
X136711971Y-111057213D01*
X136794473Y-110943657D01*
X136832287Y-110891610D01*
X136925220Y-110709219D01*
X136988477Y-110514534D01*
X137020500Y-110312352D01*
X137020500Y-110107648D01*
X136988477Y-109905466D01*
X136925220Y-109710781D01*
X136925218Y-109710778D01*
X136925218Y-109710776D01*
X136848666Y-109560536D01*
X136832287Y-109528390D01*
X136804261Y-109489815D01*
X136711971Y-109362786D01*
X136567213Y-109218028D01*
X136401614Y-109097715D01*
X136386612Y-109090071D01*
X136308917Y-109050483D01*
X136258123Y-109002511D01*
X136241328Y-108934690D01*
X136263865Y-108868555D01*
X136308917Y-108829516D01*
X136401610Y-108782287D01*
X136483127Y-108723062D01*
X136567213Y-108661971D01*
X136567215Y-108661968D01*
X136567219Y-108661966D01*
X136711966Y-108517219D01*
X136711968Y-108517215D01*
X136711971Y-108517213D01*
X136801764Y-108393621D01*
X136832287Y-108351610D01*
X136925220Y-108169219D01*
X136988477Y-107974534D01*
X137020500Y-107772352D01*
X137020500Y-107567648D01*
X136988477Y-107365466D01*
X136966812Y-107298790D01*
X136964818Y-107228951D01*
X137000898Y-107169118D01*
X137063598Y-107138289D01*
X137084744Y-107136473D01*
X140687947Y-107136473D01*
X140785489Y-107117069D01*
X140832940Y-107107631D01*
X140969522Y-107051057D01*
X141048416Y-106998342D01*
X141092443Y-106968925D01*
X144582952Y-103478416D01*
X144641694Y-103390500D01*
X144665084Y-103355495D01*
X144721658Y-103218913D01*
X144747456Y-103089223D01*
X144750500Y-103073920D01*
X144750500Y-84512229D01*
X144770185Y-84445190D01*
X144786814Y-84424553D01*
X151989068Y-77222298D01*
X152050389Y-77188815D01*
X152120081Y-77193799D01*
X152176014Y-77235671D01*
X152199220Y-77290583D01*
X152231522Y-77494534D01*
X152294781Y-77689223D01*
X152387715Y-77871613D01*
X152508028Y-78037213D01*
X152652782Y-78181967D01*
X152652787Y-78181971D01*
X152729583Y-78237767D01*
X152772249Y-78293097D01*
X152778228Y-78362710D01*
X152745622Y-78424505D01*
X152687365Y-78458233D01*
X152666967Y-78463439D01*
X152666956Y-78463442D01*
X152610415Y-78486862D01*
X153370590Y-79247037D01*
X153307007Y-79264075D01*
X153192993Y-79329901D01*
X153099901Y-79422993D01*
X153034075Y-79537007D01*
X153017037Y-79600590D01*
X152256862Y-78840415D01*
X152233449Y-78896940D01*
X152215455Y-78947946D01*
X152195000Y-79090219D01*
X152195000Y-80369785D01*
X152197893Y-80423762D01*
X152197893Y-80423764D01*
X152233438Y-80563030D01*
X152233440Y-80563037D01*
X152256863Y-80619583D01*
X153017037Y-79859409D01*
X153034075Y-79922993D01*
X153099901Y-80037007D01*
X153192993Y-80130099D01*
X153307007Y-80195925D01*
X153370590Y-80212962D01*
X152610415Y-80973135D01*
X152610415Y-80973136D01*
X152666954Y-80996556D01*
X152666961Y-80996558D01*
X152695621Y-81006669D01*
X152752294Y-81047534D01*
X152777876Y-81112552D01*
X152764246Y-81181080D01*
X152727256Y-81223924D01*
X152652782Y-81278032D01*
X152508028Y-81422786D01*
X152387715Y-81588386D01*
X152294781Y-81770776D01*
X152231522Y-81965465D01*
X152199500Y-82167648D01*
X152199500Y-82372351D01*
X152231522Y-82574534D01*
X152294781Y-82769223D01*
X152387715Y-82951613D01*
X152508028Y-83117213D01*
X152652786Y-83261971D01*
X152807749Y-83374556D01*
X152818390Y-83382287D01*
X152909840Y-83428883D01*
X152911080Y-83429515D01*
X152961876Y-83477490D01*
X152978671Y-83545311D01*
X152956134Y-83611446D01*
X152911080Y-83650485D01*
X152818386Y-83697715D01*
X152652786Y-83818028D01*
X152508032Y-83962782D01*
X152508028Y-83962787D01*
X152474900Y-84008385D01*
X152419571Y-84051051D01*
X152374582Y-84059500D01*
X149616076Y-84059500D01*
X149587242Y-84065234D01*
X149587243Y-84065235D01*
X149471093Y-84088339D01*
X149471083Y-84088342D01*
X149391081Y-84121479D01*
X149391082Y-84121480D01*
X149334504Y-84144916D01*
X149334503Y-84144916D01*
X149311127Y-84160536D01*
X149211585Y-84227046D01*
X149211578Y-84227052D01*
X146917050Y-86521580D01*
X146917044Y-86521588D01*
X146867812Y-86595268D01*
X146867813Y-86595269D01*
X146834921Y-86644496D01*
X146834914Y-86644508D01*
X146778342Y-86781086D01*
X146778340Y-86781092D01*
X146749500Y-86926079D01*
X146749500Y-93884362D01*
X146729815Y-93951401D01*
X146690598Y-93989899D01*
X146651044Y-94014297D01*
X146581342Y-94057289D01*
X146457289Y-94181342D01*
X146365187Y-94330663D01*
X146365185Y-94330668D01*
X146346144Y-94388132D01*
X146310001Y-94497203D01*
X146310001Y-94497204D01*
X146310000Y-94497204D01*
X146299500Y-94599983D01*
X146299500Y-95400001D01*
X146299501Y-95400019D01*
X146310000Y-95502796D01*
X146310001Y-95502799D01*
X146365185Y-95669331D01*
X146365187Y-95669336D01*
X146374902Y-95685086D01*
X146456400Y-95817217D01*
X146457289Y-95818657D01*
X146550951Y-95912319D01*
X146584436Y-95973642D01*
X146579452Y-96043334D01*
X146550951Y-96087681D01*
X146457289Y-96181342D01*
X146365187Y-96330663D01*
X146365185Y-96330668D01*
X146357947Y-96352511D01*
X146310001Y-96497203D01*
X146310001Y-96497204D01*
X146310000Y-96497204D01*
X146299500Y-96599983D01*
X146299500Y-97400001D01*
X146299501Y-97400019D01*
X146310000Y-97502796D01*
X146310001Y-97502799D01*
X146346304Y-97612352D01*
X146365186Y-97669334D01*
X146457288Y-97818656D01*
X146581344Y-97942712D01*
X146690597Y-98010099D01*
X146737321Y-98062047D01*
X146749500Y-98115638D01*
X146749500Y-111073918D01*
X146749500Y-111073920D01*
X146749499Y-111073920D01*
X146778340Y-111218907D01*
X146778343Y-111218917D01*
X146834913Y-111355489D01*
X146834914Y-111355491D01*
X146834916Y-111355495D01*
X146846135Y-111372286D01*
X146846136Y-111372289D01*
X146917046Y-111478414D01*
X146917052Y-111478421D01*
X151311580Y-115872948D01*
X151311584Y-115872951D01*
X151434498Y-115955080D01*
X151434511Y-115955087D01*
X151571082Y-116011656D01*
X151571087Y-116011658D01*
X151571091Y-116011658D01*
X151571092Y-116011659D01*
X151716079Y-116040500D01*
X151716082Y-116040500D01*
X151863917Y-116040500D01*
X152374582Y-116040500D01*
X152441621Y-116060185D01*
X152474900Y-116091615D01*
X152508028Y-116137212D01*
X152508032Y-116137217D01*
X152652782Y-116281967D01*
X152652787Y-116281971D01*
X152729583Y-116337767D01*
X152772249Y-116393097D01*
X152778228Y-116462710D01*
X152745622Y-116524505D01*
X152687365Y-116558233D01*
X152666967Y-116563439D01*
X152666956Y-116563442D01*
X152610415Y-116586862D01*
X153370590Y-117347037D01*
X153307007Y-117364075D01*
X153192993Y-117429901D01*
X153099901Y-117522993D01*
X153034075Y-117637007D01*
X153017037Y-117700590D01*
X152256862Y-116940415D01*
X152233449Y-116996940D01*
X152215455Y-117047946D01*
X152195000Y-117190219D01*
X152195000Y-118469785D01*
X152197893Y-118523762D01*
X152197893Y-118523764D01*
X152233438Y-118663030D01*
X152233440Y-118663037D01*
X152256863Y-118719583D01*
X153017037Y-117959409D01*
X153034075Y-118022993D01*
X153099901Y-118137007D01*
X153192993Y-118230099D01*
X153307007Y-118295925D01*
X153370590Y-118312962D01*
X152610415Y-119073135D01*
X152610415Y-119073136D01*
X152666954Y-119096556D01*
X152666961Y-119096558D01*
X152695621Y-119106669D01*
X152752294Y-119147534D01*
X152777876Y-119212552D01*
X152764246Y-119281080D01*
X152727256Y-119323924D01*
X152652782Y-119378032D01*
X152508028Y-119522786D01*
X152387715Y-119688386D01*
X152294781Y-119870776D01*
X152231522Y-120065465D01*
X152199500Y-120267648D01*
X152199500Y-120472351D01*
X152231522Y-120674534D01*
X152294781Y-120869223D01*
X152337443Y-120952950D01*
X152362921Y-121002954D01*
X152387715Y-121051613D01*
X152508028Y-121217213D01*
X152652786Y-121361971D01*
X152772154Y-121448695D01*
X152818390Y-121482287D01*
X152909840Y-121528883D01*
X152911080Y-121529515D01*
X152961876Y-121577490D01*
X152978671Y-121645311D01*
X152956134Y-121711446D01*
X152911080Y-121750485D01*
X152818386Y-121797715D01*
X152652786Y-121918028D01*
X152508028Y-122062786D01*
X152387715Y-122228386D01*
X152294781Y-122410776D01*
X152231522Y-122605465D01*
X152199500Y-122807648D01*
X152199500Y-123012351D01*
X152231522Y-123214534D01*
X152294781Y-123409223D01*
X152387715Y-123591613D01*
X152508028Y-123757213D01*
X152652786Y-123901971D01*
X152751435Y-123973642D01*
X152818390Y-124022287D01*
X152934607Y-124081503D01*
X153000776Y-124115218D01*
X153000778Y-124115218D01*
X153000781Y-124115220D01*
X153105137Y-124149127D01*
X153195465Y-124178477D01*
X153296557Y-124194488D01*
X153397648Y-124210500D01*
X153397649Y-124210500D01*
X153602351Y-124210500D01*
X153602352Y-124210500D01*
X153804534Y-124178477D01*
X153999219Y-124115220D01*
X154181610Y-124022287D01*
X154277342Y-123952734D01*
X154347213Y-123901971D01*
X154347215Y-123901968D01*
X154347219Y-123901966D01*
X154491966Y-123757219D01*
X154496848Y-123750500D01*
X154525100Y-123711615D01*
X154580429Y-123668949D01*
X154625418Y-123660500D01*
X156663920Y-123660500D01*
X156761462Y-123641096D01*
X156808913Y-123631658D01*
X156945495Y-123575084D01*
X156994729Y-123542186D01*
X157002611Y-123536920D01*
X157053681Y-123502797D01*
X157068416Y-123492952D01*
X172217952Y-108343416D01*
X172244983Y-108302960D01*
X172273349Y-108260508D01*
X172273351Y-108260503D01*
X172273357Y-108260495D01*
X172300084Y-108220495D01*
X172356658Y-108083913D01*
X172377543Y-107978920D01*
X172385500Y-107938920D01*
X172385500Y-100588242D01*
X172405185Y-100521203D01*
X172436614Y-100487924D01*
X172514792Y-100431126D01*
X172665104Y-100280814D01*
X172665106Y-100280810D01*
X172665109Y-100280808D01*
X172790048Y-100108842D01*
X172790051Y-100108838D01*
X172794793Y-100099530D01*
X172842763Y-100048733D01*
X172910583Y-100031933D01*
X172976719Y-100054467D01*
X173015763Y-100099522D01*
X173020377Y-100108577D01*
X173145272Y-100280481D01*
X173145276Y-100280486D01*
X173295535Y-100430745D01*
X173295540Y-100430749D01*
X173467442Y-100555642D01*
X173656782Y-100652117D01*
X173858871Y-100717779D01*
X173925000Y-100728253D01*
X173925000Y-99834034D01*
X173982007Y-99866947D01*
X174109174Y-99901022D01*
X174240826Y-99901022D01*
X174367993Y-99866947D01*
X174425000Y-99834034D01*
X174425000Y-100728252D01*
X174491126Y-100717779D01*
X174491129Y-100717779D01*
X174693217Y-100652117D01*
X174882557Y-100555642D01*
X175054458Y-100430750D01*
X175168133Y-100317075D01*
X175229456Y-100283590D01*
X175299148Y-100288574D01*
X175355082Y-100330445D01*
X175371997Y-100361423D01*
X175421202Y-100493350D01*
X175421206Y-100493357D01*
X175507452Y-100608566D01*
X175507455Y-100608569D01*
X175622664Y-100694815D01*
X175622671Y-100694819D01*
X175757517Y-100745113D01*
X175757516Y-100745113D01*
X175764444Y-100745857D01*
X175817127Y-100751522D01*
X177612872Y-100751521D01*
X177672483Y-100745113D01*
X177807331Y-100694818D01*
X177922546Y-100608568D01*
X178008796Y-100493353D01*
X178059091Y-100358505D01*
X178065500Y-100298895D01*
X178065499Y-98503150D01*
X178059091Y-98443539D01*
X178058002Y-98440620D01*
X178008797Y-98308693D01*
X178008793Y-98308686D01*
X177922547Y-98193477D01*
X177922544Y-98193474D01*
X177807335Y-98107228D01*
X177807328Y-98107224D01*
X177672482Y-98056930D01*
X177672483Y-98056930D01*
X177612883Y-98050523D01*
X177612881Y-98050522D01*
X177612873Y-98050522D01*
X177612865Y-98050522D01*
X177589500Y-98050522D01*
X177522461Y-98030837D01*
X177476706Y-97978033D01*
X177465500Y-97926522D01*
X177465500Y-95141079D01*
X177436659Y-94996092D01*
X177436658Y-94996091D01*
X177436658Y-94996087D01*
X177404168Y-94917648D01*
X177380087Y-94859511D01*
X177380085Y-94859507D01*
X177380084Y-94859505D01*
X177341051Y-94801088D01*
X177341050Y-94801086D01*
X177297956Y-94736589D01*
X177297952Y-94736584D01*
X174786819Y-92225451D01*
X174753334Y-92164128D01*
X174750500Y-92137770D01*
X174750500Y-88547844D01*
X175800000Y-88547844D01*
X175806401Y-88607372D01*
X175806403Y-88607379D01*
X175856645Y-88742086D01*
X175856649Y-88742093D01*
X175942809Y-88857187D01*
X175942812Y-88857190D01*
X176057906Y-88943350D01*
X176057913Y-88943354D01*
X176192620Y-88993596D01*
X176192627Y-88993598D01*
X176252155Y-88999999D01*
X176252172Y-89000000D01*
X176850000Y-89000000D01*
X177350000Y-89000000D01*
X177947828Y-89000000D01*
X177947844Y-88999999D01*
X178007372Y-88993598D01*
X178007379Y-88993596D01*
X178142086Y-88943354D01*
X178142093Y-88943350D01*
X178257187Y-88857190D01*
X178257190Y-88857187D01*
X178343350Y-88742093D01*
X178343354Y-88742086D01*
X178393596Y-88607379D01*
X178393598Y-88607372D01*
X178399999Y-88547844D01*
X178400000Y-88547827D01*
X178400000Y-88050000D01*
X177350000Y-88050000D01*
X177350000Y-89000000D01*
X176850000Y-89000000D01*
X176850000Y-88050000D01*
X175800000Y-88050000D01*
X175800000Y-88547844D01*
X174750500Y-88547844D01*
X174750500Y-87052155D01*
X175800000Y-87052155D01*
X175800000Y-87550000D01*
X176850000Y-87550000D01*
X177350000Y-87550000D01*
X178400000Y-87550000D01*
X178400000Y-87052172D01*
X178399999Y-87052155D01*
X178393598Y-86992627D01*
X178393596Y-86992620D01*
X178343354Y-86857913D01*
X178343350Y-86857906D01*
X178257190Y-86742812D01*
X178257187Y-86742809D01*
X178142093Y-86656649D01*
X178142086Y-86656645D01*
X178007379Y-86606403D01*
X178007372Y-86606401D01*
X177947844Y-86600000D01*
X177350000Y-86600000D01*
X177350000Y-87550000D01*
X176850000Y-87550000D01*
X176850000Y-86600000D01*
X176252155Y-86600000D01*
X176192627Y-86606401D01*
X176192620Y-86606403D01*
X176057913Y-86656645D01*
X176057906Y-86656649D01*
X175942812Y-86742809D01*
X175942809Y-86742812D01*
X175856649Y-86857906D01*
X175856645Y-86857913D01*
X175806403Y-86992620D01*
X175806401Y-86992627D01*
X175800000Y-87052155D01*
X174750500Y-87052155D01*
X174750500Y-85426079D01*
X174721659Y-85281092D01*
X174721658Y-85281091D01*
X174721658Y-85281087D01*
X174717142Y-85270185D01*
X174665087Y-85144511D01*
X174665080Y-85144498D01*
X174582952Y-85021585D01*
X174537818Y-84976451D01*
X174478416Y-84917049D01*
X174478415Y-84917048D01*
X174319015Y-84757648D01*
X173788421Y-84227052D01*
X173788414Y-84227046D01*
X173688872Y-84160535D01*
X173688871Y-84160535D01*
X173665495Y-84144916D01*
X173665488Y-84144912D01*
X173528917Y-84088343D01*
X173528907Y-84088340D01*
X173383920Y-84059500D01*
X173383918Y-84059500D01*
X168573918Y-84059500D01*
X154625418Y-84059500D01*
X154558379Y-84039815D01*
X154525100Y-84008385D01*
X154491971Y-83962787D01*
X154491967Y-83962782D01*
X154347213Y-83818028D01*
X154181614Y-83697715D01*
X154166470Y-83689999D01*
X154088917Y-83650483D01*
X154038123Y-83602511D01*
X154021328Y-83534690D01*
X154043865Y-83468555D01*
X154088917Y-83429516D01*
X154181610Y-83382287D01*
X154230312Y-83346903D01*
X154347213Y-83261971D01*
X154347215Y-83261968D01*
X154347219Y-83261966D01*
X154491966Y-83117219D01*
X154491968Y-83117215D01*
X154491971Y-83117213D01*
X154575096Y-83002799D01*
X154612287Y-82951610D01*
X154705220Y-82769219D01*
X154768477Y-82574534D01*
X154800500Y-82372352D01*
X154800500Y-82167648D01*
X154768477Y-81965466D01*
X154705220Y-81770781D01*
X154705218Y-81770778D01*
X154705218Y-81770776D01*
X154659879Y-81681794D01*
X154612287Y-81588390D01*
X154589690Y-81557288D01*
X154491971Y-81422786D01*
X154347213Y-81278028D01*
X154181614Y-81157715D01*
X154110432Y-81121446D01*
X154095703Y-81113941D01*
X154044908Y-81065968D01*
X154028113Y-80998147D01*
X154050650Y-80932012D01*
X154093546Y-80894099D01*
X154159493Y-80858849D01*
X154159511Y-80858838D01*
X154228912Y-80812465D01*
X153629409Y-80212962D01*
X153692993Y-80195925D01*
X153807007Y-80130099D01*
X153900099Y-80037007D01*
X153965925Y-79922993D01*
X153982962Y-79859409D01*
X154582465Y-80458912D01*
X154628838Y-80389511D01*
X154628844Y-80389501D01*
X154675509Y-80302198D01*
X154735814Y-80156612D01*
X154764555Y-80061864D01*
X154795298Y-79907302D01*
X154795298Y-79907299D01*
X154805000Y-79808789D01*
X154805000Y-79651210D01*
X154795298Y-79552700D01*
X154795298Y-79552697D01*
X154764555Y-79398135D01*
X154735814Y-79303387D01*
X154675509Y-79157801D01*
X154670187Y-79147844D01*
X161250000Y-79147844D01*
X161256401Y-79207372D01*
X161256403Y-79207379D01*
X161306645Y-79342086D01*
X161306649Y-79342093D01*
X161392809Y-79457187D01*
X161392812Y-79457190D01*
X161507906Y-79543350D01*
X161507913Y-79543354D01*
X161642620Y-79593596D01*
X161642627Y-79593598D01*
X161702155Y-79599999D01*
X161702172Y-79600000D01*
X162250000Y-79600000D01*
X162750000Y-79600000D01*
X163297828Y-79600000D01*
X163297844Y-79599999D01*
X163357372Y-79593598D01*
X163357379Y-79593596D01*
X163492086Y-79543354D01*
X163492093Y-79543350D01*
X163607187Y-79457190D01*
X163607190Y-79457187D01*
X163693350Y-79342093D01*
X163693354Y-79342086D01*
X163743596Y-79207379D01*
X163743598Y-79207372D01*
X163749999Y-79147844D01*
X176750000Y-79147844D01*
X176756401Y-79207372D01*
X176756403Y-79207379D01*
X176806645Y-79342086D01*
X176806649Y-79342093D01*
X176892809Y-79457187D01*
X176892812Y-79457190D01*
X177007906Y-79543350D01*
X177007913Y-79543354D01*
X177142620Y-79593596D01*
X177142627Y-79593598D01*
X177202155Y-79599999D01*
X177202172Y-79600000D01*
X177750000Y-79600000D01*
X178250000Y-79600000D01*
X178797828Y-79600000D01*
X178797844Y-79599999D01*
X178857372Y-79593598D01*
X178857379Y-79593596D01*
X178992086Y-79543354D01*
X178992093Y-79543350D01*
X179107187Y-79457190D01*
X179107190Y-79457187D01*
X179193350Y-79342093D01*
X179193354Y-79342086D01*
X179243596Y-79207379D01*
X179243598Y-79207372D01*
X179249999Y-79147844D01*
X179250000Y-79147827D01*
X179250000Y-78250000D01*
X178250000Y-78250000D01*
X178250000Y-79600000D01*
X177750000Y-79600000D01*
X177750000Y-78250000D01*
X176750000Y-78250000D01*
X176750000Y-79147844D01*
X163749999Y-79147844D01*
X163750000Y-79147827D01*
X163750000Y-78250000D01*
X162750000Y-78250000D01*
X162750000Y-79600000D01*
X162250000Y-79600000D01*
X162250000Y-78250000D01*
X161250000Y-78250000D01*
X161250000Y-79147844D01*
X154670187Y-79147844D01*
X154628841Y-79070493D01*
X154582465Y-79001086D01*
X154582465Y-79001085D01*
X153982962Y-79600589D01*
X153965925Y-79537007D01*
X153900099Y-79422993D01*
X153807007Y-79329901D01*
X153692993Y-79264075D01*
X153629410Y-79247037D01*
X154228913Y-78647534D01*
X154228912Y-78647533D01*
X154159506Y-78601158D01*
X154093545Y-78565900D01*
X154043701Y-78516937D01*
X154028241Y-78448799D01*
X154052073Y-78383119D01*
X154095702Y-78346059D01*
X154181610Y-78302287D01*
X154238118Y-78261232D01*
X154347213Y-78181971D01*
X154347215Y-78181968D01*
X154347219Y-78181966D01*
X154491966Y-78037219D01*
X154491968Y-78037215D01*
X154491971Y-78037213D01*
X154560177Y-77943334D01*
X154612287Y-77871610D01*
X154705220Y-77689219D01*
X154768477Y-77494534D01*
X154800500Y-77292352D01*
X154800500Y-77087648D01*
X154768477Y-76885466D01*
X154757654Y-76852155D01*
X161250000Y-76852155D01*
X161250000Y-77750000D01*
X162250000Y-77750000D01*
X162750000Y-77750000D01*
X163750000Y-77750000D01*
X163750000Y-77301577D01*
X164069500Y-77301577D01*
X164069500Y-77498422D01*
X164100290Y-77692826D01*
X164161117Y-77880029D01*
X164233242Y-78021581D01*
X164250476Y-78055405D01*
X164366172Y-78214646D01*
X164505354Y-78353828D01*
X164664595Y-78469524D01*
X164733613Y-78504690D01*
X164839970Y-78558882D01*
X164839972Y-78558882D01*
X164839975Y-78558884D01*
X164940317Y-78591487D01*
X165027173Y-78619709D01*
X165221578Y-78650500D01*
X165221583Y-78650500D01*
X165418422Y-78650500D01*
X165612826Y-78619709D01*
X165655387Y-78605880D01*
X165800025Y-78558884D01*
X165975405Y-78469524D01*
X166134646Y-78353828D01*
X166273828Y-78214646D01*
X166389524Y-78055405D01*
X166478884Y-77880025D01*
X166539709Y-77692826D01*
X166564748Y-77534736D01*
X166570500Y-77498422D01*
X166570500Y-77301577D01*
X172049500Y-77301577D01*
X172049500Y-77498422D01*
X172080290Y-77692826D01*
X172141117Y-77880029D01*
X172213242Y-78021581D01*
X172230476Y-78055405D01*
X172346172Y-78214646D01*
X172485354Y-78353828D01*
X172644595Y-78469524D01*
X172713613Y-78504690D01*
X172819970Y-78558882D01*
X172819972Y-78558882D01*
X172819975Y-78558884D01*
X172920317Y-78591487D01*
X173007173Y-78619709D01*
X173201578Y-78650500D01*
X173201583Y-78650500D01*
X173398422Y-78650500D01*
X173592826Y-78619709D01*
X173635387Y-78605880D01*
X173780025Y-78558884D01*
X173955405Y-78469524D01*
X174114646Y-78353828D01*
X174253828Y-78214646D01*
X174369524Y-78055405D01*
X174458884Y-77880025D01*
X174519709Y-77692826D01*
X174544748Y-77534736D01*
X174550500Y-77498422D01*
X174550500Y-77301577D01*
X174519709Y-77107173D01*
X174483064Y-76994394D01*
X174458884Y-76919975D01*
X174441301Y-76885466D01*
X174424328Y-76852155D01*
X176750000Y-76852155D01*
X176750000Y-77750000D01*
X177750000Y-77750000D01*
X178250000Y-77750000D01*
X179250000Y-77750000D01*
X179250000Y-76852172D01*
X179249999Y-76852155D01*
X179243598Y-76792627D01*
X179243596Y-76792620D01*
X179193354Y-76657913D01*
X179193350Y-76657906D01*
X179107190Y-76542812D01*
X179107187Y-76542809D01*
X178992093Y-76456649D01*
X178992086Y-76456645D01*
X178857379Y-76406403D01*
X178857372Y-76406401D01*
X178797844Y-76400000D01*
X178250000Y-76400000D01*
X178250000Y-77750000D01*
X177750000Y-77750000D01*
X177750000Y-76400000D01*
X177202155Y-76400000D01*
X177142627Y-76406401D01*
X177142620Y-76406403D01*
X177007913Y-76456645D01*
X177007906Y-76456649D01*
X176892812Y-76542809D01*
X176892809Y-76542812D01*
X176806649Y-76657906D01*
X176806645Y-76657913D01*
X176756403Y-76792620D01*
X176756401Y-76792627D01*
X176750000Y-76852155D01*
X174424328Y-76852155D01*
X174369525Y-76744596D01*
X174352104Y-76720619D01*
X174253828Y-76585354D01*
X174114646Y-76446172D01*
X173955405Y-76330476D01*
X173780029Y-76241117D01*
X173592826Y-76180290D01*
X173398422Y-76149500D01*
X173398417Y-76149500D01*
X173201583Y-76149500D01*
X173201578Y-76149500D01*
X173007173Y-76180290D01*
X172819970Y-76241117D01*
X172644594Y-76330476D01*
X172558840Y-76392781D01*
X172485354Y-76446172D01*
X172485352Y-76446174D01*
X172485351Y-76446174D01*
X172346174Y-76585351D01*
X172346174Y-76585352D01*
X172346172Y-76585354D01*
X172330410Y-76607049D01*
X172230476Y-76744594D01*
X172141117Y-76919970D01*
X172080290Y-77107173D01*
X172049500Y-77301577D01*
X166570500Y-77301577D01*
X166539709Y-77107173D01*
X166478882Y-76919970D01*
X166413994Y-76792620D01*
X166389524Y-76744595D01*
X166273828Y-76585354D01*
X166134646Y-76446172D01*
X165975405Y-76330476D01*
X165800029Y-76241117D01*
X165612826Y-76180290D01*
X165418422Y-76149500D01*
X165418417Y-76149500D01*
X165221583Y-76149500D01*
X165221578Y-76149500D01*
X165027173Y-76180290D01*
X164839970Y-76241117D01*
X164664594Y-76330476D01*
X164578840Y-76392781D01*
X164505354Y-76446172D01*
X164505352Y-76446174D01*
X164505351Y-76446174D01*
X164366174Y-76585351D01*
X164366174Y-76585352D01*
X164366172Y-76585354D01*
X164350410Y-76607049D01*
X164250476Y-76744594D01*
X164161117Y-76919970D01*
X164100290Y-77107173D01*
X164069500Y-77301577D01*
X163750000Y-77301577D01*
X163750000Y-76852172D01*
X163749999Y-76852155D01*
X163743598Y-76792627D01*
X163743596Y-76792620D01*
X163693354Y-76657913D01*
X163693350Y-76657906D01*
X163607190Y-76542812D01*
X163607187Y-76542809D01*
X163492093Y-76456649D01*
X163492086Y-76456645D01*
X163357379Y-76406403D01*
X163357372Y-76406401D01*
X163297844Y-76400000D01*
X162750000Y-76400000D01*
X162750000Y-77750000D01*
X162250000Y-77750000D01*
X162250000Y-76400000D01*
X161702155Y-76400000D01*
X161642627Y-76406401D01*
X161642620Y-76406403D01*
X161507913Y-76456645D01*
X161507906Y-76456649D01*
X161392812Y-76542809D01*
X161392809Y-76542812D01*
X161306649Y-76657906D01*
X161306645Y-76657913D01*
X161256403Y-76792620D01*
X161256401Y-76792627D01*
X161250000Y-76852155D01*
X154757654Y-76852155D01*
X154705220Y-76690781D01*
X154705218Y-76690778D01*
X154705218Y-76690776D01*
X154662556Y-76607049D01*
X154612287Y-76508390D01*
X154604556Y-76497749D01*
X154491971Y-76342786D01*
X154347213Y-76198028D01*
X154181614Y-76077715D01*
X154175006Y-76074348D01*
X154088917Y-76030483D01*
X154038123Y-75982511D01*
X154021328Y-75914690D01*
X154043865Y-75848555D01*
X154088917Y-75809516D01*
X154181610Y-75762287D01*
X154287733Y-75685185D01*
X154347213Y-75641971D01*
X154347215Y-75641968D01*
X154347219Y-75641966D01*
X154491966Y-75497219D01*
X154491968Y-75497215D01*
X154491971Y-75497213D01*
X154593704Y-75357187D01*
X154612287Y-75331610D01*
X154705220Y-75149219D01*
X154768477Y-74954534D01*
X154800500Y-74752352D01*
X154800500Y-74547648D01*
X154768477Y-74345466D01*
X154766189Y-74338425D01*
X154723865Y-74208165D01*
X154705220Y-74150781D01*
X154705218Y-74150778D01*
X154705218Y-74150776D01*
X154662556Y-74067048D01*
X154612287Y-73968390D01*
X154600492Y-73952155D01*
X154491971Y-73802786D01*
X154347213Y-73658028D01*
X154181613Y-73537715D01*
X154181612Y-73537714D01*
X154181610Y-73537713D01*
X154096855Y-73494528D01*
X153999223Y-73444781D01*
X153804534Y-73381522D01*
X153629995Y-73353878D01*
X153602352Y-73349500D01*
X153397648Y-73349500D01*
X153373329Y-73353351D01*
X153195465Y-73381522D01*
X153000776Y-73444781D01*
X152818386Y-73537715D01*
X152652786Y-73658028D01*
X152508028Y-73802786D01*
X152387715Y-73968386D01*
X152294781Y-74150776D01*
X152231522Y-74345465D01*
X152199500Y-74547648D01*
X152199500Y-74752351D01*
X152208318Y-74808025D01*
X152199364Y-74877318D01*
X152173526Y-74915104D01*
X143417050Y-83671580D01*
X143417044Y-83671588D01*
X143367812Y-83745268D01*
X143367813Y-83745269D01*
X143334921Y-83794496D01*
X143334914Y-83794508D01*
X143278342Y-83931086D01*
X143278340Y-83931092D01*
X143249500Y-84076079D01*
X143249500Y-102637770D01*
X143229815Y-102704809D01*
X143213181Y-102725451D01*
X140339478Y-105599154D01*
X140278155Y-105632639D01*
X140251797Y-105635473D01*
X137149000Y-105635473D01*
X137081961Y-105615788D01*
X137036206Y-105562984D01*
X137025000Y-105511473D01*
X137025000Y-104490214D01*
X137022106Y-104436237D01*
X137022106Y-104436235D01*
X136986558Y-104296960D01*
X136963136Y-104240415D01*
X136963135Y-104240415D01*
X136202962Y-105000590D01*
X136185925Y-104937007D01*
X136120099Y-104822993D01*
X136027007Y-104729901D01*
X135912993Y-104664075D01*
X135849410Y-104647037D01*
X136609583Y-103886863D01*
X136609583Y-103886862D01*
X136553052Y-103863447D01*
X136553013Y-103863432D01*
X136524375Y-103853329D01*
X136467704Y-103812463D01*
X136442122Y-103747444D01*
X136455754Y-103678917D01*
X136492745Y-103636074D01*
X136567215Y-103581969D01*
X136567215Y-103581968D01*
X136567219Y-103581966D01*
X136711966Y-103437219D01*
X136711968Y-103437215D01*
X136711971Y-103437213D01*
X136788078Y-103332459D01*
X136832287Y-103271610D01*
X136925220Y-103089219D01*
X136988477Y-102894534D01*
X137020500Y-102692352D01*
X137020500Y-102487648D01*
X136988477Y-102285466D01*
X136925220Y-102090781D01*
X136925218Y-102090778D01*
X136925218Y-102090776D01*
X136840707Y-101924916D01*
X136832287Y-101908390D01*
X136824556Y-101897749D01*
X136711971Y-101742786D01*
X136567213Y-101598028D01*
X136401614Y-101477715D01*
X136356972Y-101454969D01*
X136308917Y-101430483D01*
X136258123Y-101382511D01*
X136241328Y-101314690D01*
X136263865Y-101248555D01*
X136308917Y-101209516D01*
X136401610Y-101162287D01*
X136435355Y-101137770D01*
X136567213Y-101041971D01*
X136567215Y-101041968D01*
X136567219Y-101041966D01*
X136711966Y-100897219D01*
X136711968Y-100897215D01*
X136711971Y-100897213D01*
X136817820Y-100751522D01*
X136832287Y-100731610D01*
X136925220Y-100549219D01*
X136988477Y-100354534D01*
X137020500Y-100152352D01*
X137020500Y-99947648D01*
X136988477Y-99745466D01*
X136925220Y-99550781D01*
X136925218Y-99550778D01*
X136925218Y-99550776D01*
X136857761Y-99418386D01*
X136832287Y-99368390D01*
X136810944Y-99339014D01*
X136711971Y-99202786D01*
X136567213Y-99058028D01*
X136401614Y-98937715D01*
X136395006Y-98934348D01*
X136308917Y-98890483D01*
X136258123Y-98842511D01*
X136241328Y-98774690D01*
X136263865Y-98708555D01*
X136308917Y-98669516D01*
X136401610Y-98622287D01*
X136429006Y-98602383D01*
X136567213Y-98501971D01*
X136567215Y-98501968D01*
X136567219Y-98501966D01*
X136711966Y-98357219D01*
X136711968Y-98357215D01*
X136711971Y-98357213D01*
X136792790Y-98245973D01*
X136832287Y-98191610D01*
X136925220Y-98009219D01*
X136988477Y-97814534D01*
X137020500Y-97612352D01*
X137020500Y-97407648D01*
X136999419Y-97274548D01*
X136988477Y-97205465D01*
X136925218Y-97010776D01*
X136882556Y-96927048D01*
X136832287Y-96828390D01*
X136803190Y-96788341D01*
X136711971Y-96662786D01*
X136567213Y-96518028D01*
X136401614Y-96397715D01*
X136395006Y-96394348D01*
X136308917Y-96350483D01*
X136258123Y-96302511D01*
X136241328Y-96234690D01*
X136263865Y-96168555D01*
X136308917Y-96129516D01*
X136401610Y-96082287D01*
X136422770Y-96066913D01*
X136567213Y-95961971D01*
X136567215Y-95961968D01*
X136567219Y-95961966D01*
X136711966Y-95817219D01*
X136711968Y-95817215D01*
X136711971Y-95817213D01*
X136807965Y-95685086D01*
X136832287Y-95651610D01*
X136925220Y-95469219D01*
X136988477Y-95274534D01*
X137020500Y-95072352D01*
X137020500Y-94867648D01*
X136988477Y-94665466D01*
X136925220Y-94470781D01*
X136925218Y-94470778D01*
X136925218Y-94470776D01*
X136857447Y-94337770D01*
X136832287Y-94288390D01*
X136790728Y-94231188D01*
X136711971Y-94122786D01*
X136567217Y-93978032D01*
X136490415Y-93922232D01*
X136447750Y-93866902D01*
X136441771Y-93797288D01*
X136474377Y-93735494D01*
X136532640Y-93701765D01*
X136553022Y-93696563D01*
X136553035Y-93696559D01*
X136609582Y-93673135D01*
X135849409Y-92912962D01*
X135912993Y-92895925D01*
X136027007Y-92830099D01*
X136120099Y-92737007D01*
X136185925Y-92622993D01*
X136202962Y-92559409D01*
X136963135Y-93319582D01*
X136963137Y-93319582D01*
X136986552Y-93263053D01*
X137004544Y-93212053D01*
X137024999Y-93069780D01*
X137025000Y-93069779D01*
X137025000Y-91790214D01*
X137022106Y-91736237D01*
X137022106Y-91736235D01*
X136986558Y-91596960D01*
X136963136Y-91540415D01*
X136963135Y-91540415D01*
X136202962Y-92300589D01*
X136185925Y-92237007D01*
X136120099Y-92122993D01*
X136027007Y-92029901D01*
X135912993Y-91964075D01*
X135849410Y-91947037D01*
X136609583Y-91186863D01*
X136609583Y-91186862D01*
X136553052Y-91163447D01*
X136553013Y-91163432D01*
X136524375Y-91153329D01*
X136467704Y-91112463D01*
X136442122Y-91047444D01*
X136455754Y-90978917D01*
X136492745Y-90936074D01*
X136567215Y-90881969D01*
X136567215Y-90881968D01*
X136567219Y-90881966D01*
X136711966Y-90737219D01*
X136711968Y-90737215D01*
X136711971Y-90737213D01*
X136807965Y-90605086D01*
X136832287Y-90571610D01*
X136925220Y-90389219D01*
X136988477Y-90194534D01*
X137020500Y-89992352D01*
X137020500Y-89787648D01*
X137000635Y-89662229D01*
X136988477Y-89585465D01*
X136948199Y-89461502D01*
X136925220Y-89390781D01*
X136925218Y-89390778D01*
X136925218Y-89390776D01*
X136848666Y-89240536D01*
X136832287Y-89208390D01*
X136803755Y-89169119D01*
X136711971Y-89042786D01*
X136567213Y-88898028D01*
X136401614Y-88777715D01*
X136347220Y-88750000D01*
X136308917Y-88730483D01*
X136258123Y-88682511D01*
X136241328Y-88614690D01*
X136263865Y-88548555D01*
X136308917Y-88509516D01*
X136401610Y-88462287D01*
X136422770Y-88446913D01*
X136567213Y-88341971D01*
X136567215Y-88341968D01*
X136567219Y-88341966D01*
X136711966Y-88197219D01*
X136711968Y-88197215D01*
X136711971Y-88197213D01*
X136782579Y-88100028D01*
X136832287Y-88031610D01*
X136925220Y-87849219D01*
X136988477Y-87654534D01*
X137020500Y-87452352D01*
X137020500Y-87247648D01*
X137014845Y-87211947D01*
X136988477Y-87045465D01*
X136941215Y-86900008D01*
X136925220Y-86850781D01*
X136925218Y-86850778D01*
X136925218Y-86850776D01*
X136870205Y-86742809D01*
X136832287Y-86668390D01*
X136810040Y-86637769D01*
X136711971Y-86502786D01*
X136567213Y-86358028D01*
X136401614Y-86237715D01*
X136395006Y-86234348D01*
X136308917Y-86190483D01*
X136258123Y-86142511D01*
X136241328Y-86074690D01*
X136263865Y-86008555D01*
X136308917Y-85969516D01*
X136401610Y-85922287D01*
X136422770Y-85906913D01*
X136567213Y-85801971D01*
X136567215Y-85801968D01*
X136567219Y-85801966D01*
X136711966Y-85657219D01*
X136711968Y-85657215D01*
X136711971Y-85657213D01*
X136782236Y-85560500D01*
X136832287Y-85491610D01*
X136925220Y-85309219D01*
X136988477Y-85114534D01*
X137020500Y-84912352D01*
X137020500Y-84707648D01*
X136988477Y-84505466D01*
X136986700Y-84499998D01*
X136941464Y-84360776D01*
X136925220Y-84310781D01*
X136925218Y-84310778D01*
X136925218Y-84310776D01*
X136863983Y-84190597D01*
X136832287Y-84128390D01*
X136811646Y-84099980D01*
X136711971Y-83962786D01*
X136567213Y-83818028D01*
X136401614Y-83697715D01*
X136386470Y-83689999D01*
X136308917Y-83650483D01*
X136258123Y-83602511D01*
X136241328Y-83534690D01*
X136263865Y-83468555D01*
X136308917Y-83429516D01*
X136401610Y-83382287D01*
X136450312Y-83346903D01*
X136567213Y-83261971D01*
X136567215Y-83261968D01*
X136567219Y-83261966D01*
X136711966Y-83117219D01*
X136711968Y-83117215D01*
X136711971Y-83117213D01*
X136795096Y-83002799D01*
X136832287Y-82951610D01*
X136925220Y-82769219D01*
X136988477Y-82574534D01*
X137020500Y-82372352D01*
X137020500Y-82167648D01*
X136988477Y-81965466D01*
X136925220Y-81770781D01*
X136925218Y-81770778D01*
X136925218Y-81770776D01*
X136879879Y-81681794D01*
X136832287Y-81588390D01*
X136809690Y-81557288D01*
X136711971Y-81422786D01*
X136567217Y-81278032D01*
X136490415Y-81222232D01*
X136447750Y-81166902D01*
X136441771Y-81097288D01*
X136474377Y-81035494D01*
X136532640Y-81001765D01*
X136553022Y-80996563D01*
X136553035Y-80996559D01*
X136609582Y-80973135D01*
X135849409Y-80212962D01*
X135912993Y-80195925D01*
X136027007Y-80130099D01*
X136120099Y-80037007D01*
X136185925Y-79922993D01*
X136202962Y-79859409D01*
X136963135Y-80619582D01*
X136963137Y-80619582D01*
X136986552Y-80563053D01*
X137004544Y-80512053D01*
X137024999Y-80369780D01*
X137025000Y-80369779D01*
X137025000Y-79090214D01*
X137022106Y-79036237D01*
X137022106Y-79036235D01*
X136986558Y-78896960D01*
X136963136Y-78840415D01*
X136963135Y-78840415D01*
X136202962Y-79600589D01*
X136185925Y-79537007D01*
X136120099Y-79422993D01*
X136027007Y-79329901D01*
X135912993Y-79264075D01*
X135849410Y-79247037D01*
X136609583Y-78486863D01*
X136609583Y-78486862D01*
X136553052Y-78463447D01*
X136553013Y-78463432D01*
X136524375Y-78453329D01*
X136467704Y-78412463D01*
X136442122Y-78347444D01*
X136455754Y-78278917D01*
X136492745Y-78236074D01*
X136567215Y-78181969D01*
X136567215Y-78181968D01*
X136567219Y-78181966D01*
X136711966Y-78037219D01*
X136711968Y-78037215D01*
X136711971Y-78037213D01*
X136780177Y-77943334D01*
X136832287Y-77871610D01*
X136910817Y-77717486D01*
X141009500Y-77717486D01*
X141009500Y-77902514D01*
X141015965Y-77943334D01*
X141038445Y-78085265D01*
X141095619Y-78261232D01*
X141095620Y-78261235D01*
X141147325Y-78362710D01*
X141179622Y-78426096D01*
X141288379Y-78575787D01*
X141419213Y-78706621D01*
X141568904Y-78815378D01*
X141618042Y-78840415D01*
X141733764Y-78899379D01*
X141733767Y-78899380D01*
X141821750Y-78927967D01*
X141909736Y-78956555D01*
X142092486Y-78985500D01*
X142092487Y-78985500D01*
X142277513Y-78985500D01*
X142277514Y-78985500D01*
X142460264Y-78956555D01*
X142636235Y-78899379D01*
X142801096Y-78815378D01*
X142950787Y-78706621D01*
X143081621Y-78575787D01*
X143190378Y-78426096D01*
X143274379Y-78261235D01*
X143331555Y-78085264D01*
X143360500Y-77902514D01*
X143360500Y-77717486D01*
X145859500Y-77717486D01*
X145859500Y-77902514D01*
X145865965Y-77943334D01*
X145888445Y-78085265D01*
X145945619Y-78261232D01*
X145945620Y-78261235D01*
X145997325Y-78362710D01*
X146029622Y-78426096D01*
X146138379Y-78575787D01*
X146269213Y-78706621D01*
X146418904Y-78815378D01*
X146468042Y-78840415D01*
X146583764Y-78899379D01*
X146583767Y-78899380D01*
X146671750Y-78927967D01*
X146759736Y-78956555D01*
X146942486Y-78985500D01*
X146942487Y-78985500D01*
X147127513Y-78985500D01*
X147127514Y-78985500D01*
X147310264Y-78956555D01*
X147486235Y-78899379D01*
X147651096Y-78815378D01*
X147800787Y-78706621D01*
X147931621Y-78575787D01*
X148040378Y-78426096D01*
X148124379Y-78261235D01*
X148181555Y-78085264D01*
X148210500Y-77902514D01*
X148210500Y-77717486D01*
X148181555Y-77534736D01*
X148152967Y-77446750D01*
X148124380Y-77358767D01*
X148124379Y-77358764D01*
X148061659Y-77235671D01*
X148040378Y-77193904D01*
X147931621Y-77044213D01*
X147800787Y-76913379D01*
X147651096Y-76804622D01*
X147627541Y-76792620D01*
X147486235Y-76720620D01*
X147486232Y-76720619D01*
X147310265Y-76663445D01*
X147162321Y-76640013D01*
X147127514Y-76634500D01*
X146942486Y-76634500D01*
X146907679Y-76640013D01*
X146759734Y-76663445D01*
X146583767Y-76720619D01*
X146583764Y-76720620D01*
X146418903Y-76804622D01*
X146353457Y-76852172D01*
X146269213Y-76913379D01*
X146269211Y-76913381D01*
X146269210Y-76913381D01*
X146138381Y-77044210D01*
X146138381Y-77044211D01*
X146138379Y-77044213D01*
X146108305Y-77085606D01*
X146029622Y-77193903D01*
X145945620Y-77358764D01*
X145945619Y-77358767D01*
X145888445Y-77534734D01*
X145888445Y-77534736D01*
X145859500Y-77717486D01*
X143360500Y-77717486D01*
X143331555Y-77534736D01*
X143302967Y-77446750D01*
X143274380Y-77358767D01*
X143274379Y-77358764D01*
X143211659Y-77235671D01*
X143190378Y-77193904D01*
X143081621Y-77044213D01*
X142950787Y-76913379D01*
X142801096Y-76804622D01*
X142777541Y-76792620D01*
X142636235Y-76720620D01*
X142636232Y-76720619D01*
X142460265Y-76663445D01*
X142312321Y-76640013D01*
X142277514Y-76634500D01*
X142092486Y-76634500D01*
X142057679Y-76640013D01*
X141909734Y-76663445D01*
X141733767Y-76720619D01*
X141733764Y-76720620D01*
X141568903Y-76804622D01*
X141503457Y-76852172D01*
X141419213Y-76913379D01*
X141419211Y-76913381D01*
X141419210Y-76913381D01*
X141288381Y-77044210D01*
X141288381Y-77044211D01*
X141288379Y-77044213D01*
X141258305Y-77085606D01*
X141179622Y-77193903D01*
X141095620Y-77358764D01*
X141095619Y-77358767D01*
X141038445Y-77534734D01*
X141038445Y-77534736D01*
X141009500Y-77717486D01*
X136910817Y-77717486D01*
X136925220Y-77689219D01*
X136975415Y-77534736D01*
X136988476Y-77494538D01*
X136988476Y-77494537D01*
X136988477Y-77494534D01*
X137020500Y-77292352D01*
X137020500Y-77087648D01*
X136993934Y-76919920D01*
X136988477Y-76885465D01*
X136958312Y-76792627D01*
X136925220Y-76690781D01*
X136925218Y-76690778D01*
X136925218Y-76690776D01*
X136882556Y-76607049D01*
X136832287Y-76508390D01*
X136824556Y-76497749D01*
X136711971Y-76342786D01*
X136567217Y-76198032D01*
X136567212Y-76198028D01*
X136486440Y-76139344D01*
X136443774Y-76084015D01*
X136437795Y-76014401D01*
X136470400Y-75952606D01*
X136522433Y-75920641D01*
X136609606Y-75893478D01*
X136755185Y-75805472D01*
X136875472Y-75685185D01*
X136963478Y-75539606D01*
X137014086Y-75377196D01*
X137020500Y-75306616D01*
X137020500Y-74673713D01*
X140534500Y-74673713D01*
X140534500Y-74886287D01*
X140539064Y-74915104D01*
X140550253Y-74985750D01*
X140567754Y-75096243D01*
X140615141Y-75242086D01*
X140633444Y-75298414D01*
X140729951Y-75487820D01*
X140854890Y-75659786D01*
X141005213Y-75810109D01*
X141177179Y-75935048D01*
X141177181Y-75935049D01*
X141177184Y-75935051D01*
X141366588Y-76031557D01*
X141568757Y-76097246D01*
X141778713Y-76130500D01*
X141778714Y-76130500D01*
X141991286Y-76130500D01*
X141991287Y-76130500D01*
X142201243Y-76097246D01*
X142403412Y-76031557D01*
X142592816Y-75935051D01*
X142702695Y-75855220D01*
X142764786Y-75810109D01*
X142764788Y-75810106D01*
X142764792Y-75810104D01*
X142915104Y-75659792D01*
X142915106Y-75659788D01*
X142915109Y-75659786D01*
X143040048Y-75487820D01*
X143040047Y-75487820D01*
X143040051Y-75487816D01*
X143136557Y-75298412D01*
X143202246Y-75096243D01*
X143235500Y-74886287D01*
X143235500Y-74673713D01*
X145984500Y-74673713D01*
X145984500Y-74886287D01*
X145989064Y-74915104D01*
X146000253Y-74985750D01*
X146017754Y-75096243D01*
X146065141Y-75242086D01*
X146083444Y-75298414D01*
X146179951Y-75487820D01*
X146304890Y-75659786D01*
X146455213Y-75810109D01*
X146627179Y-75935048D01*
X146627181Y-75935049D01*
X146627184Y-75935051D01*
X146816588Y-76031557D01*
X147018757Y-76097246D01*
X147228713Y-76130500D01*
X147228714Y-76130500D01*
X147441286Y-76130500D01*
X147441287Y-76130500D01*
X147651243Y-76097246D01*
X147853412Y-76031557D01*
X148042816Y-75935051D01*
X148152695Y-75855220D01*
X148214786Y-75810109D01*
X148214788Y-75810106D01*
X148214792Y-75810104D01*
X148365104Y-75659792D01*
X148365106Y-75659788D01*
X148365109Y-75659786D01*
X148490048Y-75487820D01*
X148490047Y-75487820D01*
X148490051Y-75487816D01*
X148586557Y-75298412D01*
X148652246Y-75096243D01*
X148685500Y-74886287D01*
X148685500Y-74673713D01*
X148652246Y-74463757D01*
X148586557Y-74261588D01*
X148490051Y-74072184D01*
X148490049Y-74072181D01*
X148490048Y-74072179D01*
X148365109Y-73900213D01*
X148214786Y-73749890D01*
X148042820Y-73624951D01*
X147853414Y-73528444D01*
X147853413Y-73528443D01*
X147853412Y-73528443D01*
X147651243Y-73462754D01*
X147651241Y-73462753D01*
X147651240Y-73462753D01*
X147489957Y-73437208D01*
X147441287Y-73429500D01*
X147228713Y-73429500D01*
X147180042Y-73437208D01*
X147018760Y-73462753D01*
X146816585Y-73528444D01*
X146627179Y-73624951D01*
X146455213Y-73749890D01*
X146304890Y-73900213D01*
X146179951Y-74072179D01*
X146083444Y-74261585D01*
X146017753Y-74463760D01*
X145988506Y-74648422D01*
X145984500Y-74673713D01*
X143235500Y-74673713D01*
X143202246Y-74463757D01*
X143136557Y-74261588D01*
X143040051Y-74072184D01*
X143040049Y-74072181D01*
X143040048Y-74072179D01*
X142915109Y-73900213D01*
X142764786Y-73749890D01*
X142592820Y-73624951D01*
X142403414Y-73528444D01*
X142403413Y-73528443D01*
X142403412Y-73528443D01*
X142201243Y-73462754D01*
X142201241Y-73462753D01*
X142201240Y-73462753D01*
X142039957Y-73437208D01*
X141991287Y-73429500D01*
X141778713Y-73429500D01*
X141730042Y-73437208D01*
X141568760Y-73462753D01*
X141366585Y-73528444D01*
X141177179Y-73624951D01*
X141005213Y-73749890D01*
X140854890Y-73900213D01*
X140729951Y-74072179D01*
X140633444Y-74261585D01*
X140567753Y-74463760D01*
X140538506Y-74648422D01*
X140534500Y-74673713D01*
X137020500Y-74673713D01*
X137020500Y-73993384D01*
X137014086Y-73922804D01*
X136963478Y-73760394D01*
X136875472Y-73614815D01*
X136875470Y-73614813D01*
X136875469Y-73614811D01*
X136755188Y-73494530D01*
X136702624Y-73462754D01*
X136609606Y-73406522D01*
X136447196Y-73355914D01*
X136447194Y-73355913D01*
X136447192Y-73355913D01*
X136397778Y-73351423D01*
X136376616Y-73349500D01*
X135063384Y-73349500D01*
X135044145Y-73351248D01*
X134992807Y-73355913D01*
X134830393Y-73406522D01*
X134684811Y-73494530D01*
X134564530Y-73614811D01*
X134476520Y-73760397D01*
X134460319Y-73812390D01*
X134421582Y-73870538D01*
X134357557Y-73898512D01*
X134341934Y-73899500D01*
X132776080Y-73899500D01*
X132631092Y-73928340D01*
X132631082Y-73928343D01*
X132494511Y-73984912D01*
X132494498Y-73984919D01*
X132371584Y-74067048D01*
X132371580Y-74067051D01*
X128417050Y-78021581D01*
X128417044Y-78021589D01*
X128380266Y-78076631D01*
X128380267Y-78076632D01*
X128334913Y-78144508D01*
X128278343Y-78281082D01*
X128278340Y-78281092D01*
X128249500Y-78426079D01*
X128249500Y-78845953D01*
X128229815Y-78912992D01*
X128177011Y-78958747D01*
X128107853Y-78968691D01*
X128044297Y-78939666D01*
X128037819Y-78933634D01*
X127892213Y-78788028D01*
X127726614Y-78667715D01*
X127719884Y-78664286D01*
X127633917Y-78620483D01*
X127583123Y-78572511D01*
X127566328Y-78504690D01*
X127588865Y-78438555D01*
X127633917Y-78399516D01*
X127726610Y-78352287D01*
X127808079Y-78293097D01*
X127892213Y-78231971D01*
X127892215Y-78231968D01*
X127892219Y-78231966D01*
X128036966Y-78087219D01*
X128036968Y-78087215D01*
X128036971Y-78087213D01*
X128106426Y-77991615D01*
X128157287Y-77921610D01*
X128250220Y-77739219D01*
X128313477Y-77544534D01*
X128345500Y-77342352D01*
X128345500Y-77137648D01*
X128323319Y-76997606D01*
X128313477Y-76935465D01*
X128267066Y-76792627D01*
X128250220Y-76740781D01*
X128250218Y-76740778D01*
X128250218Y-76740776D01*
X128210815Y-76663445D01*
X128157287Y-76558390D01*
X128132964Y-76524912D01*
X128036971Y-76392786D01*
X127892213Y-76248028D01*
X127726613Y-76127715D01*
X127726612Y-76127714D01*
X127726610Y-76127713D01*
X127628480Y-76077713D01*
X127544223Y-76034781D01*
X127349534Y-75971522D01*
X127174995Y-75943878D01*
X127147352Y-75939500D01*
X126942648Y-75939500D01*
X126918329Y-75943351D01*
X126740465Y-75971522D01*
X126545776Y-76034781D01*
X126363386Y-76127715D01*
X126197786Y-76248028D01*
X126053028Y-76392786D01*
X125932715Y-76558386D01*
X125839781Y-76740776D01*
X125776522Y-76935465D01*
X125752419Y-77087648D01*
X125744500Y-77137648D01*
X125744500Y-77342352D01*
X125747100Y-77358765D01*
X125776522Y-77544534D01*
X125839781Y-77739223D01*
X125891117Y-77839973D01*
X125911526Y-77880029D01*
X125932715Y-77921613D01*
X126053028Y-78087213D01*
X126197786Y-78231971D01*
X126294570Y-78302287D01*
X126363390Y-78352287D01*
X126445317Y-78394031D01*
X126456080Y-78399515D01*
X126506876Y-78447490D01*
X126523671Y-78515311D01*
X126501134Y-78581446D01*
X126456080Y-78620485D01*
X126363386Y-78667715D01*
X126197786Y-78788028D01*
X126053028Y-78932786D01*
X125932715Y-79098386D01*
X125839781Y-79280776D01*
X125776522Y-79475465D01*
X125744500Y-79677648D01*
X125744500Y-79882351D01*
X125776522Y-80084534D01*
X125839781Y-80279223D01*
X125895974Y-80389506D01*
X125931338Y-80458912D01*
X125932715Y-80461613D01*
X126053028Y-80627213D01*
X126197786Y-80771971D01*
X126317351Y-80858838D01*
X126363390Y-80892287D01*
X126441355Y-80932012D01*
X126456080Y-80939515D01*
X126506876Y-80987490D01*
X126523671Y-81055311D01*
X126501134Y-81121446D01*
X126456080Y-81160485D01*
X126363386Y-81207715D01*
X126197786Y-81328028D01*
X126053034Y-81472780D01*
X125932711Y-81638393D01*
X125910598Y-81681794D01*
X125900148Y-81692858D01*
X125893826Y-81706703D01*
X125876646Y-81717743D01*
X125862624Y-81732591D01*
X125846942Y-81736832D01*
X125835048Y-81744477D01*
X125800113Y-81749500D01*
X125578958Y-81749500D01*
X125511919Y-81729815D01*
X125473420Y-81690598D01*
X125467712Y-81681344D01*
X125343657Y-81557289D01*
X125343656Y-81557288D01*
X125217810Y-81479666D01*
X125194336Y-81465187D01*
X125194331Y-81465185D01*
X125170499Y-81457288D01*
X125027797Y-81410001D01*
X125027795Y-81410000D01*
X124925010Y-81399500D01*
X123924998Y-81399500D01*
X123924980Y-81399501D01*
X123822203Y-81410000D01*
X123822200Y-81410001D01*
X123655668Y-81465185D01*
X123655663Y-81465187D01*
X123506342Y-81557289D01*
X123382289Y-81681342D01*
X123290187Y-81830663D01*
X123290186Y-81830666D01*
X123235001Y-81997203D01*
X123235001Y-81997204D01*
X123235000Y-81997204D01*
X123224500Y-82099983D01*
X123224500Y-82900001D01*
X123224501Y-82900019D01*
X123235000Y-83002796D01*
X123235001Y-83002799D01*
X123290185Y-83169331D01*
X123290187Y-83169336D01*
X123325069Y-83225888D01*
X123381333Y-83317108D01*
X123382289Y-83318657D01*
X123475951Y-83412319D01*
X123479268Y-83418394D01*
X123484949Y-83422352D01*
X123495798Y-83448667D01*
X123509436Y-83473642D01*
X123508942Y-83480545D01*
X123511581Y-83486946D01*
X123506482Y-83514944D01*
X123504452Y-83543334D01*
X123500003Y-83550522D01*
X123499063Y-83555686D01*
X123483324Y-83577473D01*
X123478887Y-83584644D01*
X123477455Y-83586176D01*
X123382288Y-83681344D01*
X123370093Y-83701114D01*
X123361659Y-83710144D01*
X123341791Y-83721887D01*
X123324632Y-83737322D01*
X123310092Y-83740626D01*
X123301512Y-83745698D01*
X123289712Y-83745257D01*
X123271042Y-83749500D01*
X122287229Y-83749500D01*
X122220190Y-83729815D01*
X122199548Y-83713181D01*
X120440921Y-81954552D01*
X120440920Y-81954551D01*
X120349479Y-81893453D01*
X120317995Y-81872416D01*
X120317988Y-81872412D01*
X120181417Y-81815843D01*
X120181407Y-81815840D01*
X120078715Y-81795413D01*
X120016804Y-81763028D01*
X120014769Y-81761018D01*
X120004804Y-81750948D01*
X119992712Y-81731344D01*
X119868656Y-81607288D01*
X119853203Y-81597756D01*
X119842778Y-81587222D01*
X119832947Y-81568993D01*
X119819096Y-81553594D01*
X119816698Y-81538861D01*
X119809614Y-81525725D01*
X119811199Y-81505075D01*
X119807872Y-81484632D01*
X119813819Y-81470942D01*
X119814962Y-81456061D01*
X119827459Y-81439546D01*
X119835713Y-81420549D01*
X119853499Y-81405136D01*
X119857125Y-81400346D01*
X119860426Y-81399134D01*
X119865817Y-81394462D01*
X119868656Y-81392712D01*
X119992712Y-81268656D01*
X120084814Y-81119334D01*
X120139999Y-80952797D01*
X120150500Y-80850009D01*
X120150499Y-80074992D01*
X120139999Y-79972203D01*
X120084814Y-79805666D01*
X119992712Y-79656344D01*
X119868656Y-79532288D01*
X119734402Y-79449480D01*
X119687679Y-79397533D01*
X119675500Y-79343942D01*
X119675500Y-75214610D01*
X119695185Y-75147571D01*
X119700228Y-75140641D01*
X119702136Y-75137784D01*
X119702139Y-75137782D01*
X119811632Y-74973914D01*
X119887051Y-74791835D01*
X119918229Y-74635095D01*
X119925500Y-74598543D01*
X119925500Y-74401456D01*
X119887052Y-74208170D01*
X119887051Y-74208169D01*
X119887051Y-74208165D01*
X119863280Y-74150776D01*
X119811635Y-74026092D01*
X119811628Y-74026079D01*
X119702139Y-73862218D01*
X119702136Y-73862214D01*
X119562785Y-73722863D01*
X119562781Y-73722860D01*
X119398920Y-73613371D01*
X119398907Y-73613364D01*
X119216839Y-73537950D01*
X119216829Y-73537947D01*
X119023543Y-73499500D01*
X119023541Y-73499500D01*
X118826459Y-73499500D01*
X118826457Y-73499500D01*
X118633171Y-73537947D01*
X118633168Y-73537948D01*
X118633166Y-73537948D01*
X118633165Y-73537949D01*
X118633163Y-73537950D01*
X118530337Y-73580541D01*
X118460868Y-73588009D01*
X118408577Y-73565247D01*
X118397092Y-73556649D01*
X118397088Y-73556647D01*
X118262376Y-73506402D01*
X118262372Y-73506401D01*
X118202844Y-73500000D01*
X117905000Y-73500000D01*
X117905000Y-74255025D01*
X117869905Y-74219930D01*
X117790095Y-74173852D01*
X117701078Y-74150000D01*
X117608922Y-74150000D01*
X117519905Y-74173852D01*
X117440095Y-74219930D01*
X117374930Y-74285095D01*
X117328852Y-74364905D01*
X117305000Y-74453922D01*
X117305000Y-74546078D01*
X117328852Y-74635095D01*
X117374930Y-74714905D01*
X117440095Y-74780070D01*
X117519905Y-74826148D01*
X117608922Y-74850000D01*
X117701078Y-74850000D01*
X117790095Y-74826148D01*
X117869905Y-74780070D01*
X117905000Y-74744975D01*
X117905000Y-75500000D01*
X118050500Y-75500000D01*
X118117539Y-75519685D01*
X118163294Y-75572489D01*
X118174500Y-75624000D01*
X118174500Y-79343942D01*
X118154815Y-79410981D01*
X118115598Y-79449479D01*
X118073468Y-79475466D01*
X117981342Y-79532289D01*
X117857289Y-79656342D01*
X117765187Y-79805663D01*
X117765186Y-79805666D01*
X117710001Y-79972203D01*
X117710001Y-79972204D01*
X117710000Y-79972204D01*
X117699500Y-80074983D01*
X117699500Y-80850001D01*
X117699501Y-80850019D01*
X117710000Y-80952796D01*
X117710001Y-80952799D01*
X117765185Y-81119331D01*
X117765187Y-81119336D01*
X117857289Y-81268657D01*
X117981346Y-81392714D01*
X117984182Y-81394463D01*
X117985717Y-81396170D01*
X117987011Y-81397193D01*
X117986836Y-81397414D01*
X118030905Y-81446411D01*
X118042126Y-81515374D01*
X118014282Y-81579456D01*
X118006140Y-81588302D01*
X117996137Y-81598163D01*
X117981344Y-81607288D01*
X117857288Y-81731344D01*
X117851446Y-81740814D01*
X117840809Y-81751302D01*
X117822653Y-81761048D01*
X117807335Y-81774825D01*
X117789401Y-81778899D01*
X117779249Y-81784350D01*
X117768972Y-81783541D01*
X117753752Y-81787000D01*
X117563768Y-81787000D01*
X117496729Y-81767315D01*
X117458229Y-81728097D01*
X117451843Y-81717743D01*
X117367712Y-81581344D01*
X117243656Y-81457288D01*
X117094334Y-81365186D01*
X116927797Y-81310001D01*
X116927795Y-81310000D01*
X116825010Y-81299500D01*
X116024998Y-81299500D01*
X116024980Y-81299501D01*
X115922203Y-81310000D01*
X115922200Y-81310001D01*
X115755668Y-81365185D01*
X115755663Y-81365187D01*
X115606342Y-81457289D01*
X115512681Y-81550951D01*
X115451358Y-81584436D01*
X115381666Y-81579452D01*
X115337319Y-81550951D01*
X115243657Y-81457289D01*
X115243656Y-81457288D01*
X115094334Y-81365186D01*
X114927797Y-81310001D01*
X114927795Y-81310000D01*
X114825010Y-81299500D01*
X114024998Y-81299500D01*
X114024980Y-81299501D01*
X113922203Y-81310000D01*
X113922200Y-81310001D01*
X113755668Y-81365185D01*
X113755663Y-81365187D01*
X113606342Y-81457289D01*
X113530451Y-81533181D01*
X113469128Y-81566666D01*
X113442770Y-81569500D01*
X112930418Y-81569500D01*
X112863379Y-81549815D01*
X112830100Y-81518385D01*
X112796971Y-81472787D01*
X112796967Y-81472782D01*
X112652213Y-81328028D01*
X112486614Y-81207715D01*
X112480006Y-81204348D01*
X112393917Y-81160483D01*
X112343123Y-81112511D01*
X112326328Y-81044690D01*
X112348865Y-80978555D01*
X112393917Y-80939516D01*
X112486610Y-80892287D01*
X112532649Y-80858838D01*
X112652213Y-80771971D01*
X112652215Y-80771968D01*
X112652219Y-80771966D01*
X112796966Y-80627219D01*
X112796968Y-80627215D01*
X112796971Y-80627213D01*
X112880638Y-80512053D01*
X112917287Y-80461610D01*
X113010220Y-80279219D01*
X113073477Y-80084534D01*
X113105500Y-79882352D01*
X113105500Y-79677648D01*
X113073477Y-79475466D01*
X113056427Y-79422993D01*
X113010218Y-79280776D01*
X112942476Y-79147827D01*
X112917287Y-79098390D01*
X112872131Y-79036237D01*
X112796971Y-78932786D01*
X112652217Y-78788032D01*
X112652212Y-78788028D01*
X112558051Y-78719616D01*
X112515385Y-78664286D01*
X112509406Y-78594673D01*
X112542012Y-78532878D01*
X112591933Y-78501592D01*
X112674117Y-78474359D01*
X112674124Y-78474356D01*
X112823345Y-78382315D01*
X112947315Y-78258345D01*
X113039356Y-78109124D01*
X113039358Y-78109119D01*
X113094505Y-77942697D01*
X113094506Y-77942690D01*
X113104999Y-77839986D01*
X113105000Y-77839973D01*
X113105000Y-77490000D01*
X112120686Y-77490000D01*
X112125080Y-77485606D01*
X112177741Y-77394394D01*
X112205000Y-77292661D01*
X112205000Y-77187339D01*
X112177741Y-77085606D01*
X112125080Y-76994394D01*
X112120686Y-76990000D01*
X113104999Y-76990000D01*
X113104999Y-76640028D01*
X113104998Y-76640013D01*
X113094505Y-76537302D01*
X113039358Y-76370880D01*
X113039356Y-76370875D01*
X112947315Y-76221654D01*
X112823345Y-76097684D01*
X112674124Y-76005643D01*
X112674119Y-76005641D01*
X112507697Y-75950494D01*
X112507690Y-75950493D01*
X112404986Y-75940000D01*
X112055000Y-75940000D01*
X112055000Y-76924314D01*
X112050606Y-76919920D01*
X111959394Y-76867259D01*
X111857661Y-76840000D01*
X111752339Y-76840000D01*
X111650606Y-76867259D01*
X111559394Y-76919920D01*
X111555000Y-76924314D01*
X111555000Y-75940000D01*
X111205028Y-75940000D01*
X111205012Y-75940001D01*
X111102302Y-75950494D01*
X110935880Y-76005641D01*
X110935875Y-76005643D01*
X110786654Y-76097684D01*
X110662684Y-76221654D01*
X110570643Y-76370875D01*
X110570641Y-76370880D01*
X110515494Y-76537302D01*
X110515493Y-76537309D01*
X110505000Y-76640013D01*
X110505000Y-76990000D01*
X111489314Y-76990000D01*
X111484920Y-76994394D01*
X111432259Y-77085606D01*
X111405000Y-77187339D01*
X111405000Y-77292661D01*
X111432259Y-77394394D01*
X111484920Y-77485606D01*
X111489314Y-77490000D01*
X110505001Y-77490000D01*
X110505001Y-77839986D01*
X110515494Y-77942697D01*
X110570641Y-78109119D01*
X110570643Y-78109124D01*
X110662684Y-78258345D01*
X110786654Y-78382315D01*
X110935875Y-78474356D01*
X110935882Y-78474359D01*
X111018067Y-78501592D01*
X111075512Y-78541364D01*
X111102336Y-78605880D01*
X111090021Y-78674656D01*
X111051949Y-78719616D01*
X110957787Y-78788028D01*
X110957782Y-78788032D01*
X110813028Y-78932786D01*
X110692715Y-79098386D01*
X110599781Y-79280776D01*
X110536522Y-79475465D01*
X110504500Y-79677648D01*
X109000500Y-79677648D01*
X109000500Y-75503750D01*
X109000726Y-75496263D01*
X109002348Y-75469450D01*
X109018271Y-75206201D01*
X109020076Y-75191340D01*
X109027795Y-75149223D01*
X109046373Y-75047844D01*
X116655000Y-75047844D01*
X116661401Y-75107372D01*
X116661403Y-75107379D01*
X116711645Y-75242086D01*
X116711649Y-75242093D01*
X116797809Y-75357187D01*
X116797812Y-75357190D01*
X116912906Y-75443350D01*
X116912913Y-75443354D01*
X117047620Y-75493596D01*
X117047627Y-75493598D01*
X117107155Y-75499999D01*
X117107172Y-75500000D01*
X117405000Y-75500000D01*
X117405000Y-74750000D01*
X116655000Y-74750000D01*
X116655000Y-75047844D01*
X109046373Y-75047844D01*
X109071780Y-74909198D01*
X109075364Y-74894664D01*
X109160699Y-74620812D01*
X109165997Y-74606842D01*
X109283727Y-74345258D01*
X109290680Y-74332012D01*
X109358435Y-74219930D01*
X109439075Y-74086534D01*
X109447570Y-74074227D01*
X109543207Y-73952155D01*
X116655000Y-73952155D01*
X116655000Y-74250000D01*
X117405000Y-74250000D01*
X117405000Y-73500000D01*
X117107155Y-73500000D01*
X117047627Y-73506401D01*
X117047620Y-73506403D01*
X116912913Y-73556645D01*
X116912906Y-73556649D01*
X116797812Y-73642809D01*
X116797809Y-73642812D01*
X116711649Y-73757906D01*
X116711645Y-73757913D01*
X116661403Y-73892620D01*
X116661401Y-73892627D01*
X116655000Y-73952155D01*
X109543207Y-73952155D01*
X109624481Y-73848417D01*
X109634396Y-73837226D01*
X109837226Y-73634396D01*
X109848417Y-73624481D01*
X110074230Y-73447567D01*
X110086534Y-73439075D01*
X110332012Y-73290680D01*
X110345258Y-73283727D01*
X110606842Y-73165997D01*
X110620812Y-73160699D01*
X110894668Y-73075362D01*
X110909198Y-73071780D01*
X111191344Y-73020075D01*
X111206201Y-73018271D01*
X111496264Y-73000726D01*
X111503751Y-73000500D01*
X111565892Y-73000500D01*
X185434108Y-73000500D01*
X185496249Y-73000500D01*
X185503736Y-73000726D01*
G37*
%TD.AperFunction*%
%TD*%
M02*
